<svg width="146" height="133" viewBox="0 0 146 133" fill="none" xmlns="http://www.w3.org/2000/svg">
<path d="M66.4627 98.2662C51.3105 96.465 34.6699 97.3453 26.3263 89.8321C18.0337 82.2779 17.9482 66.2372 24.0501 52.0052C30.1519 37.7731 42.4412 25.3496 57.6818 21.0492C73.0184 16.7544 91.3064 20.5827 105.069 29.8599C118.832 39.1371 128.032 53.7293 127.957 67.9155C127.889 82.0142 118.509 95.5729 106.961 100.131C95.3686 104.643 81.6149 100.067 66.4627 98.2662Z" fill="white"/>
<path d="M44.6564 52.144C43.7204 52.144 42.9044 51.994 42.2084 51.694C41.5124 51.394 40.9724 50.974 40.5884 50.434C40.2164 49.894 40.0304 49.258 40.0304 48.526V48.076C40.0304 48.016 40.0484 47.968 40.0844 47.932C40.1324 47.884 40.1864 47.86 40.2464 47.86H41.8484C41.9084 47.86 41.9564 47.884 41.9924 47.932C42.0404 47.968 42.0644 48.016 42.0644 48.076V48.418C42.0644 48.97 42.3104 49.432 42.8024 49.804C43.2944 50.164 43.9664 50.344 44.8184 50.344C45.5504 50.344 46.1024 50.188 46.4744 49.876C46.8464 49.564 47.0324 49.162 47.0324 48.67C47.0324 48.334 46.9304 48.052 46.7264 47.824C46.5224 47.584 46.2284 47.368 45.8444 47.176C45.4724 46.984 44.9084 46.744 44.1524 46.456C43.3004 46.144 42.6104 45.85 42.0824 45.574C41.5544 45.298 41.1104 44.926 40.7504 44.458C40.4024 43.978 40.2284 43.384 40.2284 42.676C40.2284 41.62 40.6124 40.786 41.3804 40.174C42.1484 39.562 43.1744 39.256 44.4584 39.256C45.3584 39.256 46.1504 39.412 46.8344 39.724C47.5304 40.036 48.0704 40.474 48.4544 41.038C48.8384 41.59 49.0304 42.232 49.0304 42.964V43.27C49.0304 43.33 49.0064 43.384 48.9584 43.432C48.9224 43.468 48.8744 43.486 48.8144 43.486H47.1944C47.1344 43.486 47.0804 43.468 47.0324 43.432C46.9964 43.384 46.9784 43.33 46.9784 43.27V43.072C46.9784 42.508 46.7444 42.034 46.2764 41.65C45.8204 41.254 45.1844 41.056 44.3684 41.056C43.7084 41.056 43.1924 41.194 42.8204 41.47C42.4604 41.746 42.2804 42.136 42.2804 42.64C42.2804 43 42.3764 43.294 42.5684 43.522C42.7604 43.75 43.0484 43.96 43.4324 44.152C43.8164 44.332 44.4104 44.566 45.2144 44.854C46.0664 45.178 46.7444 45.472 47.2484 45.736C47.7644 46 48.2024 46.372 48.5624 46.852C48.9344 47.32 49.1204 47.908 49.1204 48.616C49.1204 49.696 48.7184 50.554 47.9144 51.19C47.1224 51.826 46.0364 52.144 44.6564 52.144ZM59.3412 39.544C59.4012 39.448 59.4852 39.4 59.5932 39.4H61.2492C61.3092 39.4 61.3572 39.424 61.3932 39.472C61.4412 39.508 61.4652 39.556 61.4652 39.616V51.784C61.4652 51.844 61.4412 51.898 61.3932 51.946C61.3572 51.982 61.3092 52 61.2492 52H59.5932C59.5332 52 59.4792 51.982 59.4312 51.946C59.3952 51.898 59.3772 51.844 59.3772 51.784V43.198C59.3772 43.162 59.3592 43.138 59.3232 43.126C59.2992 43.114 59.2812 43.126 59.2692 43.162L57.0192 46.618C56.9592 46.714 56.8752 46.762 56.7672 46.762H55.9392C55.8312 46.762 55.7472 46.714 55.6872 46.618L53.4192 43.18C53.4072 43.144 53.3832 43.132 53.3472 43.144C53.3232 43.156 53.3112 43.18 53.3112 43.216V51.784C53.3112 51.844 53.2872 51.898 53.2392 51.946C53.2032 51.982 53.1552 52 53.0952 52H51.4392C51.3792 52 51.3252 51.982 51.2772 51.946C51.2412 51.898 51.2232 51.844 51.2232 51.784V39.616C51.2232 39.556 51.2412 39.508 51.2772 39.472C51.3252 39.424 51.3792 39.4 51.4392 39.4H53.0952C53.2032 39.4 53.2872 39.448 53.3472 39.544L56.2812 43.99C56.3052 44.014 56.3292 44.026 56.3532 44.026C56.3772 44.026 56.3952 44.014 56.4072 43.99L59.3412 39.544ZM71.9024 52C71.7824 52 71.7044 51.94 71.6684 51.82L71.0744 49.894C71.0504 49.846 71.0204 49.822 70.9844 49.822H66.2324C66.1964 49.822 66.1664 49.846 66.1424 49.894L65.5484 51.82C65.5124 51.94 65.4344 52 65.3144 52H63.5144C63.4424 52 63.3884 51.982 63.3524 51.946C63.3164 51.898 63.3104 51.832 63.3344 51.748L67.2404 39.58C67.2764 39.46 67.3544 39.4 67.4744 39.4H69.7244C69.8444 39.4 69.9224 39.46 69.9584 39.58L73.8824 51.748C73.8944 51.772 73.9004 51.802 73.9004 51.838C73.9004 51.946 73.8344 52 73.7024 52H71.9024ZM66.7004 48.076C66.6884 48.148 66.7124 48.184 66.7724 48.184H70.4264C70.4984 48.184 70.5224 48.148 70.4984 48.076L68.6444 42.046C68.6324 41.998 68.6144 41.974 68.5904 41.974C68.5664 41.974 68.5484 41.998 68.5364 42.046L66.7004 48.076ZM82.8362 52C82.7162 52 82.6322 51.946 82.5842 51.838L80.2082 46.654C80.1842 46.606 80.1482 46.582 80.1002 46.582H77.9402C77.8802 46.582 77.8502 46.612 77.8502 46.672V51.784C77.8502 51.844 77.8262 51.898 77.7782 51.946C77.7422 51.982 77.6942 52 77.6342 52H75.9782C75.9182 52 75.8642 51.982 75.8162 51.946C75.7802 51.898 75.7622 51.844 75.7622 51.784V39.616C75.7622 39.556 75.7802 39.508 75.8162 39.472C75.8642 39.424 75.9182 39.4 75.9782 39.4H80.9282C81.6602 39.4 82.3082 39.556 82.8722 39.868C83.4362 40.168 83.8742 40.6 84.1862 41.164C84.4982 41.716 84.6542 42.352 84.6542 43.072C84.6542 43.9 84.4382 44.608 84.0062 45.196C83.5862 45.772 82.9982 46.174 82.2422 46.402C82.2182 46.402 82.2002 46.414 82.1882 46.438C82.1762 46.462 82.1762 46.486 82.1882 46.51L84.7262 51.748C84.7502 51.796 84.7622 51.832 84.7622 51.856C84.7622 51.952 84.6962 52 84.5642 52H82.8362ZM77.9402 41.2C77.8802 41.2 77.8502 41.23 77.8502 41.29V44.872C77.8502 44.932 77.8802 44.962 77.9402 44.962H80.6402C81.2162 44.962 81.6782 44.794 82.0262 44.458C82.3862 44.11 82.5662 43.654 82.5662 43.09C82.5662 42.526 82.3862 42.07 82.0262 41.722C81.6782 41.374 81.2162 41.2 80.6402 41.2H77.9402ZM95.0637 39.4C95.1237 39.4 95.1717 39.424 95.2077 39.472C95.2557 39.508 95.2797 39.556 95.2797 39.616V41.002C95.2797 41.062 95.2557 41.116 95.2077 41.164C95.1717 41.2 95.1237 41.218 95.0637 41.218H91.7517C91.6917 41.218 91.6617 41.248 91.6617 41.308V51.784C91.6617 51.844 91.6377 51.898 91.5897 51.946C91.5537 51.982 91.5057 52 91.4457 52H89.7897C89.7297 52 89.6757 51.982 89.6277 51.946C89.5917 51.898 89.5737 51.844 89.5737 51.784V41.308C89.5737 41.248 89.5437 41.218 89.4837 41.218H86.2977C86.2377 41.218 86.1837 41.2 86.1357 41.164C86.0997 41.116 86.0817 41.062 86.0817 41.002V39.616C86.0817 39.556 86.0997 39.508 86.1357 39.472C86.1837 39.424 86.2377 39.4 86.2977 39.4H95.0637ZM100.448 51.982C100.388 51.982 100.334 51.964 100.286 51.928C100.25 51.88 100.232 51.826 100.232 51.766V46.942C100.232 46.894 100.226 46.858 100.214 46.834L96.5055 39.652C96.4815 39.604 96.4695 39.568 96.4695 39.544C96.4695 39.448 96.5355 39.4 96.6675 39.4H98.4495C98.5695 39.4 98.6535 39.454 98.7015 39.562L101.222 44.584C101.258 44.632 101.294 44.632 101.33 44.584L103.868 39.562C103.928 39.454 104.012 39.4 104.12 39.4H105.92C106.004 39.4 106.058 39.424 106.082 39.472C106.118 39.52 106.118 39.58 106.082 39.652L102.356 46.834C102.332 46.882 102.32 46.918 102.32 46.942V51.766C102.32 51.826 102.296 51.88 102.248 51.928C102.212 51.964 102.164 51.982 102.104 51.982H100.448Z" fill="#4E7B79"/>
<path d="M56.3691 60.4411C56.3691 60.5611 56.3211 60.6691 56.2251 60.7651C56.1531 60.8371 56.0571 60.8731 55.9371 60.8731H43.6971C43.5771 60.8731 43.5171 60.9331 43.5171 61.0531V67.7851C43.5171 67.9051 43.5771 67.9651 43.6971 67.9651H51.9411C52.0611 67.9651 52.1571 68.0131 52.2291 68.1091C52.3251 68.1811 52.3731 68.2771 52.3731 68.3971V71.1331C52.3731 71.2531 52.3251 71.3611 52.2291 71.4571C52.1571 71.5291 52.0611 71.5651 51.9411 71.5651H43.6971C43.5771 71.5651 43.5171 71.6251 43.5171 71.7451V82.0411C43.5171 82.1611 43.4691 82.2691 43.3731 82.3651C43.3011 82.4371 43.2051 82.4731 43.0851 82.4731H39.7731C39.6531 82.4731 39.5451 82.4371 39.4491 82.3651C39.3771 82.2691 39.3411 82.1611 39.3411 82.0411V57.7051C39.3411 57.5851 39.3771 57.4891 39.4491 57.4171C39.5451 57.3211 39.6531 57.2731 39.7731 57.2731H55.9371C56.0571 57.2731 56.1531 57.3211 56.2251 57.4171C56.3211 57.4891 56.3691 57.5851 56.3691 57.7051V60.4411ZM60.0583 82.4731C59.9383 82.4731 59.8303 82.4371 59.7343 82.3651C59.6623 82.2691 59.6263 82.1611 59.6263 82.0411V57.7051C59.6263 57.5851 59.6623 57.4891 59.7343 57.4171C59.8303 57.3211 59.9383 57.2731 60.0583 57.2731H63.3703C63.4903 57.2731 63.5863 57.3211 63.6583 57.4171C63.7543 57.4891 63.8023 57.5851 63.8023 57.7051V78.6931C63.8023 78.8131 63.8623 78.8731 63.9823 78.8731H76.0423C76.1623 78.8731 76.2583 78.9211 76.3303 79.0171C76.4263 79.0891 76.4743 79.1851 76.4743 79.3051V82.0411C76.4743 82.1611 76.4263 82.2691 76.3303 82.3651C76.2583 82.4371 76.1623 82.4731 76.0423 82.4731H60.0583ZM80.6247 82.4731C80.5047 82.4731 80.3967 82.4371 80.3007 82.3651C80.2287 82.2691 80.1927 82.1611 80.1927 82.0411V57.7051C80.1927 57.5851 80.2287 57.4891 80.3007 57.4171C80.3967 57.3211 80.5047 57.2731 80.6247 57.2731H83.9367C84.0567 57.2731 84.1527 57.3211 84.2247 57.4171C84.3207 57.4891 84.3687 57.5851 84.3687 57.7051V82.0411C84.3687 82.1611 84.3207 82.2691 84.2247 82.3651C84.1527 82.4371 84.0567 82.4731 83.9367 82.4731H80.6247ZM99.7305 57.2371C101.243 57.2371 102.575 57.5491 103.727 58.1731C104.879 58.7971 105.767 59.6851 106.391 60.8371C107.039 61.9651 107.363 63.2731 107.363 64.7611C107.363 66.2251 107.039 67.5211 106.391 68.6491C105.743 69.7771 104.819 70.6531 103.619 71.2771C102.443 71.8771 101.075 72.1771 99.5145 72.1771H93.7545C93.6345 72.1771 93.5745 72.2371 93.5745 72.3571V82.0411C93.5745 82.1611 93.5265 82.2691 93.4305 82.3651C93.3585 82.4371 93.2625 82.4731 93.1425 82.4731H89.8305C89.7105 82.4731 89.6025 82.4371 89.5065 82.3651C89.4345 82.2691 89.3985 82.1611 89.3985 82.0411V57.6691C89.3985 57.5491 89.4345 57.4531 89.5065 57.3811C89.6025 57.2851 89.7105 57.2371 89.8305 57.2371H99.7305ZM99.1185 68.7931C100.343 68.7931 101.327 68.4331 102.071 67.7131C102.815 66.9931 103.187 66.0451 103.187 64.8691C103.187 63.6691 102.815 62.6971 102.071 61.9531C101.327 61.2091 100.343 60.8371 99.1185 60.8371H93.7545C93.6345 60.8371 93.5745 60.8971 93.5745 61.0171V68.6131C93.5745 68.7331 93.6345 68.7931 93.7545 68.7931H99.1185Z" fill="#4E7B79"/>
</svg>
