<svg width="40" height="40" viewBox="0 0 40 40" fill="none" xmlns="http://www.w3.org/2000/svg">
<circle cx="20" cy="20" r="19.5" stroke="#F2F2F2"/>
<g clip-path="url(#clip0_803_2279)">
<mask id="mask0_803_2279" style="mask-type:alpha" maskUnits="userSpaceOnUse" x="9" y="9" width="22" height="22">
<path d="M15.5342 9.35902C14.3992 9.41259 13.6241 9.59438 12.9467 9.8598C12.2454 10.1332 11.651 10.4995 11.0597 11.0933C10.4677 11.6874 10.1041 12.2828 9.83283 12.9848C9.57017 13.6639 9.39218 14.4394 9.34206 15.5751C9.2923 16.7128 9.28089 17.0757 9.28644 19.9722C9.29196 22.8684 9.30474 23.232 9.359 24.37C9.41325 25.5047 9.59436 26.2795 9.85979 26.9572C10.1335 27.6585 10.4995 28.2526 11.0936 28.8442C11.6873 29.4359 12.2831 29.7991 12.9854 30.0708C13.6638 30.3331 14.4397 30.5118 15.575 30.5616C16.7127 30.6117 17.0759 30.6227 19.9717 30.6172C22.8689 30.6117 23.2321 30.5989 24.3698 30.545C25.5048 30.4907 26.2793 30.3089 26.9573 30.0442C27.6586 29.7698 28.253 29.4045 28.8443 28.8104C29.4356 28.2166 29.7992 27.6208 30.0705 26.9185C30.3332 26.2401 30.5118 25.4642 30.5612 24.3296C30.611 23.1912 30.6228 22.8276 30.6172 19.9314C30.6117 17.0349 30.5986 16.672 30.5447 15.5346C30.4908 14.399 30.309 13.6245 30.0439 12.9464C29.7698 12.2452 29.4042 11.6514 28.8104 11.0594C28.2167 10.4681 27.6209 10.1038 26.9186 9.8332C26.2399 9.57053 25.4643 9.39151 24.329 9.34243C23.1913 9.29197 22.8281 9.28092 19.9313 9.28645C17.0351 9.29197 16.6719 9.30442 15.5342 9.35902ZM15.6586 28.6417C14.6187 28.5964 14.054 28.4236 13.6776 28.2788C13.1793 28.086 12.8237 27.8548 12.4494 27.4833C12.0758 27.1103 11.8439 26.7557 11.6493 26.2584C11.5031 25.8821 11.3272 25.318 11.2785 24.2781C11.2256 23.1539 11.2135 22.8165 11.2083 19.9684C11.2028 17.121 11.2131 16.7837 11.2622 15.6584C11.3068 14.6191 11.4806 14.0537 11.6251 13.6777C11.8179 13.1786 12.0485 12.8237 12.4207 12.4494C12.7936 12.0751 13.1482 11.8439 13.6458 11.6493C14.0218 11.5025 14.5859 11.3279 15.6254 11.2785C16.7504 11.2253 17.0873 11.2139 19.9347 11.2084C22.7828 11.2028 23.1201 11.2128 24.2454 11.2623C25.2846 11.3075 25.85 11.4797 26.2257 11.6252C26.7244 11.818 27.08 12.0478 27.454 12.4207C27.8279 12.7936 28.0598 13.1475 28.2544 13.6463C28.4012 14.0212 28.5758 14.586 28.6249 15.6252C28.6784 16.7501 28.6905 17.0874 28.6957 19.9349C28.7012 22.783 28.6909 23.1203 28.6414 24.2449C28.5962 25.2848 28.4237 25.8499 28.2786 26.2266C28.0857 26.7246 27.8552 27.0803 27.4826 27.4546C27.1101 27.8275 26.7555 28.0601 26.2575 28.2546C25.8822 28.4012 25.3175 28.576 24.2786 28.6255C23.1537 28.6783 22.8167 28.6904 19.9682 28.6956C17.1208 28.7012 16.7839 28.6904 15.6586 28.6417ZM24.3543 14.25C24.3556 14.9564 24.93 15.5284 25.6364 15.527C26.3432 15.5257 26.9152 14.9516 26.9141 14.2452C26.9127 13.5388 26.3384 12.9665 25.6316 12.9678C24.9249 12.9692 24.3529 13.5436 24.3543 14.25ZM14.4749 19.9622C14.4808 22.9873 16.9377 25.4342 19.962 25.4283C22.9867 25.4224 25.435 22.9662 25.4291 19.9411C25.4232 16.9171 22.966 14.4688 19.9409 14.4747C16.9166 14.4805 14.4691 16.9378 14.4749 19.9622ZM16.3961 19.9584C16.3927 17.995 17.9817 16.4 19.9447 16.3966C21.9081 16.3928 23.5034 17.9812 23.5072 19.9449C23.511 21.9086 21.9219 23.5033 19.9582 23.5071C17.9952 23.5109 16.3999 21.9221 16.3961 19.9584Z" fill="white"/>
</mask>
<g mask="url(#mask0_803_2279)">
<rect x="8.39453" y="8.39258" width="23.2267" height="23.2267" fill="white"/>
<g filter="url(#filter0_f_803_2279)">
<ellipse cx="12.7395" cy="7.50896" rx="13.4" ry="9.38" transform="rotate(-14.9317 12.7395 7.50896)" fill="white"/>
</g>
<g filter="url(#filter1_f_803_2279)">
<circle cx="30.8743" cy="8.54032" r="12.6556" fill="white"/>
</g>
<g filter="url(#filter2_f_803_2279)">
<circle cx="12.8576" cy="29.2365" r="7.14667" fill="white"/>
</g>
</g>
</g>
<defs>
<filter id="filter0_f_803_2279" x="-37.2836" y="-39.0414" width="100.048" height="93.1023" filterUnits="userSpaceOnUse" color-interpolation-filters="sRGB">
<feFlood flood-opacity="0" result="BackgroundImageFix"/>
<feBlend mode="normal" in="SourceGraphic" in2="BackgroundImageFix" result="shape"/>
<feGaussianBlur stdDeviation="18.425" result="effect1_foregroundBlur_803_2279"/>
</filter>
<filter id="filter1_f_803_2279" x="-26.4479" y="-48.7819" width="114.646" height="114.644" filterUnits="userSpaceOnUse" color-interpolation-filters="sRGB">
<feFlood flood-opacity="0" result="BackgroundImageFix"/>
<feBlend mode="normal" in="SourceGraphic" in2="BackgroundImageFix" result="shape"/>
<feGaussianBlur stdDeviation="22.3333" result="effect1_foregroundBlur_803_2279"/>
</filter>
<filter id="filter2_f_803_2279" x="-30.0224" y="-13.6435" width="85.7596" height="85.7596" filterUnits="userSpaceOnUse" color-interpolation-filters="sRGB">
<feFlood flood-opacity="0" result="BackgroundImageFix"/>
<feBlend mode="normal" in="SourceGraphic" in2="BackgroundImageFix" result="shape"/>
<feGaussianBlur stdDeviation="17.8667" result="effect1_foregroundBlur_803_2279"/>
</filter>
<clipPath id="clip0_803_2279">
<rect width="24" height="24" fill="white" transform="translate(8 8)"/>
</clipPath>
</defs>
</svg>
