<svg width="40" height="40" viewBox="0 0 40 40" fill="none" xmlns="http://www.w3.org/2000/svg">
<circle cx="20" cy="20" r="19.5" stroke="#F2F2F2"/>
<path d="M32.7433 27.7784C32.3614 27.782 31.9965 27.9368 31.7284 28.2088C31.4603 28.4808 31.3108 28.8478 31.3127 29.2297C31.3145 29.6116 31.4675 29.9773 31.7382 30.2467C32.0089 30.5161 32.3753 30.6673 32.7572 30.6673C33.1391 30.6673 33.5054 30.5161 33.7761 30.2467C34.0468 29.9773 34.1998 29.6116 34.2017 29.2297C34.2035 28.8478 34.054 28.4808 33.7859 28.2088C33.5178 27.9368 33.1529 27.782 32.7711 27.7784H32.7433ZM32.7433 30.5019C32.4928 30.5061 32.2467 30.4359 32.0361 30.3002C31.8255 30.1645 31.6599 29.9694 31.5602 29.7396C31.4605 29.5098 31.4312 29.2556 31.4759 29.0091C31.5207 28.7626 31.6376 28.5349 31.8117 28.3548C31.9859 28.1748 32.2096 28.0504 32.4544 27.9974C32.6993 27.9445 32.9543 27.9653 33.1874 28.0573C33.4204 28.1493 33.6209 28.3084 33.7635 28.5143C33.9061 28.7203 33.9845 28.9639 33.9887 29.2144V29.2356C33.9957 29.5642 33.8719 29.8821 33.6445 30.1195C33.4172 30.3568 33.1049 30.4942 32.7763 30.5013H32.7436M27.1983 27.3837H24.0595V22.4682C24.0595 21.296 24.0386 19.7871 22.427 19.7871C20.7922 19.7871 20.5421 21.0642 20.5421 22.3828V27.3834H17.4032V17.275H20.4165V18.6564H20.4587C20.7602 18.1408 21.196 17.7167 21.7195 17.4291C22.2431 17.1416 22.8348 17.0014 23.4317 17.0236C26.6131 17.0236 27.1996 19.1162 27.1996 21.8384L27.1983 27.3837ZM13.8616 15.8933C13.5013 15.8934 13.1491 15.7866 12.8496 15.5865C12.55 15.3864 12.3165 15.102 12.1785 14.7692C12.0406 14.4363 12.0045 14.0701 12.0747 13.7168C12.1449 13.3634 12.3183 13.0388 12.573 12.784C12.8277 12.5292 13.1523 12.3557 13.5056 12.2854C13.8589 12.215 14.2252 12.251 14.558 12.3888C14.8909 12.5266 15.1754 12.76 15.3756 13.0595C15.5758 13.3591 15.6827 13.7112 15.6828 14.0715C15.6828 14.3107 15.6357 14.5475 15.5442 14.7685C15.4527 14.9896 15.3186 15.1904 15.1495 15.3596C14.9804 15.5287 14.7796 15.6629 14.5586 15.7545C14.3376 15.8461 14.1008 15.8933 13.8616 15.8933ZM15.431 27.3837H12.2889V17.275H15.431V27.3837ZM28.7632 9.33543H10.7116C10.3019 9.3308 9.90713 9.48903 9.61401 9.77534C9.32089 10.0617 9.15344 10.4526 9.14844 10.8623V28.9888C9.15327 29.3987 9.32062 29.7899 9.61372 30.0765C9.90683 30.3631 10.3017 30.5217 10.7116 30.5173H28.7632C29.1739 30.5225 29.5699 30.3644 29.8642 30.0778C30.1584 29.7912 30.3269 29.3995 30.3326 28.9888V10.861C30.3267 10.4505 30.1581 10.0591 29.8639 9.77279C29.5696 9.48648 29.1737 9.3287 28.7632 9.33412M32.9725 29.3144C33.0262 29.315 33.0795 29.3044 33.129 29.2835C33.1786 29.2626 33.2233 29.2317 33.2604 29.1928C33.2974 29.1539 33.3262 29.1078 33.3447 29.0574C33.3632 29.0069 33.3712 28.9532 33.3681 28.8995C33.3681 28.6052 33.1906 28.4646 32.8263 28.4646H32.2378V30.0053H32.4591V29.3337H32.7312L32.7374 29.3419L33.1595 30.0053H33.3962L32.9421 29.3187L32.9725 29.3144ZM32.7165 29.1601H32.4598V28.6392H32.7851C32.9532 28.6392 33.1448 28.6667 33.1448 28.8867C33.1448 29.1398 32.9509 29.1601 32.7152 29.1601" fill="white"/>
</svg>
