<svg width="295" height="79" viewBox="0 0 295 79" fill="none" xmlns="http://www.w3.org/2000/svg">
<rect width="295" height="79" rx="10" fill="white"/>
<path d="M227.065 54.5415C226.35 54.5484 225.666 54.8382 225.164 55.3475C224.662 55.8569 224.382 56.5444 224.386 57.2596C224.389 57.9748 224.676 58.6595 225.183 59.164C225.689 59.6685 226.376 59.9518 227.091 59.9518C227.806 59.9518 228.492 59.6685 228.999 59.164C229.506 58.6595 229.793 57.9748 229.796 57.2596C229.799 56.5444 229.52 55.8569 229.017 55.3475C228.515 54.8382 227.832 54.5484 227.117 54.5415H227.065ZM227.065 59.6421C226.596 59.6499 226.135 59.5184 225.74 59.2643C225.346 59.0101 225.036 58.6448 224.849 58.2144C224.662 57.784 224.608 57.3079 224.691 56.8463C224.775 56.3847 224.994 55.9583 225.32 55.6211C225.646 55.2839 226.065 55.051 226.524 54.9518C226.982 54.8526 227.46 54.8916 227.896 55.0639C228.333 55.2362 228.708 55.534 228.975 55.9197C229.243 56.3054 229.389 56.7617 229.397 57.2308V57.2706C229.41 57.8859 229.178 58.4813 228.753 58.9258C228.327 59.3703 227.742 59.6275 227.127 59.6408H227.065M216.681 53.8024H210.802V44.5969C210.802 42.4017 210.763 39.5759 207.745 39.5759C204.684 39.5759 204.215 41.9676 204.215 44.4371V53.8018H198.337V34.8715H203.98V37.4585H204.059C204.624 36.4929 205.44 35.6986 206.42 35.1601C207.401 34.6216 208.509 34.3592 209.627 34.4006C215.585 34.4006 216.683 38.3195 216.683 43.4176L216.681 53.8024ZM191.704 32.2839C191.03 32.284 190.37 32.0841 189.809 31.7093C189.248 31.3346 188.811 30.8019 188.552 30.1787C188.294 29.5554 188.226 28.8695 188.358 28.2078C188.489 27.5461 188.814 26.9382 189.291 26.461C189.768 25.9839 190.376 25.6589 191.038 25.5271C191.699 25.3954 192.385 25.4628 193.009 25.7209C193.632 25.979 194.165 26.4161 194.54 26.977C194.915 27.5379 195.115 28.1974 195.115 28.8721C195.115 29.32 195.027 29.7636 194.855 30.1775C194.684 30.5914 194.433 30.9675 194.116 31.2843C193.799 31.6011 193.423 31.8525 193.01 32.024C192.596 32.1955 192.152 32.2838 191.704 32.2839ZM194.643 53.8024H188.759V34.8715H194.643V53.8024ZM219.611 20.0027H185.805C185.038 19.994 184.299 20.2904 183.75 20.8265C183.201 21.3627 182.887 22.0949 182.878 22.8622V56.8083C182.887 57.5759 183.2 58.3086 183.749 58.8454C184.298 59.3821 185.038 59.679 185.805 59.6708H219.611C220.38 59.6805 221.122 59.3844 221.673 58.8477C222.224 58.311 222.54 57.5775 222.55 56.8083V22.8598C222.539 22.0909 222.224 21.3579 221.672 20.8218C221.121 20.2856 220.38 19.9901 219.611 20.0003M166.879 39.4406C163.94 39.4406 162.176 41.4031 162.176 44.2626C162.176 47.1221 163.939 49.0864 166.879 49.0864C169.818 49.0864 171.586 47.127 171.586 44.2626C171.586 41.3982 169.821 39.4406 166.879 39.4406ZM176.997 53.7914H171.586V51.2809H171.505C170.826 52.1941 169.946 52.9381 168.932 53.4552C167.919 53.9722 166.799 54.2482 165.661 54.2617C160.013 54.2617 156.293 50.1855 156.293 44.4212C156.293 39.1271 159.585 34.2659 164.998 34.2659C167.43 34.2659 169.703 34.9315 171.036 36.7764H171.113V25.8644H176.997L176.997 53.7914ZM148.746 42.128C148.757 41.6511 148.671 41.1769 148.494 40.7341C148.316 40.2913 148.051 39.8891 147.713 39.5519C147.376 39.2147 146.974 38.9495 146.531 38.7724C146.088 38.5953 145.614 38.5099 145.137 38.5215C144.11 38.4576 143.099 38.7999 142.321 39.4745C141.544 40.1492 141.064 41.1022 140.983 42.128H148.746ZM153.725 50.5167C152.748 51.7013 151.52 52.6537 150.13 53.3051C148.74 53.9565 147.222 54.2906 145.686 54.2831C139.808 54.2831 135.102 50.3594 135.102 44.2834C135.102 38.2074 139.808 34.2855 145.686 34.2855C151.181 34.2855 154.626 38.2043 154.626 44.2834V46.1265H140.983C141.153 47.1717 141.694 48.1204 142.509 48.7976C143.323 49.4749 144.354 49.8351 145.413 49.812C146.249 49.8068 147.072 49.5924 147.804 49.1884C148.537 48.7843 149.157 48.2035 149.608 47.4986L153.725 50.5167ZM95.2894 34.8666H100.934V37.4536H101.015C101.578 36.4876 102.394 35.6929 103.374 35.1544C104.355 34.6158 105.463 34.3536 106.58 34.3957C112.541 34.3957 113.639 38.3176 113.639 43.4127V53.7938H107.76V44.5902C107.76 42.3932 107.72 39.5692 104.699 39.5692C101.643 39.5692 101.172 41.9615 101.172 44.4303V53.7914H95.2937L95.2894 34.8666ZM116.619 25.8662H122.498V42.561L129.16 34.8562H136.366L128.651 43.6203L136.204 53.803H128.816L122.576 44.4457H122.499V53.8018H116.621L116.619 25.8662ZM86.1518 34.8648H92.0301V53.7951H86.1518V34.8648ZM89.091 25.4535C89.7654 25.4536 90.4246 25.6537 90.9853 26.0285C91.546 26.4033 91.9829 26.9359 92.2409 27.559C92.4989 28.1821 92.5664 28.8677 92.4347 29.5291C92.3031 30.1906 91.9783 30.7981 91.5013 31.2749C91.0244 31.7518 90.4168 32.0765 89.7554 32.208C89.0939 32.3395 88.4083 32.272 87.7853 32.0138C87.1622 31.7557 86.6297 31.3187 86.255 30.7579C85.8803 30.1972 85.6804 29.5379 85.6804 28.8635C85.6804 28.4156 85.7686 27.9722 85.94 27.5584C86.1114 27.1447 86.3626 26.7687 86.6793 26.4521C86.9961 26.1354 87.372 25.8842 87.7858 25.7129C88.1996 25.5416 88.6431 25.4534 89.091 25.4535ZM66 25.8705H72.1188V48.1587H83.4466V53.8055H66V25.8705ZM227.494 57.4181C227.595 57.4191 227.694 57.3994 227.787 57.3603C227.88 57.3211 227.964 57.2633 228.033 57.1904C228.103 57.1176 228.156 57.0312 228.191 56.9367C228.226 56.8422 228.241 56.7416 228.235 56.6411C228.235 56.09 227.902 55.8267 227.22 55.8267H226.118V58.7119H226.533V57.4543H227.042L227.054 57.4696L227.844 58.7119H228.288L227.437 57.4261L227.494 57.4181ZM227.015 57.1291H226.534V56.1537H227.143C227.458 56.1537 227.817 56.2051 227.817 56.6172C227.817 57.0912 227.454 57.1291 227.012 57.1291" fill="#2867B2"/>
</svg>
