<svg width="192" height="175" viewBox="0 0 192 175" fill="none" xmlns="http://www.w3.org/2000/svg">
<path d="M87.4031 129.162C67.4769 126.794 45.5933 127.951 34.6209 118.076C23.7156 108.147 23.6031 87.0627 31.6275 68.356C39.6518 49.6493 55.813 33.3199 75.8555 27.6674C96.0242 22.0223 120.074 27.0542 138.173 39.2482C156.273 51.4423 168.37 70.6222 168.273 89.2686C168.183 107.8 155.847 125.622 140.661 131.613C125.416 137.544 107.329 131.529 87.4031 129.162Z" fill="#4E7B79"/>
<path d="M63.8931 76.3944C62.8531 76.3944 61.9464 76.2277 61.1731 75.8944C60.3997 75.561 59.7997 75.0944 59.3731 74.4944C58.9597 73.8944 58.7531 73.1877 58.7531 72.3744V71.8744C58.7531 71.8077 58.7731 71.7544 58.8131 71.7144C58.8664 71.661 58.9264 71.6344 58.9931 71.6344H60.7731C60.8397 71.6344 60.8931 71.661 60.9331 71.7144C60.9864 71.7544 61.0131 71.8077 61.0131 71.8744V72.2544C61.0131 72.8677 61.2864 73.381 61.8331 73.7944C62.3797 74.1944 63.1264 74.3944 64.0731 74.3944C64.8864 74.3944 65.4997 74.221 65.9131 73.8744C66.3264 73.5277 66.5331 73.081 66.5331 72.5344C66.5331 72.161 66.4197 71.8477 66.1931 71.5944C65.9664 71.3277 65.6397 71.0877 65.2131 70.8744C64.7997 70.661 64.1731 70.3944 63.3331 70.0744C62.3864 69.7277 61.6197 69.401 61.0331 69.0944C60.4464 68.7877 59.9531 68.3744 59.5531 67.8544C59.1664 67.321 58.9731 66.661 58.9731 65.8744C58.9731 64.701 59.3997 63.7744 60.2531 63.0944C61.1064 62.4144 62.2464 62.0744 63.6731 62.0744C64.6731 62.0744 65.5531 62.2477 66.3131 62.5944C67.0864 62.941 67.6864 63.4277 68.1131 64.0544C68.5397 64.6677 68.7531 65.381 68.7531 66.1944V66.5344C68.7531 66.601 68.7264 66.661 68.6731 66.7144C68.6331 66.7544 68.5797 66.7744 68.5131 66.7744H66.7131C66.6464 66.7744 66.5864 66.7544 66.5331 66.7144C66.4931 66.661 66.4731 66.601 66.4731 66.5344V66.3144C66.4731 65.6877 66.2131 65.161 65.6931 64.7344C65.1864 64.2944 64.4797 64.0744 63.5731 64.0744C62.8397 64.0744 62.2664 64.2277 61.8531 64.5344C61.4531 64.841 61.2531 65.2744 61.2531 65.8344C61.2531 66.2344 61.3597 66.561 61.5731 66.8144C61.7864 67.0677 62.1064 67.301 62.5331 67.5144C62.9597 67.7144 63.6197 67.9744 64.5131 68.2944C65.4597 68.6544 66.2131 68.981 66.7731 69.2744C67.3464 69.5677 67.8331 69.981 68.2331 70.5144C68.6464 71.0344 68.8531 71.6877 68.8531 72.4744C68.8531 73.6744 68.4064 74.6277 67.5131 75.3344C66.6331 76.041 65.4264 76.3944 63.8931 76.3944ZM80.2095 62.3944C80.2762 62.2877 80.3695 62.2344 80.4895 62.2344H82.3295C82.3962 62.2344 82.4495 62.261 82.4895 62.3144C82.5428 62.3544 82.5695 62.4077 82.5695 62.4744V75.9944C82.5695 76.061 82.5428 76.121 82.4895 76.1744C82.4495 76.2144 82.3962 76.2344 82.3295 76.2344H80.4895C80.4228 76.2344 80.3628 76.2144 80.3095 76.1744C80.2695 76.121 80.2495 76.061 80.2495 75.9944V66.4544C80.2495 66.4144 80.2295 66.3877 80.1895 66.3744C80.1628 66.361 80.1428 66.3744 80.1295 66.4144L77.6295 70.2544C77.5628 70.361 77.4695 70.4144 77.3495 70.4144H76.4295C76.3095 70.4144 76.2162 70.361 76.1495 70.2544L73.6295 66.4344C73.6162 66.3944 73.5895 66.381 73.5495 66.3944C73.5228 66.4077 73.5095 66.4344 73.5095 66.4744V75.9944C73.5095 76.061 73.4828 76.121 73.4295 76.1744C73.3895 76.2144 73.3362 76.2344 73.2695 76.2344H71.4295C71.3628 76.2344 71.3028 76.2144 71.2495 76.1744C71.2095 76.121 71.1895 76.061 71.1895 75.9944V62.4744C71.1895 62.4077 71.2095 62.3544 71.2495 62.3144C71.3028 62.261 71.3628 62.2344 71.4295 62.2344H73.2695C73.3895 62.2344 73.4828 62.2877 73.5495 62.3944L76.8095 67.3344C76.8362 67.361 76.8628 67.3744 76.8895 67.3744C76.9162 67.3744 76.9362 67.361 76.9495 67.3344L80.2095 62.3944ZM94.1664 76.2344C94.033 76.2344 93.9464 76.1677 93.9064 76.0344L93.2464 73.8944C93.2197 73.841 93.1864 73.8144 93.1464 73.8144H87.8664C87.8264 73.8144 87.793 73.841 87.7664 73.8944L87.1064 76.0344C87.0664 76.1677 86.9797 76.2344 86.8464 76.2344H84.8464C84.7664 76.2344 84.7064 76.2144 84.6664 76.1744C84.6264 76.121 84.6197 76.0477 84.6464 75.9544L88.9864 62.4344C89.0264 62.301 89.113 62.2344 89.2464 62.2344H91.7464C91.8797 62.2344 91.9664 62.301 92.0064 62.4344L96.3664 75.9544C96.3797 75.981 96.3864 76.0144 96.3864 76.0544C96.3864 76.1744 96.313 76.2344 96.1664 76.2344H94.1664ZM88.3864 71.8744C88.373 71.9544 88.3997 71.9944 88.4664 71.9944H92.5264C92.6064 71.9944 92.633 71.9544 92.6064 71.8744L90.5464 65.1744C90.533 65.121 90.513 65.0944 90.4864 65.0944C90.4597 65.0944 90.4397 65.121 90.4264 65.1744L88.3864 71.8744ZM106.315 76.2344C106.182 76.2344 106.088 76.1744 106.035 76.0544L103.395 70.2944C103.368 70.241 103.328 70.2144 103.275 70.2144H100.875C100.808 70.2144 100.775 70.2477 100.775 70.3144V75.9944C100.775 76.061 100.748 76.121 100.695 76.1744C100.655 76.2144 100.602 76.2344 100.535 76.2344H98.6951C98.6284 76.2344 98.5684 76.2144 98.5151 76.1744C98.4751 76.121 98.4551 76.061 98.4551 75.9944V62.4744C98.4551 62.4077 98.4751 62.3544 98.5151 62.3144C98.5684 62.261 98.6284 62.2344 98.6951 62.2344H104.195C105.008 62.2344 105.728 62.4077 106.355 62.7544C106.982 63.0877 107.468 63.5677 107.815 64.1944C108.162 64.8077 108.335 65.5144 108.335 66.3144C108.335 67.2344 108.095 68.021 107.615 68.6744C107.148 69.3144 106.495 69.761 105.655 70.0144C105.628 70.0144 105.608 70.0277 105.595 70.0544C105.582 70.081 105.582 70.1077 105.595 70.1344L108.415 75.9544C108.442 76.0077 108.455 76.0477 108.455 76.0744C108.455 76.181 108.382 76.2344 108.235 76.2344H106.315ZM100.875 64.2344C100.808 64.2344 100.775 64.2677 100.775 64.3344V68.3144C100.775 68.381 100.808 68.4144 100.875 68.4144H103.875C104.515 68.4144 105.028 68.2277 105.415 67.8544C105.815 67.4677 106.015 66.961 106.015 66.3344C106.015 65.7077 105.815 65.201 105.415 64.8144C105.028 64.4277 104.515 64.2344 103.875 64.2344H100.875ZM119.901 62.2344C119.968 62.2344 120.021 62.261 120.061 62.3144C120.115 62.3544 120.141 62.4077 120.141 62.4744V64.0144C120.141 64.081 120.115 64.141 120.061 64.1944C120.021 64.2344 119.968 64.2544 119.901 64.2544H116.221C116.155 64.2544 116.121 64.2877 116.121 64.3544V75.9944C116.121 76.061 116.095 76.121 116.041 76.1744C116.001 76.2144 115.948 76.2344 115.881 76.2344H114.041C113.975 76.2344 113.915 76.2144 113.861 76.1744C113.821 76.121 113.801 76.061 113.801 75.9944V64.3544C113.801 64.2877 113.768 64.2544 113.701 64.2544H110.161C110.095 64.2544 110.035 64.2344 109.981 64.1944C109.941 64.141 109.921 64.081 109.921 64.0144V62.4744C109.921 62.4077 109.941 62.3544 109.981 62.3144C110.035 62.261 110.095 62.2344 110.161 62.2344H119.901ZM125.883 76.2144C125.817 76.2144 125.757 76.1944 125.703 76.1544C125.663 76.101 125.643 76.041 125.643 75.9744V70.6144C125.643 70.561 125.637 70.521 125.623 70.4944L121.503 62.5144C121.477 62.461 121.463 62.421 121.463 62.3944C121.463 62.2877 121.537 62.2344 121.683 62.2344H123.663C123.797 62.2344 123.89 62.2944 123.943 62.4144L126.743 67.9944C126.783 68.0477 126.823 68.0477 126.863 67.9944L129.683 62.4144C129.75 62.2944 129.843 62.2344 129.963 62.2344H131.963C132.057 62.2344 132.117 62.261 132.143 62.3144C132.183 62.3677 132.183 62.4344 132.143 62.5144L128.003 70.4944C127.977 70.5477 127.963 70.5877 127.963 70.6144V75.9744C127.963 76.041 127.937 76.101 127.883 76.1544C127.843 76.1944 127.79 76.2144 127.723 76.2144H125.883Z" fill="white"/>
<path d="M76.9535 84.227C76.9535 84.3604 76.9002 84.4804 76.7935 84.587C76.7135 84.667 76.6068 84.707 76.4735 84.707H62.8735C62.7402 84.707 62.6735 84.7737 62.6735 84.907V92.387C62.6735 92.5204 62.7402 92.587 62.8735 92.587H72.0335C72.1668 92.587 72.2735 92.6404 72.3535 92.747C72.4602 92.827 72.5135 92.9337 72.5135 93.067V96.107C72.5135 96.2404 72.4602 96.3604 72.3535 96.467C72.2735 96.547 72.1668 96.587 72.0335 96.587H62.8735C62.7402 96.587 62.6735 96.6537 62.6735 96.787V108.227C62.6735 108.36 62.6202 108.48 62.5135 108.587C62.4335 108.667 62.3268 108.707 62.1935 108.707H58.5135C58.3802 108.707 58.2602 108.667 58.1535 108.587C58.0735 108.48 58.0335 108.36 58.0335 108.227V81.187C58.0335 81.0537 58.0735 80.947 58.1535 80.867C58.2602 80.7604 58.3802 80.707 58.5135 80.707H76.4735C76.6068 80.707 76.7135 80.7604 76.7935 80.867C76.9002 80.947 76.9535 81.0537 76.9535 81.187V84.227ZM81.0526 108.707C80.9192 108.707 80.7992 108.667 80.6926 108.587C80.6126 108.48 80.5726 108.36 80.5726 108.227V81.187C80.5726 81.0537 80.6126 80.947 80.6926 80.867C80.7992 80.7604 80.9192 80.707 81.0526 80.707H84.7326C84.8659 80.707 84.9726 80.7604 85.0526 80.867C85.1592 80.947 85.2126 81.0537 85.2126 81.187V104.507C85.2126 104.64 85.2792 104.707 85.4126 104.707H98.8126C98.9459 104.707 99.0526 104.76 99.1326 104.867C99.2392 104.947 99.2926 105.054 99.2926 105.187V108.227C99.2926 108.36 99.2392 108.48 99.1326 108.587C99.0526 108.667 98.9459 108.707 98.8126 108.707H81.0526ZM103.904 108.707C103.771 108.707 103.651 108.667 103.544 108.587C103.464 108.48 103.424 108.36 103.424 108.227V81.187C103.424 81.0537 103.464 80.947 103.544 80.867C103.651 80.7604 103.771 80.707 103.904 80.707H107.584C107.717 80.707 107.824 80.7604 107.904 80.867C108.011 80.947 108.064 81.0537 108.064 81.187V108.227C108.064 108.36 108.011 108.48 107.904 108.587C107.824 108.667 107.717 108.707 107.584 108.707H103.904ZM125.133 80.667C126.813 80.667 128.293 81.0137 129.573 81.707C130.853 82.4004 131.84 83.387 132.533 84.667C133.253 85.9204 133.613 87.3737 133.613 89.027C133.613 90.6537 133.253 92.0937 132.533 93.347C131.813 94.6004 130.786 95.5737 129.453 96.267C128.146 96.9337 126.626 97.267 124.893 97.267H118.493C118.36 97.267 118.293 97.3337 118.293 97.467V108.227C118.293 108.36 118.24 108.48 118.133 108.587C118.053 108.667 117.946 108.707 117.813 108.707H114.133C114 108.707 113.88 108.667 113.773 108.587C113.693 108.48 113.653 108.36 113.653 108.227V81.147C113.653 81.0137 113.693 80.907 113.773 80.827C113.88 80.7204 114 80.667 114.133 80.667H125.133ZM124.453 93.507C125.813 93.507 126.906 93.107 127.733 92.307C128.56 91.507 128.973 90.4537 128.973 89.147C128.973 87.8137 128.56 86.7337 127.733 85.907C126.906 85.0804 125.813 84.667 124.453 84.667H118.493C118.36 84.667 118.293 84.7337 118.293 84.867V93.307C118.293 93.4404 118.36 93.507 118.493 93.507H124.453Z" fill="white"/>
</svg>
