<svg width="42" height="42" viewBox="0 0 42 42" fill="none" xmlns="http://www.w3.org/2000/svg">
<circle cx="21" cy="21" r="19.5" stroke="black"/>
<circle cx="21" cy="21" r="19.5" stroke="#F2F2F2"/>
<path fill-rule="evenodd" clip-rule="evenodd" d="M10.7803 20.8026C16.222 18.4317 19.8507 16.8687 21.6663 16.1135C26.8502 13.9574 27.9274 13.5828 28.6295 13.5704C28.7839 13.5677 29.1292 13.606 29.3528 13.7875C29.5417 13.9407 29.5936 14.1477 29.6185 14.293C29.6434 14.4383 29.6743 14.7692 29.6497 15.0278C29.3688 17.9795 28.1533 25.1423 27.5349 28.4482C27.2732 29.8471 26.758 30.3161 26.2592 30.362C25.1752 30.4617 24.352 29.6456 23.3021 28.9574C21.6592 27.8804 20.7311 27.21 19.1363 26.1591C17.2933 24.9446 18.4881 24.2771 19.5384 23.1862C19.8133 22.9007 24.5894 18.5564 24.6819 18.1623C24.6934 18.113 24.7042 17.9293 24.595 17.8323C24.4859 17.7353 24.3248 17.7685 24.2085 17.7948C24.0437 17.8322 21.4192 19.567 16.3348 22.9991C15.5898 23.5106 14.9151 23.7599 14.3105 23.7468C13.644 23.7324 12.3619 23.37 11.4088 23.0602C10.2398 22.6802 9.31073 22.4793 9.39163 21.8339C9.43377 21.4978 9.89666 21.154 10.7803 20.8026Z" fill="white"/>
</svg>
