<svg width="40" height="40" viewBox="0 0 40 40" fill="none" xmlns="http://www.w3.org/2000/svg">
<circle cx="20" cy="20" r="19.5" stroke="#F2F2F2"/>
<path fill-rule="evenodd" clip-rule="evenodd" d="M28.284 11.6179C26.2053 9.53653 23.4407 8.38973 20.495 8.38867C14.4251 8.38867 9.48514 13.3281 9.48302 19.3995C9.48197 21.3404 9.98938 23.2348 10.953 24.9043L9.39062 30.6109L15.2282 29.0797C16.8365 29.9573 18.6475 30.4192 20.4902 30.4198H20.495C26.5638 30.4198 31.5043 25.4798 31.5064 19.4084C31.5075 16.466 30.3633 13.6998 28.284 11.6184V11.6179ZM20.495 28.5602H20.4913C18.8492 28.5597 17.2383 28.1182 15.8328 27.2845L15.4985 27.086L12.0343 27.9947L12.9589 24.6171L12.7413 24.2707C11.8252 22.8135 11.3411 21.1291 11.3421 19.4C11.3442 14.354 15.45 10.2483 20.4987 10.2483C22.9433 10.2493 25.2412 11.2024 26.9693 12.9326C28.6975 14.6623 29.6484 16.9623 29.6474 19.4074C29.6452 24.454 25.5395 28.5597 20.495 28.5597V28.5602ZM25.5152 21.7057C25.2401 21.568 23.8874 20.9026 23.635 20.8108C23.3826 20.7189 23.1994 20.673 23.0162 20.9486C22.833 21.2242 22.3055 21.8441 22.145 22.0273C21.9845 22.211 21.8239 22.2338 21.5489 22.0959C21.2738 21.9581 20.3873 21.6677 19.336 20.7305C18.5182 20.0008 17.9658 19.1001 17.8054 18.8245C17.6449 18.5489 17.7885 18.4 17.9257 18.2632C18.0493 18.1397 18.2008 17.9417 18.3386 17.7812C18.4765 17.6206 18.5219 17.5056 18.6137 17.3223C18.7056 17.1386 18.6597 16.9781 18.591 16.8403C18.5224 16.7025 17.9722 15.3481 17.7425 14.7975C17.5192 14.261 17.2922 14.3339 17.1237 14.3249C16.9632 14.317 16.78 14.3154 16.5963 14.3154C16.4125 14.3154 16.1147 14.3841 15.8623 14.6597C15.61 14.9353 14.8992 15.6011 14.8992 16.9548C14.8992 18.3086 15.8851 19.6175 16.0228 19.8013C16.1606 19.985 17.9632 22.7639 20.7231 23.9561C21.3794 24.2396 21.8921 24.4091 22.2918 24.5358C22.9507 24.7454 23.5505 24.7159 24.0247 24.6451C24.5532 24.5659 25.6525 23.9793 25.8816 23.3367C26.1108 22.6941 26.1108 22.1429 26.0422 22.0283C25.9735 21.9138 25.7898 21.8446 25.5147 21.7068L25.5152 21.7057Z" fill="white"/>
</svg>
