<svg width="294" height="79" viewBox="0 0 294 79" fill="none" xmlns="http://www.w3.org/2000/svg">
<rect width="294" height="79" rx="10" fill="white"/>
<path d="M119.604 29.6383C119.068 27.8125 117.49 26.3748 115.486 25.8869C111.853 25 97.2885 25 97.2885 25C97.2885 25 82.7235 25 79.0908 25.8869C77.0871 26.3748 75.5087 27.8125 74.9731 29.6383C74 32.9475 74 39.852 74 39.852C74 39.852 74 46.7565 74.9731 50.0654C75.5087 51.8912 77.0871 53.3292 79.0908 53.8172C82.7235 54.7037 97.2885 54.7037 97.2885 54.7037C97.2885 54.7037 111.853 54.7037 115.486 53.8172C117.49 53.3292 119.068 51.8912 119.604 50.0654C120.577 46.7565 120.577 39.852 120.577 39.852C120.577 39.852 120.577 32.9475 119.604 29.6383Z" fill="#ED1F24"/>
<path d="M92.6289 46.2177L104.73 39.8525L92.6289 33.4873V46.2177Z" fill="white"/>
<path d="M146.769 49.1098C147.024 48.5034 147.152 47.5121 147.152 46.1362V40.34C147.152 39.005 147.024 38.0291 146.769 37.4119C146.514 36.795 146.064 36.4862 145.42 36.4862C144.798 36.4862 144.359 36.795 144.105 37.4119C143.849 38.0291 143.722 39.005 143.722 40.34V46.1362C143.722 47.5121 143.843 48.5034 144.088 49.1098C144.332 49.7168 144.776 50.02 145.42 50.02C146.064 50.02 146.514 49.7168 146.769 49.1098ZM141.607 52.0232C140.685 51.4574 140.029 50.5768 139.641 49.3829C139.253 48.1897 139.059 46.6015 139.059 44.6189V41.9181C139.059 39.9153 139.28 38.3068 139.725 37.0933C140.169 35.8795 140.862 34.9944 141.806 34.438C142.75 33.8819 143.988 33.6035 145.52 33.6035C147.03 33.6035 148.24 33.8868 149.151 34.4534C150.061 35.0196 150.727 35.905 151.149 37.1083C151.571 38.3124 151.782 39.9153 151.782 41.9181V44.6189C151.782 46.6015 151.577 48.195 151.166 49.3983C150.755 50.6023 150.089 51.4822 149.167 52.0383C148.246 52.5947 146.997 52.8727 145.42 52.8727C143.799 52.8727 142.528 52.5894 141.607 52.0232Z" fill="#272727"/>
<path d="M212.935 36.8338C212.702 37.0972 212.546 37.5268 212.469 38.1234C212.391 38.7204 212.353 39.6258 212.353 40.8396V42.1749H215.716V40.8396C215.716 39.646 215.672 38.7406 215.583 38.1234C215.494 37.5066 215.334 37.0721 215.101 36.8188C214.867 36.5659 214.506 36.4395 214.018 36.4395C213.529 36.4395 213.168 36.5712 212.935 36.8338ZM212.353 44.6633V45.6039C212.353 46.7978 212.391 47.6927 212.469 48.2893C212.546 48.8863 212.707 49.3215 212.952 49.5946C213.196 49.8674 213.573 50.0044 214.085 50.0044C214.772 50.0044 215.245 49.7613 215.5 49.2757C215.755 48.7902 215.894 47.9812 215.916 46.8481L219.88 47.0605C219.902 47.2229 219.913 47.4451 219.913 47.728C219.913 49.4479 219.397 50.7326 218.364 51.5821C217.332 52.4316 215.872 52.8567 213.984 52.8567C211.72 52.8567 210.132 52.2095 209.222 50.9143C208.311 49.6201 207.855 47.6173 207.855 44.9061V41.6587C207.855 38.8671 208.327 36.8293 209.271 35.5442C210.215 34.2595 211.831 33.6172 214.118 33.6172C215.694 33.6172 216.904 33.8802 217.748 34.4062C218.592 34.9326 219.186 35.7517 219.53 36.8642C219.875 37.9771 220.047 39.5147 220.047 41.4767V44.6633H212.353Z" fill="#272727"/>
<path d="M130.413 44.3143L125.184 27.1084H129.747L131.579 34.9071C132.045 36.8296 132.389 38.4682 132.611 39.8231H132.745C132.9 38.852 133.244 37.224 133.777 34.9375L135.676 27.1084H140.239L134.943 44.3143V52.5689H130.413V44.3143Z" fill="#272727"/>
<path d="M166.625 33.9668V52.5685H163.028L162.628 50.2928H162.528C161.551 52.0124 160.085 52.872 158.132 52.872C156.777 52.872 155.778 52.4676 155.134 51.6582C154.49 50.8493 154.168 49.5845 154.168 47.8652V33.9668H158.765V47.6221C158.765 48.4521 158.865 49.0438 159.064 49.3973C159.264 49.7518 159.597 49.9285 160.064 49.9285C160.463 49.9285 160.846 49.8175 161.213 49.5946C161.579 49.3721 161.851 49.0892 162.029 48.7451V33.9668H166.625Z" fill="#272727"/>
<path d="M190.204 33.9668V52.5685H186.606L186.206 50.2928H186.107C185.129 52.0124 183.663 52.872 181.71 52.872C180.355 52.872 179.356 52.4676 178.712 51.6582C178.068 50.8493 177.746 49.5845 177.746 47.8652V33.9668H182.343V47.6221C182.343 48.4521 182.442 49.0438 182.642 49.3973C182.842 49.7518 183.175 49.9285 183.642 49.9285C184.042 49.9285 184.425 49.8175 184.791 49.5946C185.157 49.3721 185.429 49.0892 185.607 48.7451V33.9668H190.204Z" fill="#272727"/>
<path d="M179.115 30.477H174.552V52.5685H170.055V30.477H165.492V27.1084H179.115V30.477Z" fill="#272727"/>
<path d="M201.2 44.5283C201.2 45.8839 201.138 46.9461 201.016 47.7146C200.894 48.4837 200.689 49.03 200.4 49.3531C200.112 49.6769 199.722 49.8386 199.235 49.8386C198.857 49.8386 198.507 49.758 198.185 49.5959C197.863 49.4342 197.603 49.1914 197.402 48.8676V38.3074C197.558 37.8019 197.824 37.387 198.202 37.0632C198.579 36.7401 198.99 36.5777 199.434 36.5777C199.901 36.5777 200.261 36.7446 200.517 37.0782C200.772 37.4121 200.95 37.9734 201.05 38.7628C201.15 39.5516 201.2 40.6742 201.2 42.1308V44.5283ZM205.413 36.9406C205.135 35.7676 204.686 34.9178 204.064 34.3914C203.442 33.8657 202.587 33.6027 201.499 33.6027C200.656 33.6027 199.867 33.8203 199.135 34.2552C198.402 34.6901 197.835 35.2615 197.436 35.9695H197.402L197.402 26.168H192.973V52.5684H196.769L197.236 50.8086H197.336C197.691 51.4356 198.224 51.9313 198.935 52.2956C199.645 52.6596 200.434 52.8419 201.3 52.8419C202.854 52.8419 203.997 52.1891 204.73 50.8844C205.463 49.5795 205.83 47.5417 205.83 44.7697V41.8265C205.83 39.743 205.69 38.1142 205.413 36.9406Z" fill="#272727"/>
</svg>
