<svg width="200" height="120" viewBox="0 0 200 120" fill="none" xmlns="http://www.w3.org/2000/svg">
<rect width="200" height="120" rx="4" fill="#10427A"/>
<path d="M125.611 92.5007C126.017 92.5007 126.601 92.576 127.047 92.7461L126.426 94.5882C125.999 94.4182 125.573 94.3623 125.165 94.3623C123.846 94.3623 123.187 95.1887 123.187 96.6736V101.714H121.169V92.7267H123.167V93.8178C123.691 93.028 124.448 92.5007 125.611 92.5007ZM118.156 94.5129H114.86V98.5739C114.86 99.4756 115.188 100.078 116.199 100.078C116.722 100.078 117.382 99.9082 117.981 99.5703L118.563 101.242C117.923 101.675 116.916 101.94 116.043 101.94C113.657 101.94 112.824 100.698 112.824 98.6105V94.5129H110.942V92.7267H112.824V90H114.86V92.7267H118.156V94.5129ZM92.3414 96.4304C92.5567 95.1327 93.3692 94.2482 94.8055 94.2482C96.1041 94.2482 96.9388 95.038 97.1519 96.4304H92.3414ZM99.2475 97.2202C99.2275 94.4182 97.4427 92.5007 94.8432 92.5007C92.1283 92.5007 90.2281 94.4182 90.2281 97.2202C90.2281 100.076 92.206 101.938 94.9808 101.938C96.3771 101.938 97.6558 101.6 98.7813 100.679L97.7912 99.2303C97.0165 99.8329 96.0264 100.171 95.0963 100.171C93.7976 100.171 92.6144 99.5875 92.3236 97.9713H99.2075C99.2275 97.726 99.2475 97.4828 99.2475 97.2202ZM108.109 95.0208C107.548 94.6808 106.404 94.2482 105.221 94.2482C104.116 94.2482 103.456 94.6442 103.456 95.3027C103.456 95.9032 104.153 96.0732 105.026 96.1851L105.976 96.3164C107.994 96.6004 109.215 97.4268 109.215 99.0065C109.215 100.717 107.663 101.94 104.988 101.94C103.474 101.94 102.078 101.563 100.972 100.773L101.922 99.2496C102.602 99.7575 103.612 100.19 105.008 100.19C106.384 100.19 107.121 99.7963 107.121 99.099C107.121 98.5933 106.597 98.3092 105.492 98.1607L104.542 98.0294C102.466 97.7453 101.341 96.8436 101.341 95.3781C101.341 93.5918 102.855 92.5007 105.201 92.5007C106.675 92.5007 108.014 92.8214 108.982 93.4412L108.109 95.0208ZM132.983 94.358C132.568 94.358 132.184 94.429 131.826 94.5689C131.471 94.7109 131.163 94.9089 130.903 95.1628C130.643 95.4168 130.439 95.7224 130.29 96.0775C130.142 96.4326 130.068 96.8242 130.068 97.2504C130.068 97.6786 130.142 98.0681 130.29 98.4232C130.439 98.7783 130.643 99.0839 130.903 99.3379C131.163 99.5918 131.471 99.7898 131.826 99.9319C132.184 100.074 132.568 100.143 132.983 100.143C133.398 100.143 133.784 100.074 134.14 99.9319C134.497 99.7898 134.808 99.5918 135.068 99.3379C135.332 99.0839 135.536 98.7783 135.687 98.4232C135.836 98.0681 135.909 97.6786 135.909 97.2504C135.909 96.8242 135.836 96.4326 135.687 96.0775C135.536 95.7224 135.332 95.4168 135.068 95.1628C134.808 94.9089 134.497 94.7109 134.14 94.5689C133.784 94.429 133.398 94.358 132.983 94.358ZM132.983 92.5007C133.702 92.5007 134.368 92.6212 134.981 92.8644C135.594 93.1055 136.124 93.439 136.57 93.863C137.019 94.2869 137.367 94.7884 137.62 95.3651C137.873 95.944 138 96.5725 138 97.2504C138 97.9283 137.873 98.5567 137.62 99.1356C137.367 99.7123 137.019 100.216 136.57 100.64C136.124 101.064 135.594 101.395 134.981 101.638C134.368 101.879 133.702 102 132.983 102C132.264 102 131.598 101.879 130.985 101.638C130.372 101.395 129.846 101.064 129.402 100.64C128.958 100.216 128.61 99.7123 128.357 99.1356C128.104 98.5567 127.977 97.9283 127.977 97.2504C127.977 96.5725 128.104 95.944 128.357 95.3651C128.61 94.7884 128.958 94.2869 129.402 93.863C129.846 93.439 130.372 93.1055 130.985 92.8644C131.598 92.6212 132.264 92.5007 132.983 92.5007ZM80.5582 97.2202C80.5582 95.6406 81.626 94.3429 83.3708 94.3429C85.038 94.3429 86.1635 95.5846 86.1635 97.2202C86.1635 98.8558 85.038 100.095 83.3708 100.095C81.626 100.095 80.5582 98.7999 80.5582 97.2202ZM88.0637 97.2202V92.7267H86.048V93.8178C85.4065 93.0086 84.4386 92.5007 83.12 92.5007C80.5205 92.5007 78.4849 94.4742 78.4849 97.2202C78.4849 99.9641 80.5205 101.94 83.12 101.94C84.4386 101.94 85.4065 101.432 86.048 100.623V101.714H88.0637V97.2202ZM76.7001 101.714V96.0732C76.7001 93.9491 75.3038 92.5201 73.055 92.5007C71.8718 92.4813 70.6487 92.8386 69.7962 94.0997C69.1569 93.1033 68.1469 92.5007 66.7306 92.5007C65.7427 92.5007 64.7726 92.7826 64.0157 93.835V92.7267H62V101.714H64.0356V96.7317C64.0356 95.1714 64.928 94.3429 66.3044 94.3429C67.6429 94.3429 68.3222 95.1887 68.3222 96.7123V101.714H70.3579V96.7317C70.3579 95.1714 71.2902 94.3429 72.6266 94.3429C74.0051 94.3429 74.6644 95.1887 74.6644 96.7123V101.714H76.7001Z" fill="white"/>
<circle cx="82.5" cy="50.5" r="32.5" fill="#D32011"/>
<circle cx="122.5" cy="50.5" r="32.5" fill="#0099DF"/>
<circle cx="82.5" cy="50.5" r="32.5" fill="#D32011" fill-opacity="0.4"/>
</svg>
