<svg width="86" height="85" viewBox="0 0 86 85" fill="none" xmlns="http://www.w3.org/2000/svg">
<path d="M76.8879 20.3867L45.0136 1.92578C44.4857 1.59375 43.7598 1.46094 42.9679 1.46094C42.176 1.46094 41.45 1.66016 40.9221 1.92578L9.24581 20.4531C8.12394 21.1172 7.33203 22.7773 7.33203 24.0391V61.0273C7.33203 61.7578 7.46402 62.6211 7.99195 63.3516L78.4717 22.1797C78.0758 21.3828 77.4818 20.7852 76.8879 20.3867Z" fill="#9B4F96"/>
<path d="M7.79297 63.2852C8.12293 63.8164 8.58488 64.2812 9.04682 64.5469L40.8551 83.0742C41.383 83.4063 42.109 83.5391 42.9009 83.5391C43.6928 83.5391 44.4187 83.3398 44.9466 83.0742L76.6229 64.5469C77.7448 63.8828 78.5367 62.2227 78.5367 60.9609V23.9727C78.5367 23.375 78.4707 22.7109 78.1407 22.1133L7.79297 63.2852Z" fill="#68217A"/>
<path d="M57.0257 50.5352C54.254 55.4492 48.9746 58.7695 42.9693 58.7695C34.0603 58.7695 26.8012 51.4648 26.8012 42.5C26.8012 33.5352 34.0603 26.2305 42.9693 26.2305C48.9746 26.2305 54.254 29.5508 57.0257 34.5312L65.6047 29.5508C61.1172 21.6484 52.6702 16.2695 42.9693 16.2695C28.583 16.2695 16.9023 28.0234 16.9023 42.5C16.9023 56.9766 28.583 68.7305 42.9693 68.7305C52.6042 68.7305 61.0512 63.418 65.5387 55.582L57.0257 50.5352ZM64.7467 43.9609L65.3407 41.1055H62.569V37.9844H65.9346L66.7265 33.8672H69.9601L69.1682 37.918H71.6759L72.4678 33.8672H75.6355L74.8436 37.918H76.4274V41.0391H74.2496L73.6557 43.8945H76.4274V47.0156H73.0618L72.2699 51H69.0362L69.8282 47.0156H67.3204L66.5285 51H63.3609L64.1528 47.0156H62.569V43.8945H64.7467V43.9609ZM67.9144 43.9609H70.4221L71.016 41.1055H68.5083L67.9144 43.9609Z" fill="white"/>
</svg>
