<svg width="295" height="79" viewBox="0 0 295 79" fill="none" xmlns="http://www.w3.org/2000/svg">
<rect width="295" height="79" rx="10" fill="white"/>
<path fill-rule="evenodd" clip-rule="evenodd" d="M69.2011 18C73.3373 18.6998 77.364 19.9387 81.1783 21.6849C87.7491 31.2922 91.014 42.1279 89.8085 54.6301C85.3686 57.9129 80.3963 60.406 75.1098 62C73.9194 60.4027 72.8669 58.7071 71.9636 56.9315C73.6843 56.2884 75.3452 55.4954 76.9271 54.5616C76.5162 54.2831 76.1098 53.9726 75.7125 53.6484C71.1184 55.8089 66.1042 56.9291 61.0275 56.9291C55.9508 56.9291 50.9366 55.8089 46.3425 53.6484C45.9498 53.9498 45.5434 54.2603 45.1279 54.5616C46.7067 55.4939 48.3646 56.2854 50.0822 56.9269C49.1779 58.7033 48.1255 60.4004 46.9361 62C41.6541 60.3996 36.6855 57.9053 32.2465 54.6256C31.2191 43.8447 33.2739 32.9087 40.8539 21.6941C44.672 19.9475 48.7013 18.7057 52.8402 18C53.406 19.0119 53.9181 20.053 54.3745 21.1187C58.7804 20.4548 63.2609 20.4548 67.6668 21.1187C68.1229 20.0528 68.6351 19.0118 69.2011 18ZM46.1553 42.2009C46.1553 45.3973 48.5206 47.9954 51.3836 47.9954C54.3014 47.9954 56.5572 45.3973 56.6074 42.2009C56.6576 39.0046 54.3106 36.3836 51.3745 36.3836C48.4384 36.3836 46.1553 39.0046 46.1553 42.2009ZM65.4476 42.2009C65.4476 45.3973 67.8038 47.9954 70.6714 47.9954C73.5892 47.9954 75.8404 45.3973 75.8906 42.2009C75.9408 39.0046 73.612 36.3836 70.6714 36.3836C67.7307 36.3836 65.4476 39.0046 65.4476 42.2009Z" fill="#5865F2"/>
<path fill-rule="evenodd" clip-rule="evenodd" d="M264.271 26.584V49.5977H256.44V45.3968C255.849 46.8923 254.788 48.1552 253.417 48.9949C251.903 49.8574 250.181 50.2871 248.44 50.2369C246.801 50.2751 245.188 49.8253 243.805 48.9447C242.466 48.0749 241.399 46.8452 240.727 45.3968C239.994 43.7979 239.629 42.055 239.659 40.2963C239.607 38.4729 239.996 36.6639 240.791 35.0223C241.523 33.5188 242.664 32.2525 244.084 31.3694C245.543 30.4852 247.222 30.031 248.928 30.0589C252.654 30.0589 255.158 31.6784 256.44 34.9173V26.584H264.271ZM255.289 43.1137C255.688 42.7208 256.001 42.2492 256.208 41.7287C256.415 41.2083 256.511 40.6505 256.49 40.0908C256.507 39.548 256.409 39.0077 256.202 38.5055C255.995 38.0034 255.684 37.5508 255.289 37.1776C254.393 36.4482 253.273 36.0499 252.118 36.0499C250.962 36.0499 249.842 36.4482 248.947 37.1776C248.553 37.5594 248.244 38.0198 248.041 38.5288C247.837 39.0378 247.743 39.5841 247.764 40.1319C247.744 40.6849 247.84 41.236 248.046 41.7496C248.252 42.2632 248.564 42.7279 248.96 43.1137C249.38 43.5036 249.873 43.8059 250.411 44.0027C250.949 44.1995 251.521 44.2869 252.093 44.2598C252.675 44.292 253.258 44.2071 253.807 44.0103C254.356 43.8134 254.86 43.5085 255.289 43.1137Z" fill="#5865F2"/>
<path fill-rule="evenodd" clip-rule="evenodd" d="M110.015 27.2236H122.48C125.485 27.2236 128.027 27.6924 130.106 28.63C132.02 29.4348 133.646 30.8008 134.768 32.5478C135.819 34.2737 136.357 36.2628 136.321 38.283C136.344 40.3125 135.784 42.3061 134.709 44.0273C133.509 45.8456 131.793 47.2639 129.782 48.1003C127.578 49.1049 124.846 49.6057 121.585 49.6026H110.015V27.2236ZM121.458 43.9086C123.482 43.9086 125.038 43.4032 126.124 42.3926C126.675 41.8582 127.106 41.2123 127.387 40.498C127.668 39.7837 127.793 39.0176 127.754 38.251C127.788 37.5394 127.677 36.8283 127.427 36.1611C127.178 35.4938 126.795 34.8844 126.302 34.3698C125.328 33.4017 123.863 32.9162 121.905 32.9131H118.006V43.9086H121.458Z" fill="#5865F2"/>
<path d="M154.987 49.5661C153.342 49.154 151.769 48.4967 150.32 47.6164V42.3104C151.585 43.2305 153.01 43.9086 154.521 44.3104C156.175 44.815 157.893 45.078 159.622 45.0912C160.218 45.1231 160.815 45.0201 161.366 44.7899C161.759 44.589 161.955 44.3332 161.955 44.0684C161.959 43.9204 161.933 43.7732 161.878 43.6357C161.823 43.4983 161.741 43.3736 161.635 43.2693C161.271 42.9888 160.843 42.8022 160.389 42.7259L156.553 41.8629C154.355 41.3515 152.795 40.6438 151.873 39.7396C151.41 39.2726 151.049 38.7144 150.813 38.1005C150.577 37.4866 150.472 36.8303 150.503 36.1734C150.488 34.9829 150.921 33.8302 151.718 32.9451C152.662 31.9464 153.852 31.214 155.17 30.8218C156.865 30.289 158.635 30.0346 160.412 30.0684C162.07 30.0528 163.724 30.2461 165.334 30.6438C166.635 30.9519 167.884 31.4472 169.042 32.1141V37.1369C167.956 36.5067 166.788 36.0289 165.572 35.7168C164.254 35.3634 162.895 35.1853 161.53 35.1871C159.527 35.1871 158.526 35.5281 158.526 36.21C158.522 36.3618 158.564 36.5113 158.645 36.6396C158.727 36.7679 158.844 36.8694 158.982 36.9314C159.53 37.1641 160.103 37.3297 160.69 37.4246L163.887 37.9999C165.963 38.3652 167.511 39.0045 168.53 39.9177C169.55 40.831 170.062 42.1673 170.065 43.9269C170.081 44.8521 169.855 45.7654 169.409 46.5761C168.962 47.3868 168.312 48.0666 167.521 48.5479C165.838 49.6772 163.435 50.2404 160.311 50.2374C158.515 50.2401 156.726 50.0146 154.987 49.5661Z" fill="#5865F2"/>
<path d="M173.476 45.2425C174.468 46.8399 175.908 48.1103 177.617 48.8955C179.703 49.8473 181.979 50.3096 184.27 50.2471C187.13 50.308 189.95 49.578 192.421 48.1375V42.4754C191.583 42.9631 190.687 43.345 189.754 43.6123C188.732 43.9177 187.671 44.0715 186.604 44.069C184.537 44.069 182.96 43.7021 181.873 42.9685C181.374 42.6794 180.961 42.2633 180.675 41.7624C180.389 41.2616 180.24 40.694 180.245 40.1173C180.25 39.5406 180.407 38.9755 180.701 38.4793C180.995 37.9832 181.415 37.5738 181.919 37.2927C183.039 36.5682 184.59 36.206 186.572 36.206C187.656 36.1973 188.734 36.3591 189.768 36.6854C190.691 36.9725 191.568 37.3925 192.371 37.932V32.0735C190.261 30.7311 187.608 30.0598 184.412 30.0598C182.128 30.0012 179.858 30.4439 177.763 31.3566C176.04 32.1082 174.574 33.3459 173.544 34.9183C172.578 36.4588 172.078 38.2461 172.106 40.0644C172.076 41.8838 172.55 43.676 173.476 45.2425Z" fill="#5865F2"/>
<path fill-rule="evenodd" clip-rule="evenodd" d="M200.33 48.8949C198.601 48.1058 197.136 46.8381 196.106 45.2419C195.135 43.6791 194.631 41.8714 194.654 40.0319C194.623 38.2141 195.128 36.4274 196.106 34.8949C197.141 33.3392 198.601 32.1128 200.311 31.3606C204.513 29.6558 209.214 29.6558 213.416 31.3606C215.12 32.107 216.574 33.3275 217.604 34.8766C218.575 36.4148 219.075 38.2037 219.042 40.0227C219.065 41.8605 218.566 43.667 217.604 45.2328C216.585 46.8301 215.126 48.0987 213.403 48.8858C211.337 49.7715 209.113 50.2282 206.866 50.2282C204.619 50.2282 202.395 49.7715 200.33 48.8858V48.8949ZM210.042 43.2237C210.437 42.816 210.744 42.3318 210.945 41.801C211.146 41.2702 211.237 40.7039 211.211 40.1369C211.238 39.5752 211.149 39.0139 210.948 38.4887C210.746 37.9636 210.438 37.4861 210.042 37.0867C209.612 36.6928 209.108 36.3892 208.559 36.1939C208.01 35.9985 207.427 35.9155 206.846 35.9497C206.264 35.9191 205.682 36.0038 205.134 36.1989C204.585 36.3941 204.081 36.6958 203.649 37.0867C203.255 37.487 202.948 37.9647 202.747 38.4897C202.547 39.0147 202.457 39.5756 202.485 40.1369C202.459 40.7035 202.549 41.2694 202.749 41.8001C202.95 42.3307 203.256 42.8151 203.649 43.2237C204.076 43.6224 204.58 43.9311 205.129 44.1311C205.678 44.3312 206.262 44.4185 206.846 44.388C207.43 44.422 208.014 44.3363 208.564 44.136C209.114 43.9358 209.617 43.6253 210.042 43.2237Z" fill="#5865F2"/>
<path d="M238.252 38.1552V31.2419C237.376 30.7132 236.366 30.4469 235.343 30.4748C234.658 30.4541 233.977 30.5822 233.346 30.8503C232.716 31.1183 232.151 31.5199 231.69 32.0273C230.741 33.0593 230.053 34.662 229.626 36.8355V30.8995H221.955V49.5981H229.786V43.7168C229.786 41.5433 230.243 39.9406 231.156 38.9086C232.069 37.8766 233.384 37.3561 235.088 37.3561C236.198 37.308 237.298 37.5858 238.252 38.1552Z" fill="#5865F2"/>
<path d="M142.924 32.8907C145.08 32.8907 146.828 31.3206 146.828 29.3838C146.828 27.447 145.08 25.877 142.924 25.877C140.767 25.877 139.02 27.447 139.02 29.3838C139.02 31.3206 140.767 32.8907 142.924 32.8907Z" fill="#5865F2"/>
<path d="M142.92 36.0932C141.579 36.0932 140.25 35.8255 139.014 35.3057V49.6984H146.826V35.3057C145.59 35.8255 144.262 36.0932 142.92 36.0932Z" fill="#5865F2"/>
</svg>
