<svg width="99" height="99" viewBox="0 0 99 99" fill="none" xmlns="http://www.w3.org/2000/svg">
<path d="M21.9164 89.9923L15.7969 20.2197H83.0395L76.9138 89.9815L49.3771 97.7414L21.9164 89.9923Z" fill="#E44D26"/>
<path d="M49.418 91.8103L71.6683 85.5393L76.9038 25.9258H49.418V91.8103Z" fill="#F16529"/>
<path d="M49.4169 51.8036H38.2773L37.5088 43.0397H49.4169V34.4824H28.3086L28.5095 36.7788L30.579 60.3601H49.4169V51.8036ZM49.4169 74.0267L49.3796 74.0368L40.0052 71.4628L39.4056 64.6387H30.9548L32.1342 78.0749L49.3781 82.9414L49.4169 82.9298V74.0267Z" fill="#EBEBEB"/>
<path d="M22.0508 1.25879H26.3283V5.55601H30.2421V1.25879H34.5204V14.2696H30.2421V9.91278H26.3291V14.2696H22.0508V1.25879ZM40.1454 5.5738H36.3792V1.25879H48.1914V5.5738H44.4236V14.2696H40.1454V5.5738ZM50.0661 1.25879H54.5262L57.2706 5.83058L60.012 1.25879H64.4744V14.2696H60.2128V7.82063L57.2706 12.4466H57.1961L54.2516 7.82063V14.2696H50.0654V1.25879H50.0661ZM66.604 1.25879H70.883V9.96924H76.8991V14.2703H66.604V1.25879Z" fill="black"/>
<path d="M49.3867 51.8036V60.3601H59.7526L58.7756 71.4581L49.3867 74.0345V82.9367L66.6444 78.0749L66.7707 76.6286L68.7489 54.1007L68.9543 51.8036H66.6855H49.3867ZM49.3867 34.4824V43.0397H69.7205L69.8886 41.1162L70.2729 36.7788L70.4745 34.4824H49.3867Z" fill="white"/>
</svg>
