<svg width="114" height="114" viewBox="0 0 114 114" fill="none" xmlns="http://www.w3.org/2000/svg">
<path d="M57.0016 47.3681C61.576 47.3681 65.2844 43.9746 65.2844 39.7885C65.2844 35.6025 61.576 32.209 57.0016 32.209C52.4271 32.209 48.7188 35.6025 48.7188 39.7885C48.7188 43.9746 52.4271 47.3681 57.0016 47.3681Z" fill="#61DAFB"/>
<path d="M57.0008 67.6616C63.5023 73.4481 69.9148 76.8711 75.0805 76.8711C76.7727 76.8711 78.3758 76.5451 79.7117 75.8116C84.343 73.3666 86.0352 67.2541 84.432 58.5335C84.1648 56.985 83.8086 55.4365 83.3633 53.8065C85.1445 53.3175 86.7477 52.8285 88.3508 52.3395C97.3461 49.1609 102.334 44.7599 102.334 39.9514C102.334 35.0613 97.3461 30.6603 88.3508 27.5633C86.7477 26.9928 85.1445 26.5038 83.3633 26.0963C83.8086 24.4663 84.1648 22.9178 84.432 21.3692C85.9461 12.4857 84.2539 6.29164 79.6227 3.84662C78.2867 3.11311 76.6836 2.78711 74.9914 2.78711C69.9148 2.78711 63.4133 6.21013 56.9117 11.9967C50.4992 6.21013 44.0867 2.78711 38.9211 2.78711C37.2289 2.78711 35.6258 3.11311 34.2898 3.84662C29.6586 6.29164 27.9664 12.4042 29.5695 21.1247C29.8367 22.6733 30.193 24.2218 30.6383 25.8518C28.857 26.3408 27.2539 26.8298 25.6508 27.3188C16.6555 30.4973 11.668 34.8983 11.668 39.7069C11.668 44.5969 16.6555 48.9979 25.6508 52.095C27.2539 52.6655 28.857 53.1545 30.6383 53.562C30.193 55.192 29.8367 56.7405 29.5695 58.289C28.0555 67.0096 29.7477 73.2036 34.2898 75.5671C35.6258 76.3006 37.2289 76.6266 38.9211 76.6266C44.0867 76.7896 50.4992 73.3666 57.0008 67.6616ZM52.0133 56.659C53.6164 56.7405 55.3086 56.7405 57.0008 56.7405C58.693 56.7405 60.3852 56.7405 61.9883 56.659C60.3852 58.615 58.693 60.408 57.0008 62.1195C55.3086 60.408 53.6164 58.615 52.0133 56.659ZM40.9695 48.2644C41.8602 49.65 42.6617 50.954 43.6414 52.258C40.8805 51.932 38.2977 51.5245 35.8039 51.0355C36.6055 48.8349 37.4961 46.5529 38.5648 44.2709C39.2773 45.5749 40.0789 46.9604 40.9695 48.2644ZM35.8039 28.6228C38.2977 28.1338 40.8805 27.7263 43.6414 27.4003C42.7508 28.7043 41.8602 30.0083 40.9695 31.3938C40.0789 32.7793 39.2773 34.0833 38.5648 35.4688C37.407 33.1053 36.5164 30.8233 35.8039 28.6228ZM40.7023 39.7884C41.8602 37.5879 43.107 35.3873 44.532 33.1868C45.868 31.0678 47.382 28.9488 48.8961 26.8298C51.568 26.6668 54.2398 26.5853 57.0008 26.5853C59.8508 26.5853 62.5227 26.6668 65.1055 26.8298C66.7086 28.9488 68.1336 31.0678 69.4695 33.1868C70.8945 35.3873 72.1414 37.5879 73.2992 39.7884C72.1414 41.9889 70.8945 44.1894 69.4695 46.3899C68.1336 48.5089 66.6195 50.628 65.1055 52.747C62.4336 52.91 59.7617 52.9915 57.0008 52.9915C54.1508 52.9915 51.4789 52.91 48.8961 52.747C47.293 50.628 45.868 48.5089 44.532 46.3899C43.107 44.1894 41.8602 41.9889 40.7023 39.7884ZM75.5258 35.3873L73.1211 31.3123C72.2305 29.9268 71.4289 28.6228 70.4492 27.3188C73.2102 27.6448 75.793 28.0523 78.2867 28.5413C77.4852 30.8233 76.5945 33.1053 75.5258 35.3873ZM75.5258 44.1894C76.5945 46.4714 77.4852 48.7534 78.2867 50.954C75.793 51.443 73.2102 51.8505 70.4492 52.1765C71.3398 50.8725 72.2305 49.5684 73.1211 48.1829C73.9227 46.9604 74.7242 45.5749 75.5258 44.1894ZM77.5742 72.4701C76.8617 72.8776 75.9711 73.0406 74.9914 73.0406C70.6273 73.0406 65.1945 69.7806 59.8508 64.8906C62.4336 62.364 64.9273 59.5115 67.4211 56.333C71.607 56.007 75.6148 55.4365 79.3555 54.6215C79.8008 56.0885 80.068 57.5555 80.3352 59.0225C81.582 65.9501 80.6023 70.9216 77.5742 72.4701ZM82.2055 29.5193C92.1805 32.1273 98.1477 36.1209 98.1477 39.7884C98.1477 42.9669 94.0508 46.1454 86.8367 48.6719C85.4117 49.1609 83.8086 49.65 82.2055 50.0575C81.0477 46.7159 79.6227 43.2929 77.8414 39.7884C79.6227 36.2839 81.1367 32.8608 82.2055 29.5193ZM75.0805 6.53614C76.0602 6.53614 76.8617 6.69914 77.6633 7.10664C80.6023 8.65515 81.6711 13.5452 80.4242 20.5542C80.157 21.9397 79.8008 23.4068 79.4445 24.9553C75.7039 24.2218 71.6961 23.6513 67.5102 23.2438C65.1055 20.0652 62.5227 17.2127 59.9398 14.6862C65.2836 9.87766 70.7164 6.53614 75.0805 6.53614ZM61.9883 22.9178C60.3852 22.8363 58.693 22.8363 57.0008 22.8363C55.3086 22.8363 53.6164 22.8363 52.0133 22.9178C53.6164 20.9617 55.3086 19.1687 57.0008 17.4572C58.693 19.1687 60.3852 21.0432 61.9883 22.9178ZM36.4273 7.10664C37.1398 6.69914 38.0305 6.53614 39.0102 6.53614C43.3742 6.53614 48.807 9.79616 54.1508 14.6862C51.568 17.2127 49.0742 20.0652 46.5805 23.2438C42.3945 23.5698 38.3867 24.1403 34.6461 24.9553C34.2008 23.4883 33.9336 22.0212 33.6664 20.5542C32.4195 13.6267 33.3992 8.73665 36.4273 7.10664ZM31.7961 50.0575C21.8211 47.4494 15.8539 43.4559 15.8539 39.7884C15.8539 36.6099 19.9508 33.4313 27.1648 30.9048C28.5898 30.4158 30.193 29.9268 31.7961 29.5193C32.9539 32.8608 34.3789 36.2839 36.1602 39.7884C34.3789 43.2929 32.8648 46.7974 31.7961 50.0575ZM33.6664 59.0225C33.9336 57.637 34.2898 56.17 34.6461 54.6215C38.3867 55.355 42.3945 55.9255 46.5805 56.333C48.9852 59.5115 51.568 62.364 54.1508 64.8906C48.807 69.6991 43.3742 73.0406 39.0102 73.0406C38.0305 73.0406 37.2289 72.8776 36.4273 72.4701C33.3992 70.9216 32.4195 65.9501 33.6664 59.0225ZM29.9258 92.6008C31.8852 90.4002 31.9742 87.9552 30.9055 85.5102C29.8367 83.0652 27.6102 81.9242 24.8492 81.8427C21.5539 81.7612 18.1695 81.8427 14.8742 81.8427H14.2508V102.951H16.9227V94.9643H21.1086C21.643 94.9643 22.0883 95.1273 22.3555 95.5348L27.6992 103.114C27.7883 103.277 28.0555 103.522 28.2336 103.522H31.707C29.5695 100.506 27.5211 97.6538 25.3836 94.7198C27.2539 94.4753 28.857 93.9048 29.9258 92.6008ZM16.9227 92.4378V84.3692H17.9023C19.9508 84.3692 22.0883 84.2877 24.1367 84.4507C26.5414 84.5322 28.2336 86.2437 28.2336 88.4442C28.2336 90.6447 26.2742 92.3563 23.8695 92.4378C21.732 92.5193 19.5945 92.4378 16.9227 92.4378ZM51.3898 93.4973C49.9648 87.7922 44.2648 86.3252 39.9008 88.1182C36.5164 89.5037 35.0023 92.1933 34.9133 95.5348C34.8242 98.0613 35.6258 100.343 37.7633 102.055C40.168 104.011 43.107 104.255 46.1352 103.766C47.8273 103.44 49.3414 102.707 50.4992 101.566C50.0539 100.995 49.6086 100.425 49.1633 99.9358C46.6695 101.892 43.9086 102.544 40.8805 101.24C38.9211 100.343 37.9414 98.1428 37.7633 96.5128H51.568V95.4533C51.657 94.7198 51.568 94.0678 51.3898 93.4973ZM37.9414 94.8013C37.6742 92.3563 40.3461 89.7482 43.2852 89.7482C46.6695 89.6667 48.807 91.5413 48.8961 94.8013H37.9414ZM65.2836 87.7107C63.9477 87.4662 62.5227 87.3847 61.1867 87.4662C59.0492 87.6292 57.1789 88.5257 55.6648 89.9927C56.1102 90.5632 56.4664 91.1338 57.0008 91.7858C57.1789 91.6228 57.357 91.4598 57.5352 91.3783C58.9602 90.1557 60.6523 89.5037 62.7008 89.6667C64.3039 89.7482 65.818 90.2372 66.2633 91.7043C66.6195 92.8453 66.5305 94.0678 66.6195 95.2903C66.3523 95.2903 66.2633 95.2088 66.1742 95.1273C64.0367 93.4973 61.632 93.1713 59.0492 93.7418C56.6445 94.3123 55.1305 96.0238 54.9523 98.2243C54.7742 100.751 56.0211 102.625 58.4258 103.522C59.9398 104.092 61.632 104.092 63.2352 103.766C64.482 103.522 65.0164 102.87 66.7977 101.973V103.033H69.2914C69.2914 99.7728 69.3805 95.7793 69.2914 92.0303C69.2914 89.6667 67.7773 88.1997 65.2836 87.7107ZM66.5305 97.9798C66.4414 98.2243 66.5305 98.4688 66.5305 98.7133C66.5305 100.425 66.0852 100.995 64.3039 101.647C63.057 102.055 61.7211 102.218 60.3852 101.81C58.8711 101.403 57.8023 100.18 57.8023 98.7948C57.7133 97.4093 58.693 96.0238 60.207 95.6163C62.2555 94.9643 64.1258 95.3718 65.818 96.5128C66.3523 96.9203 66.7086 97.3278 66.5305 97.9798ZM80.4242 89.9112C82.7398 89.2592 84.8773 89.6667 86.4805 91.4598L86.7477 91.6227C87.3711 91.1337 87.9055 90.6447 88.618 90.0742C88.3508 89.8297 88.2617 89.6667 88.0836 89.4222C85.5008 86.8957 80.4242 86.5697 77.307 88.6072C72.943 91.5413 73.032 97.2463 75.1695 100.262C77.218 103.114 80.157 104.092 83.6305 103.685C85.6789 103.44 87.3711 102.544 88.707 100.995C88.0836 100.506 87.4602 100.017 86.8367 99.4468C86.6586 99.6098 86.5695 99.6913 86.4805 99.8543C84.0758 102.299 80.068 102.055 77.9305 99.4468C76.6836 97.8983 76.4164 96.1053 76.7727 94.3123C76.9508 92.2748 78.1086 90.6447 80.4242 89.9112ZM98.9492 100.995C98.7711 101.077 98.682 101.158 98.682 101.158C97.9695 101.647 97.257 101.729 96.4555 101.484C95.6539 101.158 95.5648 100.506 95.4758 99.8543V90.5632C95.4758 90.4002 95.4758 90.7262 95.5648 89.9112H98.9492V87.4662H95.3867V83.3912H92.7148V87.7922H90.3992C90.2211 87.7922 89.9539 87.9552 89.9539 88.1182C89.8648 88.6887 89.9539 89.0962 89.9539 89.9112H92.8039V100.343C92.8039 101.647 93.1602 102.788 94.407 103.44C95.743 104.174 98.3258 104.011 99.4836 103.114C99.6617 103.033 99.7508 102.707 99.7508 102.625C99.4836 102.136 99.2164 101.566 98.9492 100.995Z" fill="#61DAFB"/>
</svg>
