<svg width="114" height="114" viewBox="0 0 114 114" fill="none" xmlns="http://www.w3.org/2000/svg">
<g clip-path="url(#clip0_859_4423)">
<path d="M17.0837 95.1259C17.0837 90.5874 15.603 88.2572 12.6404 88.1303C11.4648 88.0807 10.2904 88.2493 9.19123 88.6254C8.29721 88.9063 7.69654 89.181 7.37991 89.4608V100.293C9.27504 101.333 10.9583 101.815 12.4251 101.749C15.5297 101.57 17.0837 99.3566 17.0837 95.1364V95.1259ZM20.7389 95.3132C20.7389 97.6184 20.1197 99.5324 18.8764 101.055C17.4888 102.778 15.5658 103.664 13.1084 103.713C11.2552 103.765 9.34605 103.258 7.38108 102.194V112.039L4.20312 111.049V89.1965C4.72464 88.6379 5.39631 88.1563 6.20884 87.7402C8.10048 86.777 10.3995 86.2817 13.1037 86.2578L13.1503 86.2974C15.6228 86.2703 17.5272 87.1566 18.8543 88.9552C20.1022 90.605 20.7168 92.7188 20.7168 95.3039L20.7389 95.3132ZM40.1594 101.776C40.1594 104.869 39.8043 107.009 39.0954 108.201C38.3865 109.393 37.0268 110.344 35.0234 111.051C33.3995 111.61 31.6441 111.915 29.7594 111.967L29.2356 110.217C31.1517 109.988 32.5009 109.761 33.2831 109.533C34.8232 109.078 35.879 108.389 36.4611 107.453C36.9267 106.69 37.156 105.235 37.156 103.082V102.359C34.9827 103.222 32.7057 103.649 30.3229 103.649C28.8175 103.669 27.353 103.211 26.1892 102.358C24.854 101.419 24.187 100.228 24.187 98.7855V87.2201L27.3649 86.2693V97.8993C27.3649 99.1413 27.8236 100.098 28.742 100.77C29.6605 101.442 30.8374 101.764 32.3065 101.74C33.7755 101.716 35.3249 101.22 36.9826 100.257V86.6896H40.1605V101.778L40.1594 101.776ZM52.5685 103.562L51.5208 103.602C49.7235 103.602 48.3219 103.227 47.3208 102.478C46.3197 101.729 45.8227 100.692 45.8227 99.3712V88.4351H43.6458V86.6875H45.8227V82.048L48.9971 81.0598V86.6854H52.5685V88.433H49.0064V99.2932C49.0064 100.335 49.3265 101.062 49.9656 101.505C50.5151 101.861 51.3881 102.063 52.5767 102.115V103.572L52.5685 103.562ZM71.8085 103.334H68.6306V92.619C68.6306 91.5288 68.3395 90.5905 67.7575 89.8061C67.4613 89.3856 67.0472 89.0416 66.5563 88.8082C66.0654 88.5748 65.5148 88.4602 64.959 88.4756C63.5016 88.4756 61.6798 89.1466 59.4937 90.4896V103.337H56.3157V77.7195L59.4937 76.8457V88.4996C61.5238 87.2097 63.7426 86.5616 66.1522 86.5616C67.8355 86.5616 69.1986 87.0568 70.2417 88.044C71.2847 89.0312 71.8097 90.2618 71.8097 91.7316V103.323L71.8085 103.334ZM88.7017 94.6995C88.7017 92.956 88.3222 91.5163 87.5679 90.3772C86.6715 88.9885 85.277 88.2572 83.3923 88.1927C79.9082 88.3696 78.1702 90.5499 78.1702 94.7296C78.1702 96.6468 78.5195 98.2478 79.2622 99.5325C80.1934 101.17 81.5903 101.977 83.4552 101.95C86.9533 101.926 88.7017 99.5137 88.7017 94.7098V94.6995ZM92.194 94.7182C92.194 97.2002 91.4676 99.2661 90.0171 100.915C88.4223 102.761 86.2164 103.688 83.4051 103.688C80.6171 103.688 78.4438 102.752 76.8863 100.915C75.4637 99.2651 74.756 97.2013 74.756 94.7182C74.756 92.3849 75.5243 90.4219 77.0609 88.8252C78.6848 87.1296 80.8209 86.2797 83.4587 86.2797C86.0965 86.2797 88.2466 87.1306 89.9019 88.8252C91.4385 90.423 92.2068 92.3849 92.2068 94.7182H92.194ZM110.4 103.344H107.211V92.0197C107.211 90.7777 106.783 89.8082 105.928 89.1092C105.072 88.4101 103.933 88.0762 102.51 88.1033C101.001 88.1272 99.565 88.5589 98.203 89.3932V103.332H95.025V89.0395C96.8526 87.8765 98.5371 87.1171 100.074 86.7509C101.524 86.4201 102.803 86.2558 103.906 86.2558C104.66 86.2558 105.369 86.3182 106.036 86.4472C107.284 86.6989 108.299 87.1671 109.083 87.8536C109.956 88.613 110.39 89.5242 110.39 90.5894V103.322L110.4 103.344Z" fill="#646464"/>
<path d="M33.3283 10.9962C33.3283 6.23129 34.7908 3.63918 42.8654 2.40486C48.3474 1.56542 55.3763 1.46049 61.9327 2.40486C67.1112 3.15161 71.4698 6.5216 71.4698 10.9962V26.7164C71.4698 31.327 67.2382 35.1038 61.9327 35.1038H42.8654C36.3942 35.1038 30.9403 39.9243 30.9403 45.374V52.9163H24.3842C18.8386 52.9163 15.6098 49.4229 14.2534 44.5345C12.4238 37.9673 12.5015 34.0545 14.2534 27.765C15.7723 22.2782 20.6257 19.3832 26.1717 19.3832H52.4025V17.2846H33.3279V10.9958L33.3283 10.9962Z" fill="url(#paint0_linear_859_4423)"/>
<path d="M71.4696 61.304C71.4696 66.0688 66.7363 68.4822 61.9326 69.6858C54.7055 71.5003 48.9053 71.2226 42.8652 69.6858C37.8208 68.4021 33.3281 65.7789 33.3281 61.304V45.5837C33.3281 41.0595 37.6447 37.1963 42.8652 37.1963H61.9326C68.2837 37.1963 73.8577 32.401 73.8577 26.7163V19.3838H81.0071C86.5599 19.3838 89.1742 22.9881 90.5442 27.7656C92.4514 34.4006 92.5363 39.3628 90.5442 44.5351C88.6157 49.5592 86.5527 52.9169 81.0071 52.9169H52.4023V55.0155H71.4696V61.3043V61.304Z" fill="url(#paint1_linear_859_4423)"/>
<path d="M38.0977 9.95356C38.0977 8.21312 39.6942 6.80566 41.6728 6.80566C43.6437 6.80566 45.2479 8.21277 45.2479 9.95356C45.2479 11.6884 43.6441 13.0952 41.6728 13.0952C39.695 13.0952 38.0977 11.688 38.0977 9.95356ZM59.5523 62.3478C59.5523 60.613 61.156 59.2062 63.1274 59.2062C65.1051 59.2062 66.7025 60.6133 66.7025 62.3478C66.7025 64.0883 65.1059 65.4957 63.1274 65.4957C61.1564 65.4957 59.5523 64.0886 59.5523 62.3478Z" fill="white"/>
</g>
<defs>
<linearGradient id="paint0_linear_859_4423" x1="71.4702" y1="21.6318" x2="12.9118" y2="21.0989" gradientUnits="userSpaceOnUse">
<stop stop-color="#366A96"/>
<stop offset="1" stop-color="#3679B0"/>
</linearGradient>
<linearGradient id="paint1_linear_859_4423" x1="92.0063" y1="45.1643" x2="-23.9136" y2="45.1643" gradientUnits="userSpaceOnUse">
<stop stop-color="#FFC836"/>
<stop offset="1" stop-color="#FFE873"/>
</linearGradient>
<clipPath id="clip0_859_4423">
<rect width="114" height="114" fill="white"/>
</clipPath>
</defs>
</svg>
