<svg width="114" height="114" viewBox="0 0 114 114" fill="none" xmlns="http://www.w3.org/2000/svg">
<path d="M24.8078 103.627L17.6445 23.2832H96.3562L89.1858 103.615L56.9523 112.551L24.8078 103.627Z" fill="#E44D26"/>
<path d="M57 105.721L83.0454 98.4993L89.1738 29.8535H57V105.721Z" fill="#F16529"/>
<path d="M57.0016 59.6526H43.9619L43.0624 49.5609H57.0016V39.707H32.293L32.5281 42.3513L34.9506 69.5056H57.0016V59.6526ZM57.0016 85.2429L56.9579 85.2545L45.9845 82.2905L45.2827 74.4325H35.3906L36.771 89.9044L56.9562 95.5082L57.0016 95.4949V85.2429Z" fill="#EBEBEB"/>
<path d="M24.9688 1.44922H29.9758V6.39753H34.5572V1.44922H39.5652V16.4313H34.5572V11.4144H29.9767V16.4313H24.9688V1.44922V1.44922ZM46.1496 6.41802H41.741V1.44922H55.568V6.41802H51.1576V16.4313H46.1496V6.41802V6.41802ZM57.7625 1.44922H62.9833L66.1958 6.7137L69.4047 1.44922H74.6282V16.4313H69.6398V9.00528L66.1958 14.3321H66.1085L62.6618 9.00528V16.4313H57.7616V1.44922H57.7625ZM77.1211 1.44922H82.13V11.4794H89.1721V16.4322H77.1211V1.44922V1.44922Z" fill="black"/>
<path d="M56.9648 59.6526V69.5056H69.0987L67.9552 82.2851L56.9648 85.2518V95.5029L77.166 89.9044L77.3138 88.239L79.6295 62.2977L79.8699 59.6526H77.2141H56.9648ZM56.9648 39.707V49.5609H80.7668L80.9636 47.3459L81.4134 42.3513L81.6494 39.707H56.9648Z" fill="white"/>
</svg>
