<svg width="114" height="114" viewBox="0 0 114 114" fill="none" xmlns="http://www.w3.org/2000/svg">
<path d="M21.0248 96.9036L13.0234 7.125H100.974L92.9624 96.8893L56.9455 106.875L21.0248 96.9036Z" fill="#1572B6"/>
<path d="M57 99.2446L86.1056 91.1755L92.9527 14.4678H57V99.2446Z" fill="#33A9DC"/>
<path d="M57 46.9931H71.5706L72.5752 35.7177H57V24.7061H57.0392H84.6094L84.3458 27.6594L81.6418 58.0047H57V46.9931Z" fill="white"/>
<path d="M57.0682 75.5892L57.0183 75.6035L44.7562 72.2903L43.9724 63.5088H38.0123H32.918L34.4605 80.7976L57.0147 87.0605L57.0682 87.0462V75.5892Z" fill="#EBEBEB"/>
<path d="M70.6325 57.5381L69.3073 72.2833L57.0273 75.5964V87.0534L79.5993 80.7977L79.7668 78.938L81.6798 57.5381H70.6325Z" fill="white"/>
<path d="M57.0376 24.7061V31.5461V35.6892V35.7177H30.4756H30.4399L30.2191 33.2418L29.7168 27.6594L29.4531 24.7061H57.0376Z" fill="#EBEBEB"/>
<path d="M57.0023 46.9932V53.8332V57.9764V58.0049H44.929H44.8934L44.6725 55.5289L44.1738 49.9465L43.9102 46.9932H57.0023Z" fill="#EBEBEB"/>
</svg>
