<svg width="114" height="114" viewBox="0 0 114 114" fill="none" xmlns="http://www.w3.org/2000/svg">
<path d="M28.6719 82.4415C28.3436 82.4415 28.0166 82.5238 27.7326 82.6881C27.4486 82.8524 27.1881 83.1357 27.1881 83.4994C27.1881 83.5472 27.1559 83.6546 27.2629 83.8418L27.2351 83.7825L32.9442 99.9895C33.0464 100.294 33.2917 100.526 33.5669 100.659C33.8422 100.793 34.145 100.843 34.4384 100.843C35.0623 100.843 35.7473 100.583 35.957 99.9956V99.994L41.6609 83.7262V83.6669C41.6609 83.7489 41.6887 83.7015 41.6887 83.5238C41.6887 83.1539 41.4187 82.8819 41.1303 82.711C40.8419 82.54 40.5024 82.4416 40.1492 82.4416C39.7137 82.4416 39.2126 82.6734 39.0446 83.1143L39.0412 83.1189L34.4367 96.5649L29.8148 83.1431C29.7463 82.9033 29.5617 82.7023 29.3469 82.5906C29.1321 82.4788 28.8978 82.4414 28.672 82.4414L28.6719 82.4415ZM74.1428 83.2772C73.234 83.2772 72.4676 83.8864 72.4676 84.6486C72.4676 85.4108 73.2221 86.0413 74.1428 86.0413C75.0461 86.0413 75.764 85.399 75.764 84.6486C75.764 83.8982 75.0337 83.2772 74.1428 83.2772ZM60.7576 88.4659C57.6507 88.4659 55.0921 90.6413 55.0921 93.2558V95.9347C55.0921 97.3991 55.7589 98.6541 56.8907 99.5207C58.0225 100.387 59.6023 100.866 61.4134 100.866C62.7511 100.866 63.8414 100.604 64.621 100.248C65.0108 100.07 65.324 99.8707 65.5551 99.6531C65.7862 99.4356 65.957 99.1974 65.957 98.8997C65.957 98.6264 65.8366 98.3895 65.6421 98.1767C65.4476 97.964 65.1411 97.7688 64.7462 97.7688C64.461 97.7688 64.242 97.8739 64.0522 97.9758C63.8623 98.0778 63.684 98.1904 63.4694 98.2985C63.0402 98.5146 62.4716 98.7247 61.4673 98.7247C60.3492 98.7247 59.4168 98.4457 58.7746 97.9773C58.1323 97.509 57.7587 96.8588 57.7587 96.0063V95.5101H63.4903C64.1017 95.5101 64.7812 95.5109 65.369 95.1828C65.9568 94.8545 66.3135 94.2018 66.3135 93.2087C66.3135 90.4584 63.6909 88.466 60.7576 88.466L60.7576 88.4659ZM82.2983 88.4659C80.6469 88.4659 79.4324 88.9335 78.6522 89.6364C77.872 90.3393 77.5355 91.2538 77.5355 92.1082C77.5355 93.1972 78.0382 93.9777 78.7583 94.4781C79.4784 94.9785 80.3742 95.2303 81.2267 95.4553C82.0791 95.6802 82.895 95.8799 83.4428 96.1752C83.9906 96.4705 84.2847 96.7899 84.2847 97.4644C84.2847 97.8264 84.1604 98.1146 83.8237 98.3502C83.4871 98.5858 82.8895 98.7718 81.9155 98.7718C80.7633 98.7718 80.1194 98.5231 79.6506 98.2695C79.4163 98.1427 79.2275 98.0111 79.0331 97.8936C78.8387 97.776 78.6183 97.6485 78.3095 97.6485C77.9377 97.6485 77.6636 97.8489 77.4971 98.0564C77.3306 98.264 77.2345 98.4997 77.2345 98.7551C77.2345 99.0708 77.4101 99.3484 77.6589 99.5892C77.9077 99.83 78.2445 100.044 78.6574 100.231C79.4832 100.606 80.6204 100.866 81.9711 100.866C83.4375 100.866 84.6435 100.553 85.4971 99.9454C86.3506 99.3377 86.8157 98.4344 86.8157 97.3928C86.8157 96.2164 86.3269 95.3705 85.6067 94.8114C84.8865 94.2524 83.9773 93.9642 83.1123 93.7323C82.2474 93.5003 81.415 93.3198 80.8579 93.0656C80.3008 92.8114 80.0386 92.5769 80.0386 92.0367C80.0386 91.7445 80.1722 91.377 80.5118 91.087C80.8513 90.7969 81.4052 90.5618 82.3261 90.5618C83.0618 90.5618 83.6087 90.7097 84.0464 90.8662C84.2653 90.9445 84.4555 91.0263 84.6361 91.0946C84.8166 91.1627 84.9831 91.23 85.2223 91.23C85.6543 91.23 85.9504 90.9807 86.1268 90.749C86.3033 90.5174 86.4051 90.289 86.4051 90.0276C86.4051 89.7001 86.1723 89.468 85.9146 89.294C85.6569 89.1199 85.3339 88.9817 84.9596 88.8617C84.2109 88.6217 83.2562 88.4659 82.2981 88.4659L82.2983 88.4659ZM43.2381 88.6105C42.5158 88.6105 41.8918 89.0068 41.8918 89.5968V95.9819C41.8918 98.5721 44.4085 100.866 47.5295 100.866C50.5979 100.866 53.1672 98.5991 53.1672 95.9819V89.574C53.1672 89.2787 52.9816 89.0226 52.7376 88.8602C52.4936 88.6977 52.1836 88.6105 51.847 88.6105C51.5103 88.6105 51.1986 88.6966 50.9494 88.8556C50.7002 89.0146 50.5006 89.2687 50.5006 89.574V95.9819C50.5006 97.3396 49.1484 98.6531 47.5296 98.6531C45.8839 98.6531 44.5585 97.3163 44.5585 95.9819V89.5968C44.5585 89.2909 44.3676 89.0552 44.1306 88.8875C43.8936 88.7198 43.584 88.6105 43.2382 88.6105L43.2381 88.6105ZM74.1437 88.6105C73.806 88.6105 73.4931 88.6866 73.2443 88.851C72.9956 89.0154 72.8251 89.286 72.8251 89.574V101.338C72.8251 102.221 72.7544 102.962 72.5329 103.41C72.3114 103.858 72.05 104.057 71.303 104.057C70.6431 104.057 70.0923 104.561 70.0923 105.165C70.0923 105.416 70.1848 105.691 70.4193 105.906C70.6539 106.121 71.018 106.247 71.4387 106.247C72.8586 106.247 73.945 105.696 74.5924 104.801C75.2398 103.906 75.4917 102.709 75.4917 101.338V89.5739C75.4917 89.2674 75.2916 89.0007 75.0377 88.8433C74.7838 88.686 74.472 88.6104 74.1436 88.6104L74.1437 88.6105ZM60.73 90.5375C62.5035 90.5375 63.701 91.8366 63.701 93.1599C63.701 93.3041 63.6833 93.3986 63.6662 93.4415C63.6492 93.4845 63.6508 93.4789 63.6262 93.4933C63.5771 93.522 63.3034 93.5831 62.7791 93.5831H57.7589V93.0641C57.7589 91.6791 59.081 90.5374 60.7299 90.5374L60.73 90.5375ZM69.2013 97.8403C68.2326 97.8403 67.4984 98.5417 67.4984 99.3533C67.4984 100.133 68.2216 100.843 69.2013 100.843C70.1294 100.843 70.8765 100.154 70.8765 99.3533C70.8765 98.5217 70.117 97.8403 69.2013 97.8403Z" fill="#35495E"/>
<path d="M27.9688 6.41309L45.5399 6.4189L57.0259 23.1011L68.4714 6.42024L86.0273 6.41616L57.1137 50.3007L27.9688 6.41309Z" fill="#35495E"/>
<path d="M8.80469 6.53038L27.9526 6.41602L57.096 50.3025L86.0111 6.41869L105.193 6.43627L57.093 78.6647L8.80469 6.53038Z" fill="#41B883"/>
</svg>
