<svg width="90" height="89" viewBox="0 0 90 89" fill="none" xmlns="http://www.w3.org/2000/svg">
<g clip-path="url(#clip0_256_2942)">
<path d="M89.4128 0H0.0262028C0.0117314 0 0 0.0116738 0 0.0260742V88.9739C0 88.9883 0.0117314 89 0.0262028 89H89.4128C89.4272 89 89.439 88.9883 89.439 88.9739V0.0260742C89.439 0.0116738 89.4272 0 89.4128 0Z" fill="#F7DF1E"/>
<path d="M56.5991 64.3164C58.346 67.2715 60.7916 69.3574 64.8093 69.3574C68.303 69.3574 70.5739 67.6191 70.5739 65.1855C70.5739 62.4043 68.303 61.3613 64.46 59.623L62.3637 58.7539C56.2497 56.1465 52.232 53.0176 52.232 46.2383C52.232 39.9805 56.9485 35.1133 64.46 35.1133C69.8752 35.1133 73.7183 37.0254 76.3386 41.8926L69.8752 46.0645C68.4777 43.457 66.9055 42.4141 64.46 42.4141C62.0144 42.4141 60.4422 43.9785 60.4422 46.0645C60.4422 48.498 62.0144 49.541 65.6828 51.1055L67.779 51.9746C74.9411 55.1035 78.9588 58.0586 78.9588 65.1855C78.9588 72.6602 73.0195 76.832 64.984 76.832C57.1232 76.832 52.0573 73.1816 49.6117 68.3145L56.5991 64.3164ZM26.9026 65.0117C28.3001 67.2715 29.3482 69.3574 32.3178 69.3574C35.1128 69.3574 36.8596 68.3145 36.8596 64.1426V35.2871H45.2446V63.7949C45.2446 72.4863 40.1787 76.3105 32.6672 76.3105C25.8545 76.3105 22.0114 72.834 20.0898 68.6621L26.9026 65.0117Z" fill="black"/>
</g>
<defs>
<clipPath id="clip0_256_2942">
<rect width="89.439" height="89" fill="white"/>
</clipPath>
</defs>
</svg>
