<svg width="115" height="114" viewBox="0 0 115 114" fill="none" xmlns="http://www.w3.org/2000/svg">
<path d="M47.4556 60.3999C47.4556 60.3999 44.549 62.1019 49.5275 62.6772C55.5584 63.3701 58.6411 63.2704 65.2863 62.0066C65.2863 62.0066 67.0378 63.1083 69.4771 64.063C54.576 70.4871 35.7523 63.6907 47.4556 60.3999ZM45.6332 52.0146C45.6332 52.0146 42.3726 54.4452 47.3547 54.9635C53.798 55.6324 58.8845 55.6876 67.6928 53.9811C67.6928 53.9811 68.908 55.2245 70.8224 55.9022C52.8094 61.205 32.7457 56.3199 45.6332 52.0146Z" fill="#0074BD"/>
<path d="M60.9838 37.7905C64.6577 42.0459 60.0208 45.872 60.0208 45.872C60.0208 45.872 69.3433 41.0297 65.0622 34.9636C61.0626 29.309 57.9976 26.5009 74.5953 16.8145C74.5962 16.8145 48.5405 23.3605 60.9838 37.7905Z" fill="#EA2D2E"/>
<path d="M80.6915 66.6022C80.6915 66.6022 82.844 68.3879 78.3213 69.7684C69.722 72.3895 42.5254 73.1804 34.9713 69.8726C32.2577 68.6836 37.3495 67.0341 38.9506 66.6877C40.6207 66.3234 41.5749 66.3902 41.5749 66.3902C38.555 64.25 22.0546 70.5931 33.1941 72.4126C63.5733 77.3672 88.5705 70.1807 80.6915 66.6022ZM48.8555 43.3266C48.8555 43.3266 35.0227 46.6335 43.9575 47.8358C47.7314 48.3435 55.2492 48.2268 62.2572 47.6354C67.9828 47.1518 73.7287 46.1178 73.7287 46.1178C73.7287 46.1178 71.7116 46.9888 70.2503 47.9917C56.2007 51.71 29.0652 49.9778 36.8778 46.1766C43.4831 42.9605 48.8555 43.3266 48.8555 43.3266ZM73.6711 57.2827C87.9518 49.8175 81.3483 42.6426 76.7397 43.6089C75.613 43.8458 75.1067 44.0507 75.1067 44.0507C75.1067 44.0507 75.5271 43.388 76.3264 43.1039C85.4444 39.8799 92.455 52.6167 73.3861 57.6612C73.3861 57.6612 73.6048 57.4617 73.6711 57.2827Z" fill="#0074BD"/>
<path d="M65.0636 1.16895C65.0636 1.16895 72.9717 9.13024 57.5617 21.3701C45.2044 31.191 54.7437 36.7895 57.5564 43.1886C50.3431 36.639 45.0521 30.8731 48.6013 25.5079C53.8135 17.633 68.2534 13.8131 65.0636 1.16895Z" fill="#EA2D2E"/>
<path d="M50.2607 77.5193C63.9652 78.401 85.0167 77.0285 85.5149 70.5029C85.5149 70.5029 84.5573 72.9762 74.1869 74.9391C62.488 77.155 48.0569 76.8976 39.5 75.4762C39.5 75.4762 41.2524 76.9368 50.2607 77.5193Z" fill="#0074BD"/>
<path d="M84.8796 89.2241H84.4619V88.989H85.5859V89.2241H85.1699V90.3971H84.8787L84.8796 89.2241ZM87.1233 89.2829H87.118L86.7038 90.3971H86.5126L86.101 89.2829H86.0966V90.3971H85.8205V88.989H86.2249L86.6064 89.9856L86.9888 88.989H87.3906V90.3971H87.1233V89.2829ZM48.0119 102.455C46.7197 103.583 45.3532 104.217 44.1256 104.217C42.3784 104.217 41.4305 103.161 41.4305 101.469C41.4305 99.6391 42.4448 98.2987 46.5091 98.2987H48.011V102.455H48.0119ZM51.5796 106.506V93.9685C51.5796 90.7631 49.7626 88.6488 45.3868 88.6488C42.8325 88.6488 40.5932 89.2847 38.7726 90.0933L39.2966 92.3137C40.7304 91.7838 42.5846 91.2921 44.4044 91.2921C46.9268 91.2921 48.011 92.3137 48.011 94.428V96.0124H46.7507C40.6251 96.0124 37.861 98.4038 37.861 102C37.861 105.099 39.6825 106.859 43.1122 106.859C45.316 106.859 46.9631 105.944 48.5005 104.603L48.7802 106.507H51.5796V106.506ZM63.4856 106.506H59.0364L53.6808 88.9703H57.5672L60.8915 99.7459L61.6305 102.983C63.3086 98.3005 64.4982 93.5463 65.0929 88.9712H68.8731C67.8614 94.7433 66.0382 101.082 63.4856 106.506ZM80.5569 102.455C79.2603 103.583 77.8929 104.217 76.6697 104.217C74.9208 104.217 73.9738 103.161 73.9738 101.469C73.9738 99.6391 74.9907 98.2987 79.0505 98.2987H80.5561V102.455H80.5569ZM84.1264 106.506V93.9685C84.1264 90.7631 82.3041 88.6488 77.9318 88.6488C75.3748 88.6488 73.1365 89.2847 71.3159 90.0933L71.8407 92.3137C73.2746 91.7838 75.1314 91.2921 76.9511 91.2921C79.4701 91.2921 80.5569 92.3137 80.5569 94.428V96.0124H79.2966C73.1692 96.0124 70.406 98.4038 70.406 102C70.406 105.099 72.2257 106.859 75.6545 106.859C77.8592 106.859 79.5037 105.944 81.0455 104.603L81.3269 106.507H84.1264V106.506ZM33.949 109.486C32.9338 110.981 31.2893 112.165 29.4909 112.832L27.7305 110.743C29.0997 110.036 30.2724 108.895 30.8185 107.832C31.2893 106.885 31.4849 105.668 31.4849 102.754V82.7314H35.2766V102.479C35.2766 106.376 34.9686 107.951 33.949 109.486Z" fill="#EA2D2E"/>
</svg>
