<svg width="295" height="79" viewBox="0 0 295 79" fill="none" xmlns="http://www.w3.org/2000/svg">
<rect width="295" height="79" rx="10" fill="white"/>
<path fill-rule="evenodd" clip-rule="evenodd" d="M73.7481 20.3145C61.6113 20.3145 52.2031 28.3867 52.2031 39.2896C52.2031 44.9924 54.7772 49.9206 58.9693 53.3244C59.3211 53.6105 59.5338 54.011 59.5484 54.4399L59.6658 57.9195C59.7035 59.0296 60.966 59.7515 62.0847 59.3035L66.3609 57.5894C66.7234 57.4441 67.1295 57.4172 67.5114 57.5126C69.4763 58.0031 71.5678 58.2648 73.7481 58.2648C85.885 58.2648 95.2931 50.1925 95.2931 39.2896C95.2931 28.3867 85.885 20.3145 73.7481 20.3145Z" fill="url(#paint0_radial_256_3045)"/>
<path d="M67.012 35.5979L60.7336 44.6406C60.5303 44.9357 60.5315 45.2433 60.6569 45.4965C60.7811 46.11 61.6138 46.5424 62.292 46.0754L69.0899 41.3908C69.5499 41.0739 70.1855 41.0724 70.6471 41.3869L75.6811 44.8146C77.1914 45.8431 79.3475 45.4817 80.3542 44.0317L86.6831 34.9148C87.1031 34.3099 86.6666 33.6519 86.0572 33.51C85.7343 33.3329 85.3078 33.3119 84.9296 33.5744L78.1843 38.2213C77.7272 38.5343 77.097 38.5343 76.6398 38.2213L71.647 34.8216C71.5773 34.7743 71.5058 34.7294 71.432 34.6872C69.9343 33.8306 67.9555 34.2381 67.012 35.5979Z" fill="white"/>
<path d="M115.341 48.3746L110.209 36.0785V48.3746H106.156V29.5479H111.29L116.828 42.8237L122.334 29.5479H127.4V48.3746H123.311V36.0785L118.28 48.3746H115.341Z" fill="#000008"/>
<path fill-rule="evenodd" clip-rule="evenodd" d="M143.032 43.8972C142.491 46.8108 140.128 48.6856 136.345 48.6856C131.955 48.6856 129.016 45.767 129.016 41.5362C129.016 37.3966 132.056 34.3619 136.276 34.3619C140.7 34.3619 143.131 37.1516 143.131 41.1688V42.3336H133.069C133.206 44.3871 134.487 45.6146 136.344 45.6146C137.763 45.6146 138.809 45.0621 139.148 43.8972H143.032ZM133.171 40.0338H139.013C138.98 38.5927 138.034 37.4578 136.312 37.4578C134.69 37.4578 133.542 38.3478 133.171 40.0338Z" fill="#000008"/>
<path d="M150.696 45.7957C149.448 45.7957 148.502 45.2768 148.163 44.2957L144.01 44.2994C144.449 47.0891 147.05 48.684 150.731 48.684C154.242 48.684 156.91 47.0279 156.91 44.2382C156.91 42.1534 155.525 40.8348 152.892 40.2523L149.785 39.6073C148.839 39.3936 148.435 39.0861 148.435 38.535C148.435 37.6763 149.413 37.2476 150.426 37.2476C151.811 37.2476 152.515 37.8301 152.79 38.5962H156.775C156.269 36.0202 154.175 34.3654 150.359 34.3654C146.982 34.3654 144.347 36.1426 144.347 38.8112C144.347 41.1073 145.969 42.1861 148.271 42.6685L151.31 43.2809C152.351 43.5272 152.824 43.8333 152.824 44.4457C152.824 45.3357 151.981 45.7957 150.696 45.7957Z" fill="#000008"/>
<path d="M162.079 44.2957C162.416 45.2768 163.362 45.7957 164.612 45.7957C165.895 45.7957 166.739 45.3357 166.739 44.4457C166.739 43.8333 166.267 43.5272 165.225 43.2809L162.185 42.6685C159.883 42.1861 158.263 41.1073 158.263 38.8112C158.263 36.1426 160.896 34.3654 164.273 34.3654C168.089 34.3654 170.183 36.0202 170.689 38.5962H166.706C166.43 37.8301 165.725 37.2476 164.341 37.2476C163.327 37.2476 162.349 37.6763 162.349 38.535C162.349 39.0861 162.753 39.3936 163.699 39.6073L166.806 40.2523C169.441 40.8348 170.824 42.1534 170.824 44.2382C170.824 47.0279 168.156 48.684 164.645 48.684C160.964 48.684 158.363 47.0891 157.924 44.2994L162.079 44.2957Z" fill="#000008"/>
<path fill-rule="evenodd" clip-rule="evenodd" d="M179.198 48.6858C182.977 48.6858 185.345 46.8109 185.886 43.8973L182.001 43.9024C181.664 45.0673 180.618 45.6198 179.198 45.6198C177.341 45.6198 176.061 44.3923 175.923 42.3389H185.986V41.174C185.986 37.1568 183.555 34.3671 179.131 34.3671C174.91 34.3671 171.871 37.4018 171.871 41.5414C171.871 45.7722 174.809 48.6858 179.198 48.6858ZM181.866 40.034H176.024C176.395 38.3479 177.544 37.4579 179.165 37.4579C180.887 37.4579 181.833 38.5928 181.866 40.034Z" fill="#000008"/>
<path d="M187.642 34.6681H191.83V35.9255C192.641 35.0668 194.126 34.3619 195.883 34.3619C199.294 34.3619 201.218 36.3855 201.218 39.4201V48.374H197.031V40.2176C197.031 38.7764 196.22 37.7953 194.565 37.7953C193.282 37.7953 192.169 38.5002 191.83 39.6964V48.374H187.642V34.6681Z" fill="#000008"/>
<path fill-rule="evenodd" clip-rule="evenodd" d="M209.59 48.0669C211.242 48.0669 212.631 47.3932 213.307 46.657L213.309 47.4507C213.309 49.658 212.194 50.7929 210.066 50.7929C208.446 50.7929 207.433 50.1479 207.096 48.8606H203.043C203.479 51.9251 206.147 53.735 210.063 53.735C214.319 53.735 217.46 51.553 217.46 46.8608V34.6583H213.307V35.7306C212.63 35.0294 211.242 34.3558 209.59 34.3558C205.233 34.3558 202.735 37.5443 202.735 41.1926C202.735 44.8784 205.233 48.0669 209.59 48.0669ZM210.47 37.5504C211.618 37.5517 212.687 38.0828 213.307 38.9602V43.436C212.702 44.3327 211.627 44.8791 210.47 44.8784C208.241 44.8784 206.924 43.3448 206.924 41.1988C206.924 39.0827 208.241 37.5504 210.47 37.5504Z" fill="#000008"/>
<path fill-rule="evenodd" clip-rule="evenodd" d="M232.823 43.8973C232.282 46.8109 229.915 48.6858 226.137 48.6858C221.747 48.6858 218.807 45.7722 218.807 41.5414C218.807 37.4018 221.847 34.3671 226.069 34.3671C230.492 34.3671 232.923 37.1568 232.923 41.174V42.3389H222.86C222.998 44.3923 224.278 45.6198 226.137 45.6198C227.554 45.6198 228.601 45.0673 228.939 43.9024L232.823 43.8973ZM222.962 40.034H228.804C228.77 38.5928 227.824 37.4579 226.102 37.4579C224.482 37.4579 223.332 38.3479 222.962 40.034Z" fill="#000008"/>
<path d="M241.472 37.9491C242.202 37.9331 242.924 38.0919 243.566 38.409V34.612C243.329 34.4868 242.688 34.3619 241.979 34.3619C240.493 34.3619 239.243 35.0355 238.602 36.0167V34.6681H234.414V48.3791H238.602V39.8801C238.906 38.6227 240.054 37.9491 241.472 37.9491Z" fill="#000008"/>
<defs>
<radialGradient id="paint0_radial_256_3045" cx="0" cy="0" r="1" gradientUnits="userSpaceOnUse" gradientTransform="translate(60.6057 59.1426) scale(46.9681 42.6452)">
<stop stop-color="#0099FF"/>
<stop offset="0.61" stop-color="#A033FF"/>
<stop offset="0.93" stop-color="#FF5280"/>
<stop offset="1" stop-color="#FF7061"/>
</radialGradient>
</defs>
</svg>
