<svg width="143" height="144" viewBox="0 0 143 144" fill="none" xmlns="http://www.w3.org/2000/svg">
<path d="M2.21986 101.765H6.78066V83.5145L13.8417 99.4254C14.6743 101.351 15.8145 102.032 18.0516 102.032C20.2887 102.032 21.3856 101.351 22.2183 99.4254L29.2793 83.5145V101.765H33.8401V83.5449C33.8401 81.7674 33.1385 80.9068 31.6907 80.4635C28.2257 79.3678 25.9009 80.3161 24.8484 82.6865L17.9195 98.3893L11.2104 82.6854C10.2013 80.3161 7.83315 79.3678 4.36814 80.4624C2.92041 80.9068 2.21875 81.7663 2.21875 83.5438V101.765H2.21986ZM37.6338 86.9086H42.1934V96.9639C42.1513 97.5095 42.3666 98.792 44.8646 98.8325C46.1392 98.8528 54.7034 98.8325 54.7834 98.8325V86.8591H59.3542C59.3753 86.8591 59.3497 103.187 59.3497 103.255C59.3741 107.282 54.4192 108.157 52.1344 108.224H37.7326V105.115C37.757 105.115 52.1244 105.118 52.1599 105.113C55.0965 104.8 54.749 103.321 54.7478 102.824V101.611H45.0545C40.5448 101.57 37.6715 99.575 37.6349 97.28C37.6327 97.0696 37.7337 87.0099 37.6338 86.9086Z" fill="#00618A"/>
<path d="M62.8711 101.766H75.9851C77.5205 101.766 79.0126 101.441 80.1961 100.878C82.169 99.9601 83.1338 98.7158 83.1338 97.0846V93.7073C83.1338 92.3742 82.038 91.1288 79.8886 90.3008C78.7484 89.8553 77.344 89.6202 75.9839 89.6202H70.4572C68.6154 89.6202 67.7383 89.0577 67.5196 87.8134C67.4763 87.6649 67.4763 87.5468 67.4763 87.3983V85.2946C67.4763 85.1764 67.4763 85.0572 67.5196 84.9098C67.7383 83.9614 68.2213 83.6948 69.8444 83.5463L70.2829 83.5171H83.3092V80.4368H70.5028C68.6609 80.4368 67.6961 80.5549 66.819 80.8216C64.1001 81.6811 62.9144 83.0434 62.9144 85.4138V88.1093C62.9144 90.1838 65.2403 91.9613 69.1427 92.3764C69.5824 92.4046 70.0198 92.4361 70.4584 92.4361H75.1957C75.3711 92.4361 75.5465 92.4361 75.6786 92.4642C77.1264 92.5823 77.7392 92.8501 78.1789 93.3822C78.442 93.6488 78.5286 93.9166 78.5286 94.2113V96.9079C78.5286 97.2331 78.3099 97.6482 77.8713 98.0037C77.4772 98.3592 76.8188 98.5966 75.9418 98.6562L75.4588 98.6854H62.8711V101.766ZM111.589 96.4039C111.589 99.5731 113.914 101.351 118.605 101.707C119.044 101.736 119.482 101.766 119.921 101.766H131.807V98.6854H119.834C117.159 98.6854 116.151 98.0037 116.151 96.3736V80.4346H111.59V96.4039H111.589ZM86.0448 96.5637V85.5781C86.0448 82.7881 87.9788 81.0949 91.8024 80.5606C92.1976 80.5009 92.6384 80.4717 93.0325 80.4717H101.691C102.131 80.4717 102.526 80.5009 102.965 80.5606C106.788 81.0949 108.723 82.7869 108.723 85.5781V96.5637C108.723 98.8294 107.902 100.04 106.009 100.83L110.503 104.939H105.206L101.571 101.614L97.912 101.849H93.0325C92.1976 101.849 91.3195 101.731 90.3525 101.463C87.4514 100.662 86.0448 99.1174 86.0448 96.5637ZM90.9675 96.2971C90.9675 96.4456 91.0108 96.5952 91.0552 96.7729C91.3183 98.0498 92.5063 98.7619 94.3071 98.7619H98.4504L94.6446 95.2801H99.9414L103.26 98.3176C103.873 97.9857 104.275 97.4817 104.416 96.8326C104.459 96.6841 104.459 96.5356 104.459 96.3871V85.8481C104.459 85.7299 104.459 85.5803 104.416 85.4318C104.151 84.2438 102.965 83.5621 101.207 83.5621H94.306C92.2853 83.5621 90.9664 84.4531 90.9664 85.8481V96.2971H90.9675Z" fill="#E48E00"/>
<path d="M135.821 75.3213C133.017 75.2437 130.876 75.508 129.044 76.2899C128.523 76.5127 127.694 76.5183 127.609 77.1787C127.895 77.4835 127.939 77.9369 128.167 78.3104C128.604 79.027 129.342 79.9878 130.001 80.4907C130.719 81.0408 131.461 81.6303 132.233 82.1073C133.605 82.9555 135.137 83.4393 136.459 84.2875C137.237 84.7893 138.01 85.4193 138.77 85.9852C139.147 86.263 139.398 86.6984 139.887 86.8728V86.7929C139.631 86.4622 139.564 86.0077 139.329 85.6612L138.292 84.6104C137.278 83.2469 135.993 82.051 134.624 81.0565C133.534 80.2634 131.093 79.1913 130.638 77.9054L130.558 77.8255C131.331 77.7367 132.237 77.4532 132.95 77.2597C134.149 76.9334 135.22 77.0178 136.458 76.6938L138.132 76.2078V75.886C137.507 75.2358 137.06 74.374 136.378 73.7857C134.594 72.2455 132.644 70.7065 130.638 69.4218C129.526 68.7108 128.15 68.2484 126.97 67.6454C126.575 67.4418 125.877 67.3372 125.614 66.9985C124.994 66.1987 124.657 65.185 124.179 64.2524C123.18 62.3005 122.196 60.1675 121.309 58.1122C120.705 56.7115 120.31 55.33 119.556 54.0734C115.935 48.0423 112.039 44.4018 106.002 40.8243C104.718 40.0627 103.171 39.7634 101.538 39.3708L98.9068 39.2088C98.3728 38.9827 97.8155 38.3189 97.3125 37.9972C95.3119 36.7169 90.1827 33.9325 88.7016 37.5944C87.7668 39.9052 90.1005 42.1597 90.9343 43.3308C91.5194 44.152 92.2699 45.0723 92.6884 45.9959C92.9638 46.6034 93.0104 47.212 93.2469 47.8544C93.8253 49.4362 94.3305 51.1585 95.0799 52.6199C95.4585 53.3602 95.877 54.1398 96.3555 54.8013C96.6486 55.2063 97.1527 55.3863 97.2315 56.0129C96.7397 56.7104 96.7108 57.7949 96.4343 58.678C95.1887 62.6594 95.6583 67.6083 97.4713 70.5547C98.0275 71.4603 99.3376 73.3998 101.138 72.655C102.714 72.0048 102.363 69.9899 102.814 68.2113C102.916 67.8097 102.853 67.5127 103.052 67.2427V67.3237L104.488 70.2318C105.55 71.9654 107.434 73.7755 109.032 74.9984C109.86 75.6318 110.513 76.7287 111.583 77.0988V77.0167H111.505C111.296 76.6893 110.973 76.5543 110.706 76.2899C110.082 75.67 109.388 74.9005 108.873 74.1895C107.42 72.1915 106.137 70.0034 104.966 67.7264C104.408 66.6397 103.923 65.4404 103.452 64.3334C103.27 63.907 103.272 63.2613 102.895 63.0419C102.377 63.8519 101.619 64.5078 101.219 65.4652C100.582 66.9952 100.5 68.8615 100.263 70.7965L100.104 70.8764C98.9923 70.6053 98.6026 69.4465 98.1896 68.4532C97.146 65.941 96.9517 61.8944 97.871 59.002C98.1086 58.2528 99.1821 55.8959 98.7469 55.204C98.5393 54.5144 97.8543 54.1162 97.4724 53.5874C96.9983 52.936 96.5243 52.0788 96.1968 51.325C95.3419 49.3664 94.9433 47.167 94.0451 45.1859C93.6144 44.2387 92.8883 43.2813 92.291 42.4398C91.6304 41.506 90.8899 40.8198 90.377 39.6925C90.1949 39.292 89.9473 38.6497 90.2171 38.2379C90.3026 37.96 90.4258 37.8442 90.6967 37.753C91.1586 37.3919 92.4464 37.8734 92.9283 38.0759C94.2072 38.6148 95.2742 39.1267 96.3577 39.8534C96.8773 40.2033 97.4025 40.8783 98.032 41.065H98.7492C99.8716 41.326 101.129 41.1449 102.178 41.4678C104.032 42.0393 105.692 42.9269 107.2 43.8922C111.795 46.8329 115.551 51.0179 118.123 56.0107C118.536 56.815 118.715 57.5812 119.078 58.4339C119.813 60.1529 120.739 61.9225 121.47 63.6044C122.199 65.2818 122.911 66.9749 123.942 68.371C124.484 69.1045 126.578 69.4983 127.529 69.9055C128.197 70.1913 129.289 70.4894 129.921 70.8742C131.128 71.6122 132.298 72.4908 133.429 73.2985C133.994 73.7058 135.734 74.5912 135.821 75.3213ZM100.184 44.5424C99.5996 44.5312 99.1855 44.6077 98.748 44.7044V44.7843H98.828C99.1066 45.3659 99.5985 45.7394 99.9438 46.2389L100.742 47.9354L100.821 47.8555C101.315 47.5034 101.54 46.9398 101.538 46.078C101.339 45.8665 101.31 45.6022 101.139 45.3513C100.913 45.0138 100.471 44.8248 100.184 44.5424Z" fill="#00618A"/>
</svg>
