<svg width="127" height="153" viewBox="0 0 127 153" fill="none" xmlns="http://www.w3.org/2000/svg">
<path d="M54.9222 91.4688H63.1386L58.7932 84.3788L50.8185 97.1978H47.189L56.8893 81.7998C57.3113 81.1778 58.0133 80.8018 58.7932 80.8018C59.5475 80.8018 60.2506 81.1648 60.6588 81.7738L70.3965 97.1978H66.7671L65.0554 94.3328H56.7355L54.9222 91.4688V91.4688ZM92.622 94.3328V80.9578H89.5427V95.6428C89.5427 96.0448 89.6965 96.4338 89.9904 96.7318C90.2842 97.0298 90.6806 97.1978 91.1154 97.1978H105.16L106.975 94.3328H92.622V94.3328ZM41.6684 91.9358C44.6589 91.9358 47.0874 89.4868 47.0874 86.4538C47.0874 83.4208 44.6599 80.9578 41.6684 80.9578H28.1946V97.1988H31.2739V83.8218H41.4643C42.8959 83.8218 44.0456 85.0018 44.0456 86.4528C44.0456 87.9038 42.8949 89.0838 41.4643 89.0838L32.7815 89.0708L41.975 97.1978H46.4495L40.2633 91.9348H41.6684V91.9358ZM9.24269 97.1978C4.82244 97.1978 1.23438 93.5688 1.23438 89.0838C1.23438 84.5988 4.82145 80.9568 9.24269 80.9568H18.5496C22.9718 80.9568 26.5569 84.5998 26.5569 89.0838C26.5569 93.5678 22.9718 97.1978 18.5496 97.1978H9.24269ZM18.3425 94.3328C21.2068 94.3328 23.5269 91.9868 23.5269 89.0838C23.5269 86.1808 21.2068 83.8208 18.3425 83.8208H9.44777C6.5864 83.8208 4.26535 86.1798 4.26535 89.0838C4.26535 91.9868 6.5864 94.3328 9.44777 94.3328H18.3425ZM76.8262 97.1978C72.405 97.1978 68.814 93.5688 68.814 89.0838C68.814 84.5988 72.405 80.9568 76.8262 80.9568H87.8813L86.0779 83.8208H77.0313C74.168 83.8208 71.841 86.1798 71.841 89.0838C71.841 91.9868 74.168 94.3328 77.0313 94.3328H88.1367L86.3224 97.1978H76.8262V97.1978ZM114.489 94.3328C112.125 94.3328 110.118 92.7258 109.504 90.5088H122.667L124.482 87.6448H109.504C110.118 85.4418 112.125 83.8208 114.489 83.8208H123.523L125.351 80.9568H114.283C109.862 80.9568 106.271 84.5998 106.271 89.0838C106.271 93.5678 109.862 97.1978 114.283 97.1978H123.78L125.595 94.3328H114.489" fill="#EA1B22"/>
<g clip-path="url(#clip0_455_2297)">
<path d="M117.074 0H43.375V42H117.074C120.644 42 123.539 39.0618 123.539 35.4375V6.5625C123.539 2.93814 120.644 0 117.074 0Z" fill="#0F1418"/>
<path d="M43.3749 0H9.75779C6.18737 0 3.29297 2.93814 3.29297 6.5625V35.4375C3.29297 39.0618 6.18737 42 9.75779 42H43.3749V0Z" fill="url(#paint0_linear_455_2297)"/>
<path d="M37.0178 7.875C36.9385 7.87556 36.8594 7.88423 36.7817 7.90084L36.7793 7.89849L24.8693 9.5481V19.9063H38.203V9.07813C38.203 8.75903 38.0781 8.45301 37.8559 8.22739C37.6336 8.00176 37.3321 7.875 37.0178 7.875ZM22.4896 9.87473L10.7879 11.4961C10.5032 11.5343 10.2417 11.6761 10.0523 11.8953C9.86279 12.1144 9.75815 12.3959 9.75781 12.6875V19.9063H22.4896V9.87473ZM9.75781 22.3125V29.5312C9.75807 29.8295 9.86739 30.1169 10.0646 30.3378C10.2617 30.5588 10.5327 30.6977 10.825 30.7273L22.4896 32.3441V22.3125H9.75781ZM24.8693 22.3125V32.6706L36.7793 34.3203C36.7801 34.3203 36.7809 34.3203 36.7817 34.3203C36.8594 34.336 36.9385 34.3439 37.0178 34.3438C37.3321 34.3438 37.6336 34.217 37.8559 33.9914C38.0781 33.7658 38.203 33.4597 38.203 33.1406V22.3125H24.8693Z" fill="white"/>
<path d="M81.1131 15.0898L77.524 28.8749H74.1337L71.8799 20.0309C71.76 19.5695 71.6874 19.0536 71.6621 18.4832H71.6242C71.5674 19.1112 71.4853 19.6272 71.378 20.0309L69.0674 28.8749H65.5351L61.9648 15.0898H65.3078L67.2207 24.2703C67.3027 24.6612 67.3627 25.1866 67.4006 25.8468H67.4575C67.4827 25.3533 67.5742 24.8149 67.7321 24.2318L70.1943 15.0898H73.4709L75.6963 24.3472C75.7784 24.6868 75.851 25.1803 75.9141 25.8275H75.952C75.9772 25.3213 76.0435 24.8086 76.1509 24.2894L78.0259 15.0898H81.1131ZM86.8101 24.126V28.8749H83.7513V15.0898H88.543C91.9649 15.0898 93.6757 16.5542 93.6757 19.4829C93.6757 20.8672 93.1833 21.9887 92.1985 22.8475C91.2198 23.6998 89.9098 24.126 88.2684 24.126H86.8101ZM86.8101 17.4739V21.7709H88.0127C89.6415 21.7709 90.456 21.0466 90.456 19.5983C90.456 18.182 89.6415 17.4739 88.0127 17.4739H86.8101ZM104.43 17.618H99.6378V21.0019H104.041V23.5204H99.6378V28.8749H96.5791V15.0898H104.43V17.618Z" fill="white"/>
<path d="M117.074 0H9.75779C6.18737 0 3.29297 2.93814 3.29297 6.5625V35.4375C3.29297 39.0618 6.18737 42 9.75779 42H117.074C120.644 42 123.539 39.0618 123.539 35.4375V6.5625C123.539 2.93814 120.644 0 117.074 0Z" fill="url(#paint1_linear_455_2297)"/>
</g>
<defs>
<linearGradient id="paint0_linear_455_2297" x1="43.3749" y1="1.2517e-06" x2="2.67258" y2="41.3899" gradientUnits="userSpaceOnUse">
<stop stop-color="#23CAF6"/>
<stop offset="1" stop-color="#0575BD"/>
</linearGradient>
<linearGradient id="paint1_linear_455_2297" x1="3.29297" y1="0" x2="3.29297" y2="42" gradientUnits="userSpaceOnUse">
<stop stop-color="#BBBBBB" stop-opacity="0.1"/>
<stop offset="1" stop-opacity="0.1"/>
</linearGradient>
<clipPath id="clip0_455_2297">
<rect width="120.246" height="42" fill="white" transform="translate(3.29297)"/>
</clipPath>
</defs>
</svg>
