<svg width="137" height="121" viewBox="0 0 137 121" fill="none" xmlns="http://www.w3.org/2000/svg">
<path d="M15.086 101.566H9.15922V96.0819H15.4194C17.7097 96.0819 18.8574 97.0087 18.8574 98.8662C18.8574 100.666 17.6041 101.566 15.0975 101.566H15.086ZM19.3651 96.0304C18.5508 95.361 17.4132 95.0264 15.95 95.0264L7.44531 95.0701V108.2H9.15922L9.14396 102.616H15.4716C17.0582 102.616 18.309 102.281 19.2188 101.612C20.1285 100.942 20.5866 100.016 20.5866 98.8276C20.5866 97.6395 20.1794 96.7126 19.3651 96.0433V96.0304ZM30.4565 105.422C30.2865 105.86 30.0062 106.244 29.6435 106.538C28.8762 107.225 27.7056 107.568 26.1317 107.568C24.7091 107.568 23.6174 107.233 22.8565 106.564C22.0956 105.894 21.7139 105.001 21.7139 103.88C21.7139 103.297 21.8132 102.778 22.0129 102.326C22.208 101.881 22.5045 101.488 22.8782 101.181C23.667 100.522 24.7486 100.192 26.1317 100.192C29.1905 100.192 30.7199 101.421 30.7199 103.879C30.7199 104.463 30.6308 104.975 30.4591 105.418L30.4565 105.422ZM30.7695 100.578C29.7262 99.7029 28.1789 99.2652 26.1317 99.2652C24.1976 99.2652 22.7013 99.7119 21.6478 100.604C20.696 101.412 20.2201 102.503 20.2201 103.874C20.2201 105.244 20.7113 106.336 21.6961 107.173C22.2529 107.631 22.8995 107.965 23.5932 108.152C24.3147 108.354 25.1621 108.455 26.1342 108.455C28.17 108.455 29.7224 108.022 30.7873 107.157C31.7391 106.368 32.215 105.273 32.215 103.872C32.215 102.463 31.734 101.362 30.7708 100.573L30.7695 100.578ZM43.7301 105.801C43.7301 107.567 42.0073 108.448 38.5604 108.448C37.5068 108.448 36.62 108.387 35.8985 108.264C35.1771 108.142 34.5918 107.937 34.1426 107.654C33.7953 107.438 33.5064 107.156 33.3156 106.808C33.0997 106.402 32.9644 105.957 32.9173 105.498L34.5205 105.485C34.5205 106.18 34.8005 106.691 35.3629 107.021C35.9647 107.416 37.0322 107.613 38.5629 107.613C40.9716 107.613 42.1765 107.059 42.1765 105.94C42.1765 105.292 41.7732 104.845 40.9652 104.601C40.7998 104.553 39.8277 104.43 38.0425 104.215L34.7063 103.674C33.7558 103.326 33.2812 102.702 33.2812 101.8C33.2812 100.917 33.7062 100.259 34.5562 99.8278C34.9761 99.6475 35.5003 99.5111 36.1301 99.412C36.76 99.3129 37.489 99.2639 38.3186 99.2639C41.6358 99.2639 43.281 100.219 43.281 102.131H41.7541C41.7541 100.788 40.5886 100.116 38.255 100.116C37.0691 100.116 36.1836 100.253 35.6008 100.524C35.0181 100.796 34.7267 101.214 34.7267 101.778C34.7267 102.293 35.1084 102.684 35.9075 102.918C36.3681 103.041 37.4267 103.182 39.0833 103.341C40.567 103.463 41.5836 103.637 42.1371 103.862C43.1906 104.238 43.7174 104.876 43.7174 105.777L43.7301 105.801ZM50.0259 108.192L49.3732 108.276L48.966 108.304C47.9227 108.304 47.1694 108.165 46.7075 107.887C46.2456 107.609 46.0153 107.123 46.0153 106.426V100.44H44.1131V99.56H46.0001L46.0153 96.732H47.4786V99.56H50.0234V100.455L47.4786 100.442V106.265C47.4786 106.699 47.6033 106.999 47.8552 107.164C48.1071 107.328 48.555 107.411 49.1976 107.411C49.2892 107.42 49.3923 107.417 49.503 107.402C49.6137 107.386 49.7829 107.35 50.0094 107.296L50.0246 108.195L50.0259 108.192ZM60.1376 106.207C59.7249 106.515 59.2631 106.748 58.7723 106.897C58.2608 107.057 57.673 107.137 57.0088 107.137C53.9512 107.137 52.4231 105.978 52.4231 103.661C52.4231 102.582 52.8137 101.737 53.5962 101.128C54.3788 100.519 55.4794 100.227 56.9007 100.227C58.3321 100.227 59.42 100.536 60.158 101.148C60.896 101.761 61.27 102.586 61.27 103.62C61.27 104.746 60.8921 105.615 60.1351 106.224L60.1376 106.207ZM62.7308 99.5819H61.2739L61.2586 101.062C60.6148 100.461 60.1542 100.081 59.878 99.9217C59.0599 99.5098 58.0013 99.3038 56.7022 99.3038C54.7987 99.3038 53.3469 99.69 52.3442 100.501C51.3925 101.235 50.9166 102.294 50.9166 103.683C50.9166 104.368 51.0375 104.981 51.278 105.52C51.5155 106.056 51.8763 106.526 52.3302 106.892C53.3481 107.662 54.7529 108.047 56.5876 108.047C58.7889 108.047 60.3539 107.493 61.2751 106.373V107.918C61.2751 108.896 60.9392 109.651 60.2572 110.186C59.5752 110.722 58.4848 110.989 56.949 110.989C55.5061 110.989 54.478 110.807 53.8647 110.442C53.4041 110.162 53.1013 109.675 52.913 108.984H51.409C51.5744 109.949 52.0198 110.65 52.745 111.082C53.5848 111.579 55.001 111.829 56.9974 111.829C60.8145 111.829 62.7231 110.526 62.7231 107.921V99.5536L62.7308 99.5819ZM70.6412 100.451C70.2352 100.388 69.8253 100.355 69.4146 100.353C67.0123 100.353 65.8112 101.563 65.8112 103.983V108.19H64.3658L64.3505 99.5819L65.8138 99.5948V101.13H65.8901C66.1132 100.551 66.5242 100.066 67.0556 99.7544C67.6384 99.4519 68.5061 99.3 69.664 99.3H70.6438V100.452L70.6412 100.451ZM72.0001 103.326C72.1846 102.348 72.5982 101.591 73.242 101.054C73.6619 100.746 74.1365 100.511 74.6671 100.356C75.1977 100.2 75.7969 100.124 76.4484 100.124C77.7462 100.124 78.8074 100.451 79.6294 101.105C80.4514 101.759 80.8636 102.499 80.8636 103.328H71.9823L72.0001 103.326ZM81.0061 100.672C80.4946 100.201 79.861 99.8522 79.1026 99.6269C78.3443 99.4017 77.4485 99.2871 76.4471 99.2871C74.5386 99.2871 73.0842 99.6913 72.0396 100.5C70.9949 101.308 70.4745 102.407 70.4745 103.799C70.4745 105.19 70.9758 106.294 71.9785 107.111C73.0626 108.012 74.5933 108.463 76.568 108.463C77.3569 108.463 78.0847 108.38 78.7565 108.205C79.4284 108.03 80.0124 107.81 80.5124 107.51C81.3929 106.931 81.9502 106.214 82.1856 105.363H80.6053C80.0633 106.834 78.7133 107.57 76.5553 107.57C75.031 107.57 73.8578 107.21 73.0435 106.489C72.3373 105.871 71.9849 105.073 71.9849 104.091H82.4185C82.4185 102.631 81.9528 101.486 81.0214 100.657L81.0061 100.672Z" fill="#231F20"/>
<path d="M97.8652 104.658C97.8652 107.214 95.6207 108.492 91.1292 108.492C88.438 108.492 86.4748 108.052 85.238 107.171C84.2252 106.448 83.7188 105.343 83.7188 103.86H85.5255C85.5255 106.246 87.3921 107.439 91.1279 107.439C92.9181 107.439 94.2134 107.181 95.0125 106.705C95.6869 106.274 96.0253 105.598 96.0253 104.678C96.0253 103.768 95.5647 103.129 94.6435 102.764C94.1345 102.567 92.8469 102.318 90.8212 102.017C88.2726 101.66 86.6223 101.304 85.8627 100.949C84.7685 100.423 84.2086 99.5326 84.2086 98.2737C84.2086 97.1152 84.6743 96.2141 85.6057 95.6554C86.6084 95.0273 88.3286 94.7119 90.764 94.7119C95.1665 94.7119 97.3652 96.0532 97.3652 98.7371H95.5418C95.5418 96.7264 93.9081 95.7224 90.6406 95.7224C89.0017 95.7224 87.8031 95.9245 87.0448 96.3274C86.3272 96.7599 85.9696 97.3932 85.9696 98.2299C85.9696 99.1052 86.4302 99.7193 87.3514 100.076C87.8426 100.282 89.2855 100.569 91.6801 100.936C93.9322 101.245 95.4515 101.608 96.2404 102.021C97.3155 102.528 97.8525 103.407 97.8525 104.657L97.8652 104.658ZM112.549 105.962C111.856 106.467 111.081 106.846 110.26 107.081C109.41 107.329 108.457 107.467 107.402 107.467C105.239 107.467 103.512 106.935 102.185 105.871C100.858 104.806 100.209 103.374 100.209 101.601C100.209 99.754 100.867 98.3149 102.181 97.2825C103.496 96.2502 105.241 95.7353 107.413 95.7353C109.614 95.7353 111.347 96.2759 112.607 97.3533C113.237 97.8407 113.742 98.4725 114.083 99.1966C114.414 99.9007 114.559 100.703 114.559 101.604C114.559 103.442 113.894 104.895 112.561 105.964L112.549 105.962ZM113.522 106.834C114.464 106.224 115.161 105.485 115.611 104.617C116.062 103.75 116.288 102.747 116.288 101.611C116.288 99.5751 115.55 97.9429 114.077 96.7123C113.288 96.0365 112.336 95.5345 111.221 95.2062C110.107 94.878 108.829 94.7132 107.399 94.7132C104.615 94.7132 102.431 95.3311 100.844 96.572C99.2572 97.8129 98.4645 99.4901 98.4645 101.611C98.4399 102.578 98.6452 103.536 99.063 104.406C99.4808 105.276 100.099 106.031 100.866 106.609C102.465 107.875 104.655 108.508 107.427 108.508C108.377 108.519 109.326 108.451 110.265 108.306C111.071 108.171 111.758 107.965 112.322 107.686L114.994 109.385L116.109 108.445L113.523 106.836L113.522 106.834ZM129.814 108.173H117.463V95.0427L119.16 95.0144V107.076H129.829L129.814 108.173Z" fill="#367FAF"/>
<path d="M86.7809 63.9178C87.267 59.818 87.1219 59.2168 90.14 59.881L90.906 59.9493C93.2269 60.0561 96.2501 59.5721 98.0467 58.7328C101.887 56.9307 104.163 53.9212 100.378 54.7115C91.742 56.5136 91.1478 53.5556 91.1478 53.5556C100.267 39.8671 104.079 22.4895 100.789 18.2339C91.8132 6.63203 76.2786 12.1195 76.0177 12.2611L75.935 12.2766C74.2275 11.9187 72.3189 11.705 70.1736 11.669C66.2674 11.6046 63.3002 12.7052 61.0506 14.4314C61.0506 14.4314 33.3379 2.87975 34.6256 28.9591C34.9004 34.4942 42.4864 70.9384 51.5331 59.9338C54.8413 55.9099 58.035 52.5065 58.035 52.5065C59.6217 53.5749 61.5214 54.1155 63.5139 53.9224L63.6666 53.7899C63.6183 54.2893 63.6412 54.7785 63.7277 55.3564C61.3967 57.9914 62.0825 58.4535 57.4217 59.4241C52.7075 60.4075 55.4775 62.1569 57.2856 62.6138C59.4779 63.1674 64.5509 63.9526 67.9762 59.0997L67.8401 59.6532C68.7562 60.3934 68.6926 64.9721 68.8224 68.2429C68.9522 71.5138 69.1685 74.5671 69.8403 76.3679C70.5121 78.1688 71.2781 82.8041 77.4021 81.4757C82.5209 80.3661 86.4336 78.7686 86.7924 63.9127" fill="#231F20"/>
<path d="M86.7809 63.9178C87.267 59.818 87.1219 59.2168 90.14 59.881L90.906 59.9493C93.2269 60.0561 96.2501 59.5721 98.0467 58.7328C101.887 56.9307 104.163 53.9212 100.378 54.7115C91.742 56.5136 91.1478 53.5556 91.1478 53.5556C100.267 39.8671 104.079 22.4895 100.789 18.2339C91.8132 6.63203 76.2786 12.1195 76.0178 12.2611L75.935 12.2766C74.2275 11.9187 72.3189 11.705 70.1736 11.669C66.2674 11.6046 63.3002 12.7052 61.0506 14.4314C61.0506 14.4314 33.3379 2.87975 34.6256 28.9591C34.9004 34.4942 42.4864 70.9384 51.5331 59.9338C54.8413 55.9099 58.035 52.5065 58.035 52.5065C59.6217 53.5749 61.5214 54.1155 63.5139 53.9224L63.6666 53.7899C63.6183 54.2893 63.6412 54.7785 63.7277 55.3564C61.3967 57.9914 62.0825 58.4535 57.4217 59.4241C52.7075 60.4075 55.4775 62.1569 57.2856 62.6138C59.4779 63.1674 64.5509 63.9526 67.9762 59.0997L67.8401 59.6532C68.7562 60.3934 68.6926 64.9721 68.8224 68.2429C68.9522 71.5138 69.1685 74.5671 69.8403 76.3679C70.5121 78.1688 71.2781 82.8041 77.4021 81.4757C82.5209 80.3661 86.4336 78.7686 86.7924 63.9127" stroke="#231F20" stroke-width="5.046"/>
<path d="M100.38 54.711C91.7431 56.5132 91.1489 53.5551 91.1489 53.5551C100.268 39.8654 104.08 22.4877 100.791 18.2334C91.8157 6.63285 76.2798 12.119 76.0202 12.2606L75.9362 12.2761C74.2287 11.9182 72.3201 11.7046 70.1723 11.6685C66.266 11.6041 63.3014 12.7047 61.0492 14.4309C61.0492 14.4309 33.334 2.88056 34.6216 28.9586C34.8952 34.4937 42.4812 70.9379 51.5292 59.9346C54.8374 55.9107 58.0184 52.5073 58.0184 52.5073C59.6051 53.5757 61.5047 54.1163 63.4973 53.9233L63.6525 53.7907C63.6042 54.2901 63.6271 54.7793 63.7162 55.3572C61.3851 57.9922 62.0697 58.4543 57.4102 59.4249C52.6947 60.4083 55.4634 62.1577 57.2728 62.6147C59.4651 63.1682 64.5381 63.9534 67.9634 59.1005L67.8273 59.654C68.7408 60.3942 69.3821 64.4683 69.274 68.1601C69.1658 71.8519 69.0958 74.3877 69.8147 76.3688C70.5336 78.3498 71.2525 82.8049 77.3778 81.4765C82.4967 80.3669 85.1483 77.4912 85.5173 72.695C85.7794 69.2838 86.3698 69.7884 86.408 66.7402L86.8839 65.2985C87.431 60.6774 86.9704 59.1842 90.1247 59.8793L90.8906 59.9475C93.2115 60.0544 96.2474 59.5704 98.0326 58.7311C101.871 56.9289 104.149 53.9194 100.364 54.7098L100.38 54.711Z" fill="#417BA2"/>
<path d="M75.9875 12.1475C75.0268 12.4526 91.4152 6.08721 100.728 18.1254C104.017 22.3784 100.219 39.7561 91.0857 53.4471M68.348 57.3616C68.1101 65.9629 68.4078 74.6105 69.2387 76.7293C70.0696 78.8481 71.8522 82.9286 77.98 81.6015C83.0976 80.4919 84.9604 78.3448 85.7671 73.6026C86.3625 70.1271 87.5102 60.4265 87.6566 58.4416L68.348 57.3616ZM61.019 14.2405C61.019 14.2405 33.2847 2.78417 34.5749 28.8507C34.8497 34.3858 42.4357 70.8312 51.4977 59.8267C54.8059 55.8028 57.7961 52.6465 57.7961 52.6465L61.019 14.2405Z" stroke="white" stroke-width="1.682" stroke-linecap="round" stroke-linejoin="round"/>
<path d="M91.0863 53.4463C91.0863 53.4463 91.6805 56.4069 100.317 54.6022C104.102 53.8119 101.824 56.8214 97.9864 58.6248C94.836 60.1052 87.7742 60.4823 87.6584 58.4395C87.3607 53.167 91.3738 54.7683 91.0863 53.4476C90.8241 52.2582 89.0288 51.0894 87.8417 48.1776C86.8047 45.6354 73.6252 26.1402 91.4972 29.0365C92.1525 28.9 86.8365 11.839 70.1109 11.5623C53.3853 11.2855 53.9515 32.3665 53.9515 32.3665" stroke="white" stroke-width="1.682" stroke-linecap="round" stroke-linejoin="bevel"/>
<path d="M63.6663 55.2508C61.3353 57.8858 62.0211 58.3479 57.3603 59.3184C52.6461 60.3019 55.4161 62.0512 57.2229 62.5082C59.4152 63.0617 64.4883 63.8495 67.9135 58.9941C68.9569 57.5163 67.9072 55.1581 66.4757 54.5557C65.7835 54.2661 64.8572 53.9018 63.6663 55.2508Z" stroke="white" stroke-width="1.682" stroke-linejoin="round"/>
<path d="M63.5142 55.2046C63.2801 53.6561 64.0181 51.8128 64.8082 49.6566C65.9966 46.4218 68.7399 43.1844 66.545 32.9226C64.91 25.2739 53.9433 31.3303 53.9356 32.3691C53.928 33.4079 54.4446 37.6262 53.7524 42.5382C52.8655 48.9487 57.7859 54.3731 63.4506 53.8183" stroke="white" stroke-width="1.682" stroke-linecap="round" stroke-linejoin="round"/>
<path d="M60.9089 32.2097C60.858 32.5637 61.5502 33.5098 62.4485 33.6359C63.3468 33.7621 64.1153 33.0245 64.1662 32.6705C64.2171 32.3165 63.5249 31.9265 62.6266 31.799C61.7283 31.6716 60.9572 31.857 60.9089 32.211V32.2097Z" fill="white" stroke="white" stroke-width="0.561"/>
<path d="M88.2834 31.488C88.3318 31.842 87.6421 32.7752 86.7438 32.9142C85.8455 33.0533 85.077 32.3028 85.0261 31.9488C84.9752 31.5948 85.6686 31.2048 86.5682 31.0774C87.4678 30.9499 88.2351 31.1353 88.2859 31.4893L88.2834 31.488Z" fill="white" stroke="white" stroke-width="0.28"/>
<path d="M91.4969 29.0361C91.6445 31.814 90.9052 33.7088 90.8123 36.6656C90.6724 40.9649 92.838 45.8847 89.5781 50.8123" stroke="white" stroke-width="1.682" stroke-linecap="round" stroke-linejoin="round"/>
</svg>
