<svg width="105" height="115" viewBox="0 0 105 115" fill="none" xmlns="http://www.w3.org/2000/svg">
<g clip-path="url(#clip0_256_2926)">
<path d="M16.2204 95.9611C16.2204 91.3827 14.878 89.0321 12.1922 88.9041C11.1263 88.8541 10.0616 89.0241 9.06515 89.4036C8.25464 89.6869 7.71008 89.964 7.42302 90.2462V101.173C9.14114 102.223 10.6672 102.709 11.9969 102.642C14.8115 102.462 16.2204 100.229 16.2204 95.9716V95.9611ZM19.5342 96.15C19.5342 98.4754 18.9728 100.406 17.8457 101.943C16.5877 103.68 14.8443 104.574 12.6164 104.624C10.9363 104.676 9.20551 104.164 7.42408 103.092V113.023L4.54297 112.024V89.9797C5.01577 89.4162 5.6247 88.9303 6.36134 88.5106C8.07629 87.5389 10.1606 87.0393 12.6122 87.0152L12.6544 87.0551C14.896 87.0278 16.6225 87.9219 17.8256 89.7362C18.957 91.4005 19.5142 93.5329 19.5142 96.1406L19.5342 96.15ZM37.1407 102.67C37.1407 105.79 36.8188 107.948 36.1761 109.151C35.5334 110.353 34.3007 111.312 32.4845 112.026C31.0123 112.589 29.4208 112.897 27.7122 112.949L27.2373 111.184C28.9744 110.953 30.1975 110.725 30.9067 110.495C32.3029 110.035 33.2602 109.341 33.7878 108.396C34.21 107.627 34.4179 106.159 34.4179 103.987V103.257C32.4475 104.128 30.3833 104.559 28.223 104.559C26.8582 104.579 25.5305 104.117 24.4754 103.256C23.2649 102.31 22.6602 101.108 22.6602 99.6528V87.9859L25.5413 87.0268V98.7587C25.5413 100.012 25.9571 100.977 26.7898 101.655C27.6225 102.333 28.6894 102.657 30.0213 102.633C31.3531 102.609 32.7578 102.108 34.2606 101.138V87.4507H37.1417V102.672L37.1407 102.67ZM48.3907 104.471L47.4409 104.511C45.8115 104.511 44.5408 104.134 43.6332 103.378C42.7256 102.623 42.275 101.576 42.275 100.244V89.2115H40.3015V87.4486H42.275V82.7684L45.1529 81.7715V87.4465H48.3907V89.2094H45.1614V100.165C45.1614 101.216 45.4516 101.949 46.031 102.396C46.5291 102.755 47.3206 102.959 48.3981 103.012V104.481L48.3907 104.471ZM65.8336 104.241H62.9525V93.4321C62.9525 92.3324 62.6886 91.3858 62.161 90.5946C61.8924 90.1704 61.517 89.8234 61.072 89.588C60.6269 89.3525 60.1278 89.2369 59.6239 89.2525C58.3026 89.2525 56.651 89.9294 54.669 91.2841V104.244H51.7879V78.402L54.669 77.5205V89.2766C56.5096 87.9754 58.5211 87.3217 60.7056 87.3217C62.2317 87.3217 63.4675 87.8211 64.4131 88.817C65.3587 89.8129 65.8346 91.0542 65.8346 92.537V104.23L65.8336 104.241ZM81.1489 95.5309C81.1489 93.7721 80.8048 92.3198 80.1209 91.1707C79.3083 89.7698 78.044 89.0321 76.3354 88.9671C73.1767 89.1455 71.6011 91.3449 71.6011 95.5613C71.6011 97.4953 71.9177 99.1103 72.591 100.406C73.4353 102.058 74.7017 102.872 76.3924 102.845C79.5637 102.821 81.1489 100.387 81.1489 95.5413V95.5309ZM84.3149 95.5498C84.3149 98.0536 83.6564 100.138 82.3414 101.801C80.8956 103.663 78.8957 104.598 76.347 104.598C73.8194 104.598 71.8491 103.654 70.437 101.801C69.1474 100.137 68.5057 98.0546 68.5057 95.5498C68.5057 93.196 69.2023 91.2158 70.5953 89.6051C72.0676 87.8946 74.0041 87.0373 76.3956 87.0373C78.787 87.0373 80.7362 87.8956 82.2369 89.6051C83.63 91.2169 84.3265 93.196 84.3265 95.5498H84.3149ZM100.821 104.251H97.929V92.8277C97.929 91.5747 97.5416 90.5967 96.766 89.8915C95.9903 89.1864 94.9571 88.8495 93.6674 88.8768C92.2997 88.901 90.9974 89.3364 89.7626 90.178V104.24H86.8815V89.8212C88.5384 88.648 90.0655 87.882 91.4586 87.5126C92.7736 87.1789 93.9334 87.0131 94.9328 87.0131C95.6167 87.0131 96.2594 87.0761 96.8641 87.2062C97.9954 87.4601 98.9157 87.9324 99.626 88.625C100.417 89.391 100.811 90.3102 100.811 91.3848V104.229L100.821 104.251Z" fill="#646464"/>
<path d="M30.9446 11.094C30.9446 6.28733 32.2705 3.67248 39.5908 2.42733C44.5608 1.58053 50.9331 1.47468 56.8772 2.42733C61.572 3.18063 65.5234 6.58019 65.5234 11.094V26.9521C65.5234 31.6032 61.687 35.4131 56.8772 35.4131H39.5908C33.7241 35.4131 28.7796 40.2759 28.7796 45.7734V53.3819H22.8359C17.8082 53.3819 14.881 49.8578 13.6514 44.9266C11.9927 38.3018 12.0631 34.3546 13.6514 28.0099C15.0284 22.475 19.4285 19.5546 24.4565 19.5546H48.2371V17.4376H30.9442V11.0936L30.9446 11.094Z" fill="url(#paint0_linear_256_2926)"/>
<path d="M65.5242 61.8436C65.5242 66.6502 61.233 69.0848 56.8779 70.2989C50.3259 72.1294 45.0674 71.8492 39.5916 70.2989C35.0184 69.004 30.9453 66.3577 30.9453 61.8436V45.9854C30.9453 41.4215 34.8587 37.5245 39.5916 37.5245H56.8779C62.6358 37.5245 67.6892 32.6871 67.6892 26.9525V19.5557H74.1708C79.2049 19.5557 81.575 23.1916 82.817 28.011C84.5461 34.7042 84.6231 39.7099 82.817 44.9276C81.0687 49.9957 79.1984 53.3829 74.1708 53.3829H48.2378V55.4999H65.5242V61.8439V61.8436Z" fill="url(#paint1_linear_256_2926)"/>
<path d="M35.2695 10.0417C35.2695 8.28602 36.717 6.86621 38.5107 6.86621C40.2975 6.86621 41.7519 8.28566 41.7519 10.0417C41.7519 11.7918 40.2979 13.2109 38.5107 13.2109C36.7177 13.2109 35.2695 11.7914 35.2695 10.0417ZM54.7201 62.8956C54.7201 61.1455 56.1741 59.7264 57.9613 59.7264C59.7543 59.7264 61.2025 61.1459 61.2025 62.8956C61.2025 64.6513 59.755 66.0711 57.9613 66.0711C56.1745 66.0711 54.7201 64.6516 54.7201 62.8956Z" fill="white"/>
</g>
<defs>
<linearGradient id="paint0_linear_256_2926" x1="65.5238" y1="21.823" x2="12.4342" y2="21.3888" gradientUnits="userSpaceOnUse">
<stop stop-color="#366A96"/>
<stop offset="1" stop-color="#3679B0"/>
</linearGradient>
<linearGradient id="paint1_linear_256_2926" x1="84.1425" y1="45.5624" x2="-20.9496" y2="45.5624" gradientUnits="userSpaceOnUse">
<stop stop-color="#FFC836"/>
<stop offset="1" stop-color="#FFE873"/>
</linearGradient>
<clipPath id="clip0_256_2926">
<rect width="103.352" height="115" fill="white" transform="translate(0.730469)"/>
</clipPath>
</defs>
</svg>
