<svg width="97" height="106" viewBox="0 0 97 106" fill="none" xmlns="http://www.w3.org/2000/svg">
<path d="M48.199 44.0445C52.0671 44.0445 55.2028 40.8892 55.2028 36.9969C55.2028 33.1046 52.0671 29.9492 48.199 29.9492C44.331 29.9492 41.1953 33.1046 41.1953 36.9969C41.1953 40.8892 44.331 44.0445 48.199 44.0445Z" fill="#61DAFB"/>
<path d="M48.1994 62.9137C53.6969 68.2941 59.1192 71.477 63.4871 71.477C64.9179 71.477 66.2735 71.1738 67.4031 70.4918C71.3192 68.2184 72.7501 62.5348 71.3945 54.4262C71.1686 52.9863 70.8673 51.5465 70.4908 50.0309C71.997 49.5762 73.3525 49.1215 74.7081 48.6668C82.3143 45.7113 86.5316 41.6191 86.5316 37.148C86.5316 32.6012 82.3143 28.509 74.7081 25.6293C73.3525 25.0988 71.997 24.6441 70.4908 24.2652C70.8673 22.7496 71.1686 21.3098 71.3945 19.8699C72.6748 11.6098 71.2439 5.85039 67.3278 3.57695C66.1982 2.89492 64.8426 2.5918 63.4118 2.5918C59.1192 2.5918 53.6216 5.77461 48.1241 11.1551C42.7018 5.77461 37.2796 2.5918 32.9117 2.5918C31.4808 2.5918 30.1253 2.89492 28.9956 3.57695C25.0796 5.85039 23.6487 11.534 25.0043 19.6426C25.2302 21.0824 25.5314 22.5223 25.908 24.0379C24.4018 24.4926 23.0462 24.9473 21.6907 25.402C14.0845 28.3574 9.86719 32.4496 9.86719 36.9207C9.86719 41.4676 14.0845 45.5598 21.6907 48.4395C23.0462 48.9699 24.4018 49.4246 25.908 49.8035C25.5314 51.3191 25.2302 52.759 25.0043 54.1988C23.724 62.3074 25.1549 68.0668 28.9956 70.2645C30.1253 70.9465 31.4808 71.2496 32.9117 71.2496C37.2796 71.4012 42.7018 68.2184 48.1994 62.9137ZM43.9821 52.6832C45.3377 52.759 46.7685 52.759 48.1994 52.759C49.6303 52.759 51.0611 52.759 52.4167 52.6832C51.0611 54.502 49.6303 56.1691 48.1994 57.7605C46.7685 56.1691 45.3377 54.502 43.9821 52.6832ZM34.6438 44.8777C35.3969 46.166 36.0747 47.3785 36.9031 48.591C34.5685 48.2879 32.3845 47.909 30.2759 47.4543C30.9537 45.4082 31.7067 43.2863 32.6105 41.1645C33.2129 42.377 33.8907 43.6652 34.6438 44.8777ZM30.2759 26.6145C32.3845 26.1598 34.5685 25.7809 36.9031 25.4777C36.15 26.6902 35.3969 27.9027 34.6438 29.191C33.8907 30.4793 33.2129 31.6918 32.6105 32.9801C31.6314 30.7824 30.8784 28.6605 30.2759 26.6145ZM34.4179 36.9965C35.3969 34.9504 36.4512 32.9043 37.6561 30.8582C38.7858 28.8879 40.066 26.9176 41.3463 24.9473C43.6055 24.7957 45.8648 24.7199 48.1994 24.7199C50.6093 24.7199 52.8685 24.7957 55.0525 24.9473C56.408 26.9176 57.613 28.8879 58.7426 30.8582C59.9476 32.9043 61.0019 34.9504 61.9809 36.9965C61.0019 39.0426 59.9476 41.0887 58.7426 43.1348C57.613 45.1051 56.3327 47.0754 55.0525 49.0457C52.7932 49.1973 50.534 49.273 48.1994 49.273C45.7895 49.273 43.5302 49.1973 41.3463 49.0457C39.9907 47.0754 38.7858 45.1051 37.6561 43.1348C36.4512 41.0887 35.3969 39.0426 34.4179 36.9965ZM63.8636 32.9043L61.8303 29.1152C61.0772 27.827 60.3994 26.6145 59.571 25.402C61.9056 25.7051 64.0896 26.084 66.1982 26.5387C65.5204 28.6605 64.7673 30.7824 63.8636 32.9043ZM63.8636 41.0887C64.7673 43.2105 65.5204 45.3324 66.1982 47.3785C64.0896 47.8332 61.9056 48.2121 59.571 48.5152C60.3241 47.3027 61.0772 46.0902 61.8303 44.802C62.5081 43.6652 63.1858 42.377 63.8636 41.0887ZM65.5957 67.3848C64.9933 67.7637 64.2402 67.9152 63.4118 67.9152C59.7216 67.9152 55.1278 64.884 50.6093 60.3371C52.7932 57.9879 54.9019 55.3356 57.0105 52.3801C60.55 52.077 63.9389 51.5465 67.1019 50.7887C67.4784 52.1527 67.7044 53.5168 67.9303 54.8809C68.9846 61.3223 68.1562 65.9449 65.5957 67.3848ZM69.5118 27.448C77.9464 29.873 82.9921 33.5863 82.9921 36.9965C82.9921 39.952 79.5279 42.9074 73.4278 45.2566C72.2229 45.7113 70.8673 46.166 69.5118 46.5449C68.5328 43.4379 67.3278 40.2551 65.8217 36.9965C67.3278 33.7379 68.6081 30.5551 69.5118 27.448ZM63.4871 6.07773C64.3155 6.07773 64.9933 6.2293 65.671 6.6082C68.1562 8.04805 69.0599 12.5949 68.0056 19.1121C67.7797 20.4004 67.4784 21.7645 67.1772 23.2043C64.0142 22.5223 60.6253 21.9918 57.0858 21.6129C55.0525 18.6574 52.8685 16.0051 50.6846 13.6559C55.2031 9.18477 59.7969 6.07773 63.4871 6.07773ZM52.4167 21.3098C51.0611 21.234 49.6303 21.234 48.1994 21.234C46.7685 21.234 45.3377 21.234 43.9821 21.3098C45.3377 19.491 46.7685 17.8238 48.1994 16.2324C49.6303 17.8238 51.0611 19.5668 52.4167 21.3098ZM30.803 6.6082C31.4055 6.2293 32.1586 6.07773 32.987 6.07773C36.6771 6.07773 41.271 9.10898 45.7895 13.6559C43.6055 16.0051 41.4969 18.6574 39.3882 21.6129C35.8487 21.916 32.4598 22.4465 29.2969 23.2043C28.9203 21.8402 28.6944 20.4762 28.4685 19.1121C27.4141 12.6707 28.2425 8.12383 30.803 6.6082ZM26.887 46.5449C18.4524 44.1199 13.4067 40.4066 13.4067 36.9965C13.4067 34.041 16.8709 31.0855 22.9709 28.7363C24.1759 28.2816 25.5314 27.827 26.887 27.448C27.866 30.5551 29.0709 33.7379 30.5771 36.9965C29.0709 40.2551 27.7907 43.5137 26.887 46.5449ZM28.4685 54.8809C28.6944 53.5926 28.9956 52.2285 29.2969 50.7887C32.4598 51.4707 35.8487 52.0012 39.3882 52.3801C41.4216 55.3356 43.6055 57.9879 45.7895 60.3371C41.271 64.8082 36.6771 67.9152 32.987 67.9152C32.1586 67.9152 31.4808 67.7637 30.803 67.3848C28.2425 65.9449 27.4141 61.3223 28.4685 54.8809ZM25.3055 86.1027C26.9623 84.0566 27.0376 81.7832 26.1339 79.5098C25.2302 77.2363 23.3475 76.1754 21.0129 76.0996C18.2265 76.0238 15.3647 76.0996 12.5783 76.0996H12.0511V95.727H14.3104V88.3004H17.8499C18.3018 88.3004 18.6783 88.452 18.9042 88.8309L23.4228 95.8785C23.4981 96.0301 23.724 96.2574 23.8746 96.2574H26.8117C25.0043 93.4535 23.2722 90.8012 21.4647 88.0731C23.0462 87.8457 24.4018 87.3152 25.3055 86.1027ZM14.3104 85.9512V78.4488H15.1388C16.8709 78.4488 18.6783 78.373 20.4104 78.5246C22.4438 78.6004 23.8746 80.1918 23.8746 82.2379C23.8746 84.284 22.2178 85.8754 20.1845 85.9512C18.3771 86.027 16.5697 85.9512 14.3104 85.9512ZM43.4549 86.9363C42.25 81.6316 37.4302 80.2676 33.7401 81.9348C30.8784 83.2231 29.5981 85.7238 29.5228 88.8309C29.4475 91.1801 30.1253 93.302 31.9327 94.8934C33.966 96.7121 36.4512 96.9395 39.0117 96.4848C40.4426 96.1816 41.7228 95.4996 42.7018 94.4387C42.3253 93.9082 41.9487 93.3777 41.5722 92.923C39.4636 94.7418 37.129 95.3481 34.5685 94.1356C32.9117 93.302 32.0833 91.2559 31.9327 89.7402H43.6055V88.7551C43.6809 88.0731 43.6055 87.4668 43.4549 86.9363ZM32.0833 88.1488C31.8574 85.8754 34.1166 83.4504 36.6018 83.4504C39.4636 83.3746 41.271 85.1176 41.3463 88.1488H32.0833ZM55.2031 81.5559C54.0735 81.3285 52.8685 81.2527 51.7389 81.3285C49.9315 81.4801 48.35 82.3137 47.0698 83.6777C47.4463 84.2082 47.7475 84.7387 48.1994 85.3449C48.35 85.1934 48.5006 85.0418 48.6512 84.966C49.8562 83.8293 51.287 83.223 53.0192 83.3746C54.3747 83.4504 55.655 83.9051 56.0315 85.2691C56.3327 86.3301 56.2574 87.4668 56.3327 88.6035C56.1068 88.6035 56.0315 88.5277 55.9562 88.452C54.1488 86.9363 52.1154 86.6332 49.9315 87.1637C47.8982 87.6941 46.6179 89.2855 46.4673 91.3316C46.3167 93.6809 47.371 95.4238 49.4043 96.2574C50.6846 96.7879 52.1154 96.7879 53.471 96.4848C54.5253 96.2574 54.9772 95.6512 56.4834 94.8176V95.8027H58.592C58.592 92.7715 58.6673 89.0582 58.592 85.5723C58.592 83.3746 57.3118 82.0106 55.2031 81.5559ZM56.2574 91.1043C56.1821 91.3316 56.2574 91.559 56.2574 91.7863C56.2574 93.3777 55.8809 93.9082 54.3747 94.5145C53.3204 94.8934 52.1908 95.0449 51.0611 94.666C49.7809 94.2871 48.8772 93.1504 48.8772 91.8621C48.8019 90.5738 49.6303 89.2855 50.9105 88.9066C52.6426 88.3004 54.2241 88.6793 55.655 89.7402C56.1068 90.1191 56.408 90.498 56.2574 91.1043ZM68.0056 83.602C69.9636 82.9957 71.771 83.3746 73.1266 85.0418L73.3525 85.1934C73.8797 84.7387 74.3316 84.284 74.934 83.7535C74.7081 83.5262 74.6328 83.3746 74.4822 83.1473C72.2982 80.798 68.0056 80.4949 65.3698 82.3895C61.6797 85.1176 61.755 90.4223 63.5624 93.2262C65.2945 95.8785 67.7797 96.7879 70.7167 96.409C72.4488 96.1816 73.8797 95.348 75.0093 93.9082C74.4822 93.4535 73.955 92.9988 73.4278 92.4684C73.2772 92.6199 73.2019 92.6957 73.1266 92.8473C71.0933 95.1207 67.7044 94.8934 65.897 92.4684C64.8426 91.0285 64.6167 89.3613 64.9179 87.6941C65.0686 85.7996 66.0476 84.284 68.0056 83.602ZM83.6698 93.9082C83.5192 93.984 83.4439 94.0598 83.4439 94.0598C82.8415 94.5145 82.239 94.5902 81.5612 94.3629C80.8834 94.0598 80.8081 93.4535 80.7328 92.8473V84.2082C80.7328 84.0566 80.7328 84.3598 80.8081 83.602H83.6698V81.3285H80.6575V77.5395H78.3982V81.6316H76.4402C76.2896 81.6316 76.0637 81.7832 76.0637 81.9348C75.9883 82.4652 76.0637 82.8441 76.0637 83.602H78.4735V93.302C78.4735 94.5145 78.7748 95.5754 79.8291 96.1816C80.9587 96.8637 83.1427 96.7121 84.1217 95.8785C84.2723 95.8027 84.3476 95.4996 84.3476 95.4238C84.1217 94.9691 83.8958 94.4387 83.6698 93.9082Z" fill="#61DAFB"/>
</svg>
