<svg width="88" height="88" viewBox="0 0 88 88" fill="none" xmlns="http://www.w3.org/2000/svg">
<g clip-path="url(#clip0_256_2935)">
<path d="M33.1718 45.5169H36.1873C37.9967 45.5169 39.2029 47.0341 39.2029 48.5514H42.2185C42.2185 45.2135 39.5045 42.4824 36.1873 42.4824H33.1718C29.8546 42.4824 27.1406 45.2135 27.1406 48.5514C27.1406 51.8892 29.8546 54.6204 33.1718 54.6204H36.1873C37.9967 54.6204 39.2029 55.8341 39.2029 57.6548C39.2029 59.4755 37.9967 60.6893 36.1873 60.6893H33.1718C31.3624 60.6893 30.1562 59.1722 30.1562 57.6548H27.1406C27.1406 60.9927 29.8546 63.7238 33.1718 63.7238H36.1873C39.5045 63.7238 42.2185 60.9927 42.2185 57.6548C42.2185 54.317 39.5045 51.5859 36.1873 51.5859H33.1718C31.3624 51.5859 30.1562 50.3721 30.1562 48.5514C30.1562 46.7307 31.3624 45.5169 33.1718 45.5169Z" fill="black"/>
<path d="M78.4047 33.379H57.2958V24.2756L39.2024 3.03418H6.03113C2.71393 3.03418 0 5.76513 0 9.10314V78.8962C0 82.2341 2.71393 84.9652 6.03113 84.9652H51.2646C54.5817 84.9652 57.2958 82.2341 57.2958 78.8962V72.8273H78.4047C83.5313 72.8273 87.4514 68.8825 87.4514 63.7238V42.4825C87.4514 37.3237 83.5313 33.379 78.4047 33.379ZM39.2024 7.58582L53.3756 24.2756H42.2179C40.7102 24.2756 39.2024 22.7584 39.2024 21.2411V7.58582ZM54.2802 78.8962C54.2802 80.4134 53.074 81.9307 51.2646 81.9307H6.03113C4.52343 81.9307 3.01557 80.7169 3.01557 78.8962V9.10314C3.01557 7.58598 4.22179 6.06866 6.03113 6.06866H36.1868V21.2411C36.1868 24.5791 38.9007 27.31 42.2179 27.31H54.2802V33.379H27.1401C22.0136 33.379 18.0934 37.3237 18.0934 42.4825V63.7238C18.0934 68.8825 22.0136 72.8273 27.1401 72.8273H54.2802V78.8962ZM84.4359 63.7238C84.4359 67.0617 81.7218 69.7928 78.4047 69.7928H27.1401C23.8229 69.7928 21.109 67.0617 21.109 63.7238V42.4825C21.109 39.1444 23.8229 36.4135 27.1401 36.4135H78.4047C81.7218 36.4135 84.4359 39.1444 84.4359 42.4825V63.7238Z" fill="black"/>
<path d="M60.3122 57.6548V48.5514C60.3122 45.2135 57.5981 42.4824 54.2811 42.4824H51.2655C47.9485 42.4824 45.2344 45.2135 45.2344 48.5514V57.6548C45.2344 60.9927 47.9485 63.7238 51.2655 63.7238H54.2811C54.8842 63.7238 55.7888 63.7238 56.392 63.4204L59.106 66.1514L61.217 64.0272L58.8045 61.5996C59.7091 60.6893 60.3122 59.1722 60.3122 57.6548ZM57.2966 57.6548C57.2966 58.2617 56.9952 58.8686 56.6935 59.4755L52.4719 55.2274L50.3609 57.3516L53.678 60.6895H51.2655C49.4562 60.6895 48.2499 59.4757 48.2499 57.655V48.5514C48.2499 46.7307 49.4562 45.5169 51.2655 45.5169H54.2811C56.0904 45.5169 57.2966 46.7307 57.2966 48.5514V57.6548Z" fill="black"/>
<path d="M66.3437 42.4824H63.3281V63.7238H78.406V60.6893H66.3437V42.4824Z" fill="black"/>
</g>
<defs>
<clipPath id="clip0_256_2935">
<rect width="87.4514" height="88" fill="white"/>
</clipPath>
</defs>
</svg>
