<svg width="97" height="98" viewBox="0 0 97 98" fill="none" xmlns="http://www.w3.org/2000/svg">
<path d="M18.2189 83.3031L11.4531 6.125H85.8221L79.0473 83.2908L48.5924 91.875L18.2189 83.3031Z" fill="#1572B6"/>
<path d="M48.6367 85.3148L73.2476 78.3783L79.0374 12.4365H48.6367V85.3148Z" fill="#33A9DC"/>
<path d="M48.6367 40.3973H60.9572L61.8067 30.7045H48.6367V21.2383H48.6699H71.9825L71.7595 23.7771L69.4732 49.8635H48.6367V40.3973Z" fill="white"/>
<path d="M48.6942 64.9797L48.652 64.9919L38.2835 62.1438L37.6208 54.5947H32.5811H28.2734L29.5778 69.457L48.649 74.8409L48.6942 74.8287V64.9797Z" fill="#EBEBEB"/>
<path d="M60.1643 49.4619L59.0437 62.1376L48.6602 64.9857V74.8347L67.7464 69.457L67.888 67.8584L69.5056 49.4619H60.1643Z" fill="white"/>
<path d="M48.6684 21.2383V27.1183V30.68V30.7045H26.2083H26.1782L25.9914 28.576L25.5667 23.7771L25.3438 21.2383H48.6684Z" fill="#EBEBEB"/>
<path d="M48.6368 40.3975V46.2775V49.8391V49.8636H38.4279H38.3978L38.211 47.7352L37.7893 42.9363L37.5664 40.3975H48.6368Z" fill="#EBEBEB"/>
</svg>
