<svg width="97" height="112" viewBox="0 0 97 112" fill="none" xmlns="http://www.w3.org/2000/svg">
<path d="M24.2429 80.9953C23.9653 80.9953 23.6888 81.0761 23.4486 81.2375C23.2084 81.3989 22.9882 81.6772 22.9882 82.0345C22.9882 82.0815 22.961 82.187 23.0515 82.371L23.0279 82.3127L27.8554 98.2354C27.9418 98.5341 28.1492 98.7623 28.3819 98.8933C28.6147 99.0243 28.8708 99.0743 29.1189 99.0743C29.6464 99.0743 30.2256 98.8183 30.403 98.2413V98.2398L35.226 82.2574V82.1991C35.226 82.2797 35.2495 82.2331 35.2495 82.0585C35.2495 81.6951 35.0212 81.4279 34.7773 81.26C34.5335 81.092 34.2464 80.9953 33.9477 80.9953C33.5795 80.9953 33.1558 81.223 33.0138 81.6562L33.0108 81.6607L29.1174 94.8708L25.2093 81.6845C25.1513 81.4489 24.9952 81.2515 24.8136 81.1417C24.632 81.0319 24.4339 80.9951 24.2429 80.9951L24.2429 80.9953ZM62.6918 81.8162C61.9234 81.8162 61.2753 82.4147 61.2753 83.1636C61.2753 83.9124 61.9133 84.5318 62.6918 84.5318C63.4556 84.5318 64.0627 83.9008 64.0627 83.1636C64.0627 82.4263 63.4451 81.8162 62.6918 81.8162ZM51.3736 86.9139C48.7466 86.9139 46.583 89.0512 46.583 91.6198V94.2517C46.583 95.6903 47.1469 96.9234 48.1039 97.7748C49.0609 98.6261 50.3967 99.0967 51.9281 99.0967C53.0593 99.0967 53.9812 98.8392 54.6405 98.4896C54.9701 98.3147 55.2349 98.1186 55.4303 97.9049C55.6257 97.6911 55.7701 97.4572 55.7701 97.1647C55.7701 96.8961 55.6683 96.6634 55.5038 96.4544C55.3394 96.2454 55.0802 96.0536 54.7463 96.0536C54.5051 96.0536 54.32 96.1568 54.1594 96.257C53.9989 96.3572 53.8481 96.4678 53.6667 96.574C53.3038 96.7864 52.8229 96.9927 51.9737 96.9927C51.0283 96.9927 50.2399 96.7186 49.6969 96.2585C49.1538 95.7984 48.8379 95.1596 48.8379 94.322V93.8345H53.6844C54.2013 93.8345 54.7759 93.8353 55.273 93.513C55.77 93.1904 56.0716 92.5492 56.0716 91.5735C56.0716 88.8715 53.854 86.914 51.3736 86.914L51.3736 86.9139ZM69.5878 86.9139C68.1915 86.9139 67.1646 87.3733 66.5048 88.0639C65.8452 88.7545 65.5606 89.6529 65.5606 90.4924C65.5606 91.5623 65.9857 92.329 66.5945 92.8206C67.2034 93.3122 67.9609 93.5596 68.6817 93.7806C69.4025 94.0017 70.0924 94.1978 70.5556 94.488C71.0189 94.7781 71.2675 95.0919 71.2675 95.7545C71.2675 96.1102 71.1624 96.3933 70.8778 96.6248C70.5931 96.8563 70.0878 97.039 69.2642 97.039C68.2899 97.039 67.7454 96.7947 67.3491 96.5456C67.1509 96.421 66.9913 96.2917 66.8269 96.1762C66.6626 96.0607 66.4762 95.9355 66.215 95.9355C65.9007 95.9355 65.6689 96.1323 65.5281 96.3362C65.3873 96.5401 65.306 96.7717 65.306 97.0226C65.306 97.3328 65.4545 97.6055 65.6649 97.842C65.8754 98.0786 66.1601 98.2891 66.5092 98.4731C67.2075 98.841 68.1691 99.0966 69.3112 99.0966C70.5512 99.0966 71.5709 98.7889 72.2927 98.192C73.0144 97.595 73.4077 96.7075 73.4077 95.6842C73.4077 94.5285 72.9944 93.6974 72.3854 93.1481C71.7764 92.5989 71.0076 92.3157 70.2762 92.0879C69.5448 91.86 68.841 91.6827 68.3699 91.4329C67.8989 91.1831 67.6772 90.9528 67.6772 90.422C67.6772 90.135 67.7901 89.7739 68.0772 89.489C68.3644 89.204 68.8327 88.9731 69.6114 88.9731C70.2335 88.9731 70.6959 89.1183 71.066 89.2722C71.2511 89.3491 71.412 89.4294 71.5647 89.4965C71.7173 89.5634 71.8581 89.6295 72.0603 89.6295C72.4256 89.6295 72.676 89.3846 72.8252 89.157C72.9744 88.9295 73.0605 88.705 73.0605 88.4482C73.0605 88.1265 72.8636 87.8985 72.6457 87.7274C72.4279 87.5564 72.1547 87.4206 71.8382 87.3028C71.2052 87.067 70.3978 86.914 69.5877 86.914L69.5878 86.9139ZM36.5596 87.056C35.9489 87.056 35.4212 87.4453 35.4212 88.025V94.298C35.4212 96.8428 37.5493 99.0967 40.1883 99.0967C42.7829 99.0967 44.9555 96.8693 44.9555 94.298V88.0026C44.9555 87.7125 44.7984 87.4608 44.5921 87.3013C44.3859 87.1417 44.1237 87.056 43.8391 87.056C43.5544 87.056 43.2908 87.1406 43.0801 87.2968C42.8694 87.453 42.7006 87.7027 42.7006 88.0026V94.298C42.7006 95.632 41.5572 96.9224 40.1884 96.9224C38.7968 96.9224 37.6761 95.609 37.6761 94.298V88.025C37.6761 87.7245 37.5147 87.4928 37.3143 87.3281C37.1139 87.1634 36.8521 87.056 36.5597 87.056L36.5596 87.056ZM62.6926 87.056C62.407 87.056 62.1424 87.1307 61.9321 87.2922C61.7218 87.4538 61.5776 87.7196 61.5776 88.0025V99.5604C61.5776 100.428 61.5178 101.155 61.3305 101.596C61.1432 102.036 60.9222 102.231 60.2906 102.231C59.7326 102.231 59.2668 102.727 59.2668 103.32C59.2668 103.566 59.345 103.837 59.5434 104.048C59.7417 104.259 60.0496 104.383 60.4053 104.383C61.6059 104.383 62.5245 103.842 63.0719 102.962C63.6194 102.083 63.8324 100.907 63.8324 99.5604V88.0025C63.8324 87.7013 63.6632 87.4393 63.4485 87.2847C63.2339 87.1301 62.9702 87.0559 62.6925 87.0559L62.6926 87.056ZM51.3503 88.9491C52.8499 88.9491 53.8625 90.2255 53.8625 91.5256C53.8625 91.6673 53.8475 91.76 53.8331 91.8023C53.8187 91.8444 53.8201 91.839 53.7993 91.8531C53.7577 91.8813 53.5263 91.9413 53.083 91.9413H48.838V91.4314C48.838 90.0707 49.956 88.9491 51.3503 88.9491L51.3503 88.9491ZM58.5135 96.1239C57.6943 96.1239 57.0735 96.813 57.0735 97.6103C57.0735 98.3761 57.685 99.0742 58.5135 99.0742C59.2982 99.0742 59.9299 98.3974 59.9299 97.6103C59.9299 96.7933 59.2877 96.1239 58.5135 96.1239Z" fill="#35495E"/>
<path d="M23.6523 6.30176L38.5101 6.30747L48.2223 22.697L57.9003 6.30878L72.7451 6.30478L48.2966 49.4194L23.6523 6.30176Z" fill="#35495E"/>
<path d="M7.44922 6.41705L23.6401 6.30469L48.2831 49.4213L72.7329 6.30731L88.9522 6.32459L48.2805 77.2859L7.44922 6.41705Z" fill="#41B883"/>
</svg>
