<svg width="86" height="84" viewBox="0 0 86 84" fill="none" xmlns="http://www.w3.org/2000/svg">
<path d="M43.1569 42L43.2625 41.65L52.2374 24.85L52.8357 24.5H58.4319L58.995 24.85V25.55L50.1961 42L58.995 58.45V59.15L58.4319 59.5H52.8357L52.2374 59.15L43.2625 42.35L43.1569 42V42.35L34.0763 59.15L33.478 59.5H27.8819L27.3187 59.15V58.45L36.1177 42L27.3187 25.55V24.85L27.8819 24.5H33.478L34.0763 24.85L43.1569 41.65V42ZM80.9925 38.745C81.5556 39.725 81.8724 40.845 81.8724 42C81.8724 43.155 81.5556 44.275 80.9925 45.255L64.556 73.5C63.2889 75.67 60.966 77 58.4671 77H27.8467C25.3478 77 23.0248 75.67 21.7578 73.5L5.3213 45.255C4.75817 44.275 4.44141 43.155 4.44141 42C4.44141 40.845 4.75817 39.725 5.3213 38.745L21.7578 10.5C23.0248 8.33 25.3478 7 27.8467 7H58.4671C60.966 7 63.2889 8.33 64.556 10.5L80.9925 38.745ZM74.1293 39.375L60.6492 16.8C59.6286 15.05 57.728 14 55.6866 14H30.6271C28.5858 14 26.6852 15.05 25.6645 16.8L12.1845 39.375C11.727 40.25 11.4806 41.09 11.4806 42C11.4806 42.91 11.727 43.75 12.1845 44.625L25.6645 67.2C26.6852 68.95 28.5858 70 30.6271 70H55.6866C57.728 70 59.6286 68.95 60.6492 67.2L74.1293 44.625C74.5868 43.75 74.8332 42.91 74.8332 42C74.8332 41.09 74.5868 40.25 74.1293 39.375Z" fill="black"/>
</svg>
