<svg width="269" height="269" viewBox="0 0 269 269" fill="none" xmlns="http://www.w3.org/2000/svg">
<path d="M122.088 198.019C94.2547 194.389 63.687 196.163 48.3602 181.023C33.1273 165.8 32.9702 133.476 44.1789 104.797C55.3876 76.1172 77.9622 51.0823 105.958 42.4164C134.131 33.7618 167.725 41.4763 193.006 60.1712C218.288 78.866 235.186 108.271 235.05 136.858C234.925 165.269 217.694 192.591 196.481 201.777C175.187 210.869 149.922 201.649 122.088 198.019Z" fill="#4E7B79"/>
<path d="M95.1002 113.208C93.7482 113.208 92.5695 112.991 91.5642 112.558C90.5588 112.125 89.7788 111.518 89.2242 110.738C88.6868 109.958 88.4182 109.039 88.4182 107.982V107.332C88.4182 107.245 88.4442 107.176 88.4962 107.124C88.5655 107.055 88.6435 107.02 88.7302 107.02H91.0442C91.1308 107.02 91.2002 107.055 91.2522 107.124C91.3215 107.176 91.3562 107.245 91.3562 107.332V107.826C91.3562 108.623 91.7115 109.291 92.4222 109.828C93.1328 110.348 94.1035 110.608 95.3342 110.608C96.3915 110.608 97.1888 110.383 97.7262 109.932C98.2635 109.481 98.5322 108.901 98.5322 108.19C98.5322 107.705 98.3848 107.297 98.0902 106.968C97.7955 106.621 97.3708 106.309 96.8162 106.032C96.2788 105.755 95.4642 105.408 94.3722 104.992C93.1415 104.541 92.1448 104.117 91.3822 103.718C90.6195 103.319 89.9782 102.782 89.4582 102.106C88.9555 101.413 88.7042 100.555 88.7042 99.532C88.7042 98.0067 89.2588 96.802 90.3682 95.918C91.4775 95.034 92.9595 94.592 94.8142 94.592C96.1142 94.592 97.2582 94.8173 98.2462 95.268C99.2515 95.7187 100.032 96.3513 100.586 97.166C101.141 97.9633 101.418 98.8907 101.418 99.948V100.39C101.418 100.477 101.384 100.555 101.314 100.624C101.262 100.676 101.193 100.702 101.106 100.702H98.7662C98.6795 100.702 98.6015 100.676 98.5322 100.624C98.4802 100.555 98.4542 100.477 98.4542 100.39V100.104C98.4542 99.2893 98.1162 98.6047 97.4402 98.05C96.7815 97.478 95.8628 97.192 94.6842 97.192C93.7308 97.192 92.9855 97.3913 92.4482 97.79C91.9282 98.1887 91.6682 98.752 91.6682 99.48C91.6682 100 91.8068 100.425 92.0842 100.754C92.3615 101.083 92.7775 101.387 93.3322 101.664C93.8868 101.924 94.7448 102.262 95.9062 102.678C97.1368 103.146 98.1162 103.571 98.8442 103.952C99.5895 104.333 100.222 104.871 100.742 105.564C101.28 106.24 101.548 107.089 101.548 108.112C101.548 109.672 100.968 110.911 99.8062 111.83C98.6622 112.749 97.0935 113.208 95.1002 113.208ZM116.312 95.008C116.398 94.8693 116.52 94.8 116.676 94.8H119.068C119.154 94.8 119.224 94.8347 119.276 94.904C119.345 94.956 119.38 95.0253 119.38 95.112V112.688C119.38 112.775 119.345 112.853 119.276 112.922C119.224 112.974 119.154 113 119.068 113H116.676C116.589 113 116.511 112.974 116.442 112.922C116.39 112.853 116.364 112.775 116.364 112.688V100.286C116.364 100.234 116.338 100.199 116.286 100.182C116.251 100.165 116.225 100.182 116.208 100.234L112.958 105.226C112.871 105.365 112.75 105.434 112.594 105.434H111.398C111.242 105.434 111.12 105.365 111.034 105.226L107.758 100.26C107.74 100.208 107.706 100.191 107.654 100.208C107.619 100.225 107.602 100.26 107.602 100.312V112.688C107.602 112.775 107.567 112.853 107.498 112.922C107.446 112.974 107.376 113 107.29 113H104.898C104.811 113 104.733 112.974 104.664 112.922C104.612 112.853 104.586 112.775 104.586 112.688V95.112C104.586 95.0253 104.612 94.956 104.664 94.904C104.733 94.8347 104.811 94.8 104.898 94.8H107.29C107.446 94.8 107.567 94.8693 107.654 95.008L111.892 101.43C111.926 101.465 111.961 101.482 111.996 101.482C112.03 101.482 112.056 101.465 112.074 101.43L116.312 95.008ZM134.455 113C134.282 113 134.169 112.913 134.117 112.74L133.259 109.958C133.225 109.889 133.181 109.854 133.129 109.854H126.265C126.213 109.854 126.17 109.889 126.135 109.958L125.277 112.74C125.225 112.913 125.113 113 124.939 113H122.339C122.235 113 122.157 112.974 122.105 112.922C122.053 112.853 122.045 112.757 122.079 112.636L127.721 95.06C127.773 94.8867 127.886 94.8 128.059 94.8H131.309C131.483 94.8 131.595 94.8867 131.647 95.06L137.315 112.636C137.333 112.671 137.341 112.714 137.341 112.766C137.341 112.922 137.246 113 137.055 113H134.455ZM126.941 107.332C126.924 107.436 126.959 107.488 127.045 107.488H132.323C132.427 107.488 132.462 107.436 132.427 107.332L129.749 98.622C129.732 98.5527 129.706 98.518 129.671 98.518C129.637 98.518 129.611 98.5527 129.593 98.622L126.941 107.332ZM150.249 113C150.075 113 149.954 112.922 149.885 112.766L146.453 105.278C146.418 105.209 146.366 105.174 146.297 105.174H143.177C143.09 105.174 143.047 105.217 143.047 105.304V112.688C143.047 112.775 143.012 112.853 142.943 112.922C142.891 112.974 142.821 113 142.735 113H140.343C140.256 113 140.178 112.974 140.109 112.922C140.057 112.853 140.031 112.775 140.031 112.688V95.112C140.031 95.0253 140.057 94.956 140.109 94.904C140.178 94.8347 140.256 94.8 140.343 94.8H147.493C148.55 94.8 149.486 95.0253 150.301 95.476C151.115 95.9093 151.748 96.5333 152.199 97.348C152.649 98.1453 152.875 99.064 152.875 100.104C152.875 101.3 152.563 102.323 151.939 103.172C151.332 104.004 150.483 104.585 149.391 104.914C149.356 104.914 149.33 104.931 149.313 104.966C149.295 105.001 149.295 105.035 149.313 105.07L152.979 112.636C153.013 112.705 153.031 112.757 153.031 112.792C153.031 112.931 152.935 113 152.745 113H150.249ZM143.177 97.4C143.09 97.4 143.047 97.4433 143.047 97.53V102.704C143.047 102.791 143.09 102.834 143.177 102.834H147.077C147.909 102.834 148.576 102.591 149.079 102.106C149.599 101.603 149.859 100.945 149.859 100.13C149.859 99.3153 149.599 98.6567 149.079 98.154C148.576 97.6513 147.909 97.4 147.077 97.4H143.177ZM167.911 94.8C167.997 94.8 168.067 94.8347 168.119 94.904C168.188 94.956 168.223 95.0253 168.223 95.112V97.114C168.223 97.2007 168.188 97.2787 168.119 97.348C168.067 97.4 167.997 97.426 167.911 97.426H163.127C163.04 97.426 162.997 97.4693 162.997 97.556V112.688C162.997 112.775 162.962 112.853 162.893 112.922C162.841 112.974 162.771 113 162.685 113H160.293C160.206 113 160.128 112.974 160.059 112.922C160.007 112.853 159.981 112.775 159.981 112.688V97.556C159.981 97.4693 159.937 97.426 159.851 97.426H155.249C155.162 97.426 155.084 97.4 155.015 97.348C154.963 97.2787 154.937 97.2007 154.937 97.114V95.112C154.937 95.0253 154.963 94.956 155.015 94.904C155.084 94.8347 155.162 94.8 155.249 94.8H167.911ZM175.687 112.974C175.601 112.974 175.523 112.948 175.453 112.896C175.401 112.827 175.375 112.749 175.375 112.662V105.694C175.375 105.625 175.367 105.573 175.349 105.538L169.993 95.164C169.959 95.0947 169.941 95.0427 169.941 95.008C169.941 94.8693 170.037 94.8 170.227 94.8H172.801C172.975 94.8 173.096 94.878 173.165 95.034L176.805 102.288C176.857 102.357 176.909 102.357 176.961 102.288L180.627 95.034C180.714 94.878 180.835 94.8 180.991 94.8H183.591C183.713 94.8 183.791 94.8347 183.825 94.904C183.877 94.9733 183.877 95.06 183.825 95.164L178.443 105.538C178.409 105.607 178.391 105.659 178.391 105.694V112.662C178.391 112.749 178.357 112.827 178.287 112.896C178.235 112.948 178.166 112.974 178.079 112.974H175.687Z" fill="white"/>
<path d="M113.07 121.788C113.07 121.958 113.002 122.111 112.866 122.247C112.764 122.349 112.628 122.4 112.458 122.4H95.1181C94.9481 122.4 94.8631 122.485 94.8631 122.655V132.192C94.8631 132.362 94.9481 132.447 95.1181 132.447H106.797C106.967 132.447 107.103 132.515 107.205 132.651C107.341 132.753 107.409 132.889 107.409 133.059V136.935C107.409 137.105 107.341 137.258 107.205 137.394C107.103 137.496 106.967 137.547 106.797 137.547H95.1181C94.9481 137.547 94.8631 137.632 94.8631 137.802V152.388C94.8631 152.558 94.7951 152.711 94.6591 152.847C94.5571 152.949 94.4211 153 94.2511 153H89.5591C89.3891 153 89.2361 152.949 89.1001 152.847C88.9981 152.711 88.9471 152.558 88.9471 152.388V117.912C88.9471 117.742 88.9981 117.606 89.1001 117.504C89.2361 117.368 89.3891 117.3 89.5591 117.3H112.458C112.628 117.3 112.764 117.368 112.866 117.504C113.002 117.606 113.07 117.742 113.07 117.912V121.788ZM118.296 153C118.126 153 117.973 152.949 117.837 152.847C117.735 152.711 117.684 152.558 117.684 152.388V117.912C117.684 117.742 117.735 117.606 117.837 117.504C117.973 117.368 118.126 117.3 118.296 117.3H122.988C123.158 117.3 123.294 117.368 123.396 117.504C123.532 117.606 123.6 117.742 123.6 117.912V147.645C123.6 147.815 123.685 147.9 123.855 147.9H140.94C141.11 147.9 141.246 147.968 141.348 148.104C141.484 148.206 141.552 148.342 141.552 148.512V152.388C141.552 152.558 141.484 152.711 141.348 152.847C141.246 152.949 141.11 153 140.94 153H118.296ZM147.432 153C147.262 153 147.109 152.949 146.973 152.847C146.871 152.711 146.82 152.558 146.82 152.388V117.912C146.82 117.742 146.871 117.606 146.973 117.504C147.109 117.368 147.262 117.3 147.432 117.3H152.124C152.294 117.3 152.43 117.368 152.532 117.504C152.668 117.606 152.736 117.742 152.736 117.912V152.388C152.736 152.558 152.668 152.711 152.532 152.847C152.43 152.949 152.294 153 152.124 153H147.432ZM174.499 117.249C176.641 117.249 178.528 117.691 180.16 118.575C181.792 119.459 183.05 120.717 183.934 122.349C184.852 123.947 185.311 125.8 185.311 127.908C185.311 129.982 184.852 131.818 183.934 133.416C183.016 135.014 181.707 136.255 180.007 137.139C178.341 137.989 176.403 138.414 174.193 138.414H166.033C165.863 138.414 165.778 138.499 165.778 138.669V152.388C165.778 152.558 165.71 152.711 165.574 152.847C165.472 152.949 165.336 153 165.166 153H160.474C160.304 153 160.151 152.949 160.015 152.847C159.913 152.711 159.862 152.558 159.862 152.388V117.861C159.862 117.691 159.913 117.555 160.015 117.453C160.151 117.317 160.304 117.249 160.474 117.249H174.499ZM173.632 133.62C175.366 133.62 176.76 133.11 177.814 132.09C178.868 131.07 179.395 129.727 179.395 128.061C179.395 126.361 178.868 124.984 177.814 123.93C176.76 122.876 175.366 122.349 173.632 122.349H166.033C165.863 122.349 165.778 122.434 165.778 122.604V133.365C165.778 133.535 165.863 133.62 166.033 133.62H173.632Z" fill="white"/>
</svg>
