<svg width="200" height="120" viewBox="0 0 200 120" fill="none" xmlns="http://www.w3.org/2000/svg">
<rect width="200" height="120" rx="4" fill="#F89C2E"/>
<path fill-rule="evenodd" clip-rule="evenodd" d="M90.3168 98.4112C111.748 103.728 133.452 90.752 138.794 69.4298C144.137 48.1065 131.097 26.507 109.667 21.191C88.2418 15.8751 66.5381 28.8527 61.1981 50.1774C55.8531 71.4983 68.8943 93.0953 90.3168 98.4112ZM108.828 44.089C114.369 45.9883 118.422 48.8353 117.626 54.1313C117.049 58.0082 114.889 59.8851 112.022 60.543C115.959 62.5828 117.963 65.7109 116.054 71.1338C113.686 77.8689 108.058 78.4373 100.574 77.0281L98.7581 84.2706L94.3693 83.1823L96.1618 76.0368C95.0243 75.7557 93.8618 75.4572 92.6643 75.1338L90.8656 82.3129L86.4818 81.2246L88.2981 73.9684C87.8883 73.864 87.476 73.757 87.0608 73.6492C86.4372 73.4874 85.8071 73.3239 85.1693 73.1649L79.4581 71.7482L81.6368 66.7495C81.6368 66.7495 84.8706 67.6052 84.8268 67.5418C86.0693 67.8478 86.6206 67.0418 86.8381 66.5045L89.7081 55.0555C89.8157 55.0812 89.9211 55.1075 90.0228 55.1329C90.0735 55.1455 90.1232 55.1579 90.1718 55.1699C89.9968 55.1002 89.8381 55.0555 89.7156 55.0244L91.7631 46.8515C91.8168 45.9236 91.4956 44.7532 89.7181 44.3117C89.7868 44.2657 86.5306 43.5231 86.5306 43.5231L87.6981 38.8589L93.7506 40.3627L93.7456 40.3851C94.6556 40.6102 95.5931 40.8241 96.5481 41.0405L98.3468 33.8689L102.733 34.9572L100.971 41.9883C102.148 42.2557 103.333 42.5256 104.487 42.8117L106.237 35.8266L110.626 36.9149L108.828 44.089ZM94.9462 70.0998C98.5272 71.041 106.354 73.0979 107.598 68.1226C108.873 63.0356 101.283 61.3409 97.5788 60.5139C97.1649 60.4215 96.7996 60.3399 96.5006 60.2657L94.0906 69.8788C94.3361 69.9395 94.624 70.0152 94.9462 70.0998ZM98.323 56.0527C101.309 56.8455 107.821 58.5749 108.956 54.053C110.114 49.4277 103.784 48.0335 100.693 47.3526C100.345 47.276 100.039 47.2084 99.7881 47.1463L97.6031 55.8652C97.8095 55.9164 98.0517 55.9807 98.323 56.0527Z" fill="white"/>
</svg>
