<svg xmlns="http://www.w3.org/2000/svg" viewBox="0 0 512 512" style="enable-background:new 0 0 512 512" xml:space="preserve"><path style="fill:#a0d755" d="M392.611 418.472c-47.148 0-85.512-38.364-85.512-85.512v-68.409c0-47.148 38.364-85.511 85.512-85.511s85.511 38.364 85.511 85.511v68.409c0 47.148-38.364 85.512-85.511 85.512zm0-205.228c-28.293 0-51.307 23.014-51.307 51.307v68.409c0 28.293 23.014 51.307 51.307 51.307s51.307-23.014 51.307-51.307v-68.409c-.001-28.292-23.015-51.307-51.307-51.307z"/><path style="fill:#87be50" d="m371.193 415.647 1.682-35.338c-18.522-7.748-31.572-26.048-31.572-47.349v-68.409c0-24.208 16.87-44.501 39.458-49.87l1.665-34.976c-42.357 5.058-75.328 41.15-75.328 84.847v68.409c.001 39.74 27.295 73.141 64.095 82.686z"/><path style="fill:#b4e66e" d="M316.843 503.983H75.025c-13.694 0-24.973-10.755-25.625-24.433L33.889 153.793c-.232-4.877 3.659-8.958 8.542-8.958h307.008c4.883 0 8.773 4.081 8.542 8.958L342.469 479.55c-.653 13.678-11.932 24.433-25.626 24.433z"/><path style="fill:#a0d755" d="m124.063 396.885-12.002-252.05H42.43c-4.883 0-8.773 4.081-8.542 8.957l15.513 325.757c.651 13.679 11.931 24.433 25.625 24.433h241.821c13.693 0 24.971-10.755 25.62-24.433l.058-1.221H209.478c-45.646.002-83.243-35.849-85.415-81.443z"/><path d="M392.611 171.023a92.137 92.137 0 0 0-27.626 4.208l1.003-21.058a16.64 16.64 0 0 0-4.56-12.221 16.643 16.643 0 0 0-11.99-5.134H42.43a16.645 16.645 0 0 0-11.991 5.135 16.642 16.642 0 0 0-4.559 12.222l15.513 325.757C42.25 497.914 57.023 512 75.025 512h241.817c18.002 0 32.775-14.086 33.632-32.068l2.96-62.143c12.256 5.709 25.597 8.7 39.176 8.7 51.572 0 93.528-41.956 93.528-93.528v-68.409c.001-51.573-41.955-93.529-93.527-93.529zm0 50.238c23.871 0 43.29 19.42 43.29 43.29v68.409c0 23.871-19.42 43.29-43.29 43.29-14.745 0-28.208-7.354-36.26-19.705l5.846-122.757c8.08-7.98 19.054-12.527 30.414-12.527zm-75.768 274.706H75.025a17.614 17.614 0 0 1-17.616-16.798L41.897 153.411a.5.5 0 0 1 .146-.393c.158-.166.325-.166.387-.166h307.008c.063 0 .229 0 .387.166a.503.503 0 0 1 .148.394L334.46 479.169a17.616 17.616 0 0 1-17.617 16.798zM470.105 332.96c0 42.731-34.764 77.495-77.495 77.495-13.457 0-26.642-3.548-38.338-10.274l1.005-21.098c10.391 8.452 23.448 13.201 37.333 13.201 32.711 0 59.324-26.612 59.324-59.324v-68.409c0-32.711-26.612-59.324-59.324-59.324-10.386 0-20.535 2.773-29.429 7.859l.978-20.538a76.12 76.12 0 0 1 28.451-5.491c42.731 0 77.495 34.764 77.495 77.495v68.408z"/><path d="M224.123 239.844c-4.2-1.4-8.74.87-10.141 5.071l-51.307 153.921c-1.4 4.2.87 8.74 5.071 10.141.841.28 1.695.414 2.536.414a8.021 8.021 0 0 0 7.604-5.483l51.307-153.921a8.019 8.019 0 0 0-5.07-10.143zM141.744 275.985a8.016 8.016 0 0 0-11.337 0l-42.756 42.756a8.016 8.016 0 0 0 0 11.337l42.756 42.756c1.565 1.565 3.617 2.348 5.668 2.348s4.103-.782 5.668-2.348a8.016 8.016 0 0 0 0-11.337l-37.087-37.087 37.087-37.087a8.016 8.016 0 0 0 .001-11.338zM261.461 275.985a8.016 8.016 0 0 0-11.337 0 8.016 8.016 0 0 0 0 11.337l37.087 37.087-37.087 37.087a8.016 8.016 0 0 0 5.668 13.685 7.988 7.988 0 0 0 5.668-2.348l42.756-42.756a8.016 8.016 0 0 0 0-11.337l-42.755-42.755zM179.366 110.63a8.017 8.017 0 0 0 16.034 0c0-10.399 3.18-15.169 7.204-21.207 4.639-6.959 9.898-14.846 9.898-30.1s-5.258-23.142-9.898-30.1c-4.025-6.038-7.204-10.808-7.204-21.207a8.017 8.017 0 0 0-16.034.001c0 15.254 5.258 23.142 9.898 30.1 4.025 6.038 7.204 10.808 7.204 21.207s-3.18 15.169-7.204 21.207c-4.64 6.958-9.898 14.845-9.898 30.099zM238.62 52.251a8.02 8.02 0 0 0 9.357 6.402 8.019 8.019 0 0 0 6.402-9.357c-1.707-9.104-5.589-14.926-9.013-20.063-2.455-3.684-7.433-4.677-11.116-2.224a8.018 8.018 0 0 0-2.224 11.118c2.946 4.419 5.49 8.236 6.594 14.124zM230.139 118.647a8.017 8.017 0 0 0 8.017-8.017c0-10.399 3.179-15.168 7.203-21.206a8.017 8.017 0 0 0-13.339-8.894c-4.639 6.958-9.897 14.846-9.897 30.099a8.015 8.015 0 0 0 8.016 8.018zM136.611 110.63a8.017 8.017 0 0 0 16.034 0c0-10.399 3.18-15.169 7.204-21.207 4.639-6.959 9.898-14.846 9.898-30.1s-5.255-23.136-9.892-30.09a8.015 8.015 0 0 0-11.116-2.223 8.014 8.014 0 0 0-2.223 11.116c4.022 6.033 7.198 10.798 7.198 21.197s-3.18 15.169-7.204 21.207c-4.642 6.959-9.899 14.846-9.899 30.1z"/></svg>