<svg width="200" height="120" viewBox="0 0 200 120" fill="none" xmlns="http://www.w3.org/2000/svg">
<rect width="200" height="120" rx="4" fill="#10427A"/>
<path d="M64.5714 101.824V96.5294C64.5714 94.5 63.2381 93.1765 60.9524 93.1765C59.8095 93.1765 58.5714 93.5294 57.7143 94.6765C57.0476 93.7059 56.0952 93.1765 54.6667 93.1765C53.7143 93.1765 52.7619 93.4412 52 94.4118V93.3529H50V101.824H52V97.1471C52 95.6471 52.8571 94.9412 54.1905 94.9412C55.5238 94.9412 56.1905 95.7353 56.1905 97.1471V101.824H58.1905V97.1471C58.1905 95.6471 59.1429 94.9412 60.381 94.9412C61.7143 94.9412 62.381 95.7353 62.381 97.1471V101.824H64.5714ZM94.1905 93.3529H90.9524V90.7941H88.9524V93.3529H87.1429V95.0294H88.9524V98.9118C88.9524 100.853 89.8095 102 92.0952 102C92.9524 102 93.9048 101.735 94.5714 101.382L94 99.7941C93.4286 100.147 92.7619 100.235 92.2857 100.235C91.3333 100.235 90.9524 99.7059 90.9524 98.8235V95.0294H94.1905V93.3529ZM111.143 93.1765C110 93.1765 109.238 93.7059 108.762 94.4118V93.3529H106.762V101.824H108.762V97.0588C108.762 95.6471 109.429 94.8529 110.667 94.8529C111.048 94.8529 111.524 94.9412 111.905 95.0294L112.476 93.2647C112.095 93.1765 111.524 93.1765 111.143 93.1765ZM85.5238 94.0588C84.5714 93.4412 83.2381 93.1765 81.8095 93.1765C79.5238 93.1765 78 94.2353 78 95.9118C78 97.3235 79.1429 98.1176 81.1429 98.3824L82.0952 98.4706C83.1429 98.6471 83.7143 98.9118 83.7143 99.3529C83.7143 99.9706 82.9524 100.412 81.619 100.412C80.2857 100.412 79.2381 99.9706 78.5714 99.5294L77.619 100.941C78.6667 101.647 80.0952 102 81.5238 102C84.1905 102 85.7143 100.853 85.7143 99.2647C85.7143 97.7647 84.4762 96.9706 82.5714 96.7059L81.619 96.6176C80.7619 96.5294 80.0952 96.3529 80.0952 95.8235C80.0952 95.2059 80.7619 94.8529 81.8095 94.8529C82.9524 94.8529 84.0952 95.2941 84.6667 95.5588L85.5238 94.0588ZM138.667 93.1765C137.524 93.1765 136.762 93.7059 136.286 94.4118V93.3529H134.286V101.824H136.286V97.0588C136.286 95.6471 136.952 94.8529 138.19 94.8529C138.571 94.8529 139.048 94.9412 139.429 95.0294L140 93.2647C139.619 93.1765 139.048 93.1765 138.667 93.1765ZM113.143 97.5882C113.143 100.147 115.048 102 118 102C119.333 102 120.286 101.735 121.238 101.029L120.286 99.5294C119.524 100.059 118.762 100.324 117.905 100.324C116.286 100.324 115.143 99.2647 115.143 97.5882C115.143 96 116.286 94.9412 117.905 94.8529C118.762 94.8529 119.524 95.1176 120.286 95.6471L121.238 94.1471C120.286 93.4412 119.333 93.1765 118 93.1765C115.048 93.1765 113.143 95.0294 113.143 97.5882ZM131.619 97.5882V93.3529H129.619V94.4118C128.952 93.6176 128 93.1765 126.762 93.1765C124.19 93.1765 122.19 95.0294 122.19 97.5882C122.19 100.147 124.19 102 126.762 102C128.095 102 129.048 101.559 129.619 100.765V101.824H131.619V97.5882ZM124.286 97.5882C124.286 96.0882 125.333 94.8529 127.048 94.8529C128.667 94.8529 129.81 96 129.81 97.5882C129.81 99.0882 128.667 100.324 127.048 100.324C125.333 100.235 124.286 99.0882 124.286 97.5882ZM100.381 93.1765C97.7143 93.1765 95.8095 94.9412 95.8095 97.5882C95.8095 100.235 97.7143 102 100.476 102C101.81 102 103.143 101.647 104.19 100.853L103.238 99.5294C102.476 100.059 101.524 100.412 100.571 100.412C99.3333 100.412 98.0952 99.8824 97.8095 98.3824H104.571V97.6765C104.667 94.9412 102.952 93.1765 100.381 93.1765ZM100.381 94.7647C101.619 94.7647 102.476 95.4706 102.667 96.7941H97.9048C98.0952 95.6471 98.9524 94.7647 100.381 94.7647ZM150 97.5882V90H148V94.4118C147.333 93.6176 146.381 93.1765 145.143 93.1765C142.571 93.1765 140.571 95.0294 140.571 97.5882C140.571 100.147 142.571 102 145.143 102C146.476 102 147.429 101.559 148 100.765V101.824H150V97.5882ZM142.667 97.5882C142.667 96.0882 143.714 94.8529 145.429 94.8529C147.048 94.8529 148.19 96 148.19 97.5882C148.19 99.0882 147.048 100.324 145.429 100.324C143.714 100.235 142.667 99.0882 142.667 97.5882ZM75.8095 97.5882V93.3529H73.8095V94.4118C73.1429 93.6176 72.1905 93.1765 70.9524 93.1765C68.381 93.1765 66.381 95.0294 66.381 97.5882C66.381 100.147 68.381 102 70.9524 102C72.2857 102 73.2381 101.559 73.8095 100.765V101.824H75.8095V97.5882ZM68.381 97.5882C68.381 96.0882 69.4286 94.8529 71.1429 94.8529C72.7619 94.8529 73.9048 96 73.9048 97.5882C73.9048 99.0882 72.7619 100.324 71.1429 100.324C69.4286 100.235 68.381 99.0882 68.381 97.5882Z" fill="white"/>
<circle cx="79.5" cy="50.5" r="32.5" fill="#D32011"/>
<circle cx="119.5" cy="50.5" r="32.5" fill="#F79E1B"/>
<circle cx="79.5" cy="50.5" r="32.5" fill="#EB001B" fill-opacity="0.3"/>
</svg>
