<svg width="200" height="120" viewBox="0 0 200 120" fill="none" xmlns="http://www.w3.org/2000/svg">
<rect width="200" height="120" rx="4" fill="#B9E8FF"/>
<path d="M123.676 26.0109C119.975 21.8037 113.284 20 104.725 20H79.8836C78.1324 20 76.6444 21.2701 76.3702 22.9922L66.0269 88.4135C65.8212 89.7034 66.8228 90.8721 68.134 90.8721H83.47L87.3216 66.5086L87.2022 67.2716C87.4764 65.5494 88.9534 64.2793 90.7024 64.2793H97.99C112.307 64.2793 123.517 58.4801 126.791 41.7042C126.889 41.208 126.973 40.7251 127.046 40.2533C126.632 40.035 126.632 40.035 127.046 40.2533C128.021 34.0527 127.039 29.8323 123.676 26.0109Z" fill="#27346A"/>
<path d="M93.1898 38.0196C93.5988 37.8255 94.0543 37.7175 94.5319 37.7175H114.007C116.313 37.7175 118.465 37.8674 120.43 38.1827C120.994 38.2731 121.54 38.3768 122.071 38.4958C122.601 38.6127 123.117 38.745 123.616 38.8906C123.866 38.9633 124.112 39.0383 124.353 39.1177C125.319 39.4396 126.219 39.8145 127.046 40.2533C128.021 34.0505 127.039 29.8323 123.676 26.0109C119.972 21.8037 113.284 20 104.725 20H79.8814C78.1324 20 76.6444 21.2701 76.3702 22.9922L66.0269 88.4113C65.8212 89.7034 66.8228 90.8699 68.1318 90.8699H83.47L91.4607 40.3348C91.6244 39.2985 92.2921 38.4495 93.1898 38.0196Z" fill="#27346A"/>
<path d="M126.792 41.7041C123.517 58.4778 112.307 64.2793 97.9902 64.2793H90.7003C88.9513 64.2793 87.4744 65.5494 87.2024 67.2715L82.411 97.5643C82.2319 98.6933 83.1075 99.7164 84.2528 99.7164H97.1809C98.711 99.7164 100.013 98.6051 100.252 97.099L100.378 96.4419L102.815 81.0419L102.972 80.1908C103.211 78.6848 104.513 77.5734 106.043 77.5734H107.978C120.501 77.5734 130.307 72.4996 133.173 57.8251C134.369 51.6929 133.75 46.5728 130.586 42.9764C129.626 41.8871 128.434 40.9875 127.046 40.2532C126.971 40.7273 126.889 41.208 126.792 41.7041Z" fill="#2790C3"/>
<path d="M123.618 38.8906C123.118 38.7451 122.603 38.6128 122.073 38.4959C121.542 38.379 120.994 38.2754 120.432 38.185C118.464 37.8675 116.315 37.7175 114.007 37.7175H94.5338C94.054 37.7175 93.5985 37.8256 93.1917 38.0218C92.2918 38.4518 91.6262 39.2985 91.4626 40.3371L87.3235 66.5087L87.2041 67.2716C87.4761 65.5495 88.9531 64.2794 90.702 64.2794H97.9919C112.309 64.2794 123.519 58.4802 126.793 41.7042C126.891 41.2081 126.972 40.7274 127.048 40.2533C126.218 39.8167 125.321 39.4397 124.354 39.1199C124.113 39.0406 123.868 38.9634 123.618 38.8906Z" fill="#1F264F"/>
</svg>
